<?xml version="1.0" standalone="no"?>
<!DOCTYPE svg PUBLIC "-//W3C//DTD SVG 1.1//EN" "http://www.w3.org/Graphics/SVG/1.1/DTD/svg11.dtd" >
<svg>
<metadata>
Created by FontForge 20090622 at Mon Jul  6 10:10:30 2015
 By deploy user
2005 Erik Spiekermann, Christian Schwartz published by FSI FontShop International GmbH
</metadata>
<defs>
<font id="UnitOT" horiz-adv-x="550" >
  <font-face 
    font-family="UnitOT"
    font-weight="400"
    font-stretch="normal"
    units-per-em="1000"
    panose-1="2 11 5 4 3 1 1 2 1 2"
    ascent="793"
    descent="-207"
    x-height="501"
    cap-height="689"
    bbox="-725 -255 1800 979"
    underline-thickness="80"
    underline-position="-20"
    unicode-range="U+000D-U+FB06"
  />
<missing-glyph horiz-adv-x="527" 
d="M88 0v689h351v-689h-351zM163 75h201v539h-201v-539z" />
    <glyph glyph-name="f_b" unicode="fb" horiz-adv-x="810" 
d="M555 61q38 0 58.5 13t32 54t11.5 120q0 80 -10 121.5t-29 56t-55 14.5q-57 0 -119 -59v-271q51 -49 111 -49zM444 724v-275q62 65 134 65q80 0 125.5 -58t45.5 -202q0 -140 -41.5 -203.5t-130.5 -63.5q-40 0 -77.5 17.5t-60.5 43.5l-14 -48h-67v647q-32 8 -74 8
q-55 0 -81.5 -22t-26.5 -70v-62h104v-70h-104v-431h-86v431h-55v70h55v61q0 83 50.5 125.5t131.5 42.5q49 0 89 -6h83z" />
    <glyph glyph-name="f_f" unicode="ff" horiz-adv-x="573" 
d="M35 431v70h55v70q0 80 35.5 114.5t91.5 34.5q58 0 96 -23l-29 -67q-27 14 -55 14q-53 0 -53 -72v-71h182v80q0 149 133 149q63 0 104 -27l-30 -65q-31 16 -62 16t-45 -17t-14 -55v-81h94v-70h-94v-431h-86v431h-182v-431h-86v431h-55z" />
    <glyph glyph-name="f_f_b" unicode="ffb" horiz-adv-x="1078" 
d="M823 61q38 0 58.5 13t32 54t11.5 120q0 80 -10 121.5t-29 56t-55 14.5q-57 0 -119 -59v-271q51 -49 111 -49zM176 431v-431h-86v431h-55v70h55v70q0 80 35.5 114.5t91.5 34.5q58 0 96 -23l-29 -67q-27 14 -55 14q-53 0 -53 -72v-71h182v61q0 83 50.5 125.5t131.5 42.5
q49 0 89 -6h83v-275q62 65 134 65q80 0 125.5 -58t45.5 -202q0 -140 -41.5 -203.5t-130.5 -63.5q-40 0 -77.5 17.5t-60.5 43.5l-14 -48h-67v647q-32 8 -74 8q-55 0 -81.5 -22t-26.5 -70v-62h104v-70h-104v-431h-86v431h-182z" />
    <glyph glyph-name="f_f_h" unicode="ffh" horiz-adv-x="1065" 
d="M712 724v-279q74 69 147 69q56 0 88.5 -30t32.5 -92v-392h-86v365q0 42 -13.5 57.5t-47.5 15.5q-53 0 -121 -60v-378h-86v647q-32 8 -74 8q-55 0 -81.5 -22t-26.5 -70v-62h104v-70h-104v-431h-86v431h-182v-431h-86v431h-55v70h55v70q0 80 35.5 114.5t91.5 34.5
q58 0 96 -23l-29 -67q-27 14 -55 14q-53 0 -53 -72v-71h182v61q0 83 50.5 125.5t131.5 42.5q49 0 89 -6h83z" />
    <glyph glyph-name="f_f_i" unicode="ffi" horiz-adv-x="797" 
d="M358 0v431h-182v-431h-86v431h-55v70h55v70q0 80 35.5 114.5t91.5 34.5q58 0 96 -23l-29 -67q-27 14 -55 14q-53 0 -53 -72v-71h182v61q0 84 44.5 126t120.5 42q75 0 131 -32l-32 -71q-43 23 -87 23q-50 0 -70.5 -19t-20.5 -68v-62h268v-501h-86v431h-182v-431h-86z" />
    <glyph glyph-name="f_f_j" unicode="ffj" horiz-adv-x="797" 
d="M176 501h182v61q0 84 44.5 126t120.5 42q75 0 131 -32l-32 -71q-43 23 -87 23q-50 0 -70.5 -19t-20.5 -68v-62h268v-490q0 -99 -26 -140t-99 -77l-36 59q46 30 60.5 61t14.5 98v419h-182v-431h-86v431h-182v-431h-86v431h-55v70h55v70q0 80 35.5 114.5t91.5 34.5
q58 0 96 -23l-29 -67q-27 14 -55 14q-53 0 -53 -72v-71z" />
    <glyph glyph-name="f_f_k" unicode="ffk" horiz-adv-x="1023" 
d="M907 0l-184 285l162 216h97l-164 -213l190 -288h-101zM176 501h182v61q0 83 50.5 125.5t131.5 42.5q49 0 89 -6h83v-724h-86v647q-32 8 -74 8q-55 0 -81.5 -22t-26.5 -70v-62h104v-70h-104v-431h-86v431h-182v-431h-86v431h-55v70h55v70q0 80 35.5 114.5t91.5 34.5
q58 0 96 -23l-29 -67q-27 14 -55 14q-53 0 -53 -72v-71z" />
    <glyph glyph-name="f_f_l" unicode="ffl" horiz-adv-x="810" 
d="M358 0v431h-182v-431h-86v431h-55v70h55v70q0 80 35.5 114.5t91.5 34.5q58 0 96 -23l-29 -67q-27 14 -55 14q-53 0 -53 -72v-71h182v61q0 83 50.5 125.5t131.5 42.5q49 0 89 -6h83v-628q0 -35 35 -35q12 0 20 2l12 -62q-27 -11 -62 -11q-48 0 -69.5 28t-21.5 94v535
q-32 8 -74 8q-55 0 -81.5 -22t-26.5 -70v-62h104v-70h-104v-431h-86z" />
    <glyph glyph-name="f_f_r" unicode="ffr" horiz-adv-x="931" 
d="M626 0v431h-182v-431h-86v431h-182v-431h-86v431h-55v70h55v70q0 80 35.5 114.5t91.5 34.5q58 0 96 -23l-29 -67q-27 14 -55 14q-53 0 -53 -72v-71h182v80q0 149 133 149q63 0 104 -27l-30 -65q-31 16 -62 16t-45 -17t-14 -55v-81h249l14 -71q64 80 141 80q12 0 18 -3
l-10 -92q-12 4 -30 4q-58 0 -114 -51v-368h-86z" />
    <glyph glyph-name="f_f_t" unicode="fft" horiz-adv-x="862" 
d="M626 431h-182v-431h-86v431h-182v-431h-86v431h-55v70h55v70q0 80 35.5 114.5t91.5 34.5q58 0 96 -23l-29 -67q-27 14 -55 14q-53 0 -53 -72v-71h182v32q0 95 47.5 146t132.5 51q83 0 128.5 -37.5t45.5 -106.5v-85h103v-70h-103v-329q0 -46 41 -46q18 0 55 14l17 -64
q-40 -19 -79 -19q-120 0 -120 107v337zM626 501v87q0 41 -21 58t-67 17q-52 0 -73 -34t-21 -106v-22h182z" />
    <glyph glyph-name="f_f_u" unicode="ffu" horiz-adv-x="1072" 
d="M754 -13q-57 0 -92.5 32.5t-35.5 95.5v316h-182v-431h-86v431h-182v-431h-86v431h-55v70h55v70q0 80 35.5 114.5t91.5 34.5q58 0 96 -23l-29 -67q-27 14 -55 14q-53 0 -53 -72v-71h182v80q0 149 133 149q63 0 104 -27l-30 -65q-31 16 -62 16t-45 -17t-14 -55v-81h268
v-359q0 -43 15.5 -61t49.5 -18q53 0 120 60v378h86v-501h-67l-13 62q-73 -75 -149 -75z" />
    <glyph glyph-name="f_f_uacute" unicode="ff&#xfa;" horiz-adv-x="1072" 
d="M754 -13q-57 0 -92.5 32.5t-35.5 95.5v316h-182v-431h-86v431h-182v-431h-86v431h-55v70h55v70q0 80 35.5 114.5t91.5 34.5q58 0 96 -23l-29 -67q-27 14 -55 14q-53 0 -53 -72v-71h182v80q0 149 133 149q63 0 104 -27l-30 -65q-31 16 -62 16t-45 -17t-14 -55v-81h268
v-359q0 -43 15.5 -61t49.5 -18q53 0 120 60v378h86v-501h-67l-13 62q-73 -75 -149 -75zM745 564l-31 53l191 133l46 -84z" />
    <glyph glyph-name="f_f_ucircumflex" unicode="ff&#xfb;" horiz-adv-x="1072" 
d="M754 -13q-57 0 -92.5 32.5t-35.5 95.5v316h-182v-431h-86v431h-182v-431h-86v431h-55v70h55v70q0 80 35.5 114.5t91.5 34.5q58 0 96 -23l-29 -67q-27 14 -55 14q-53 0 -53 -72v-71h182v80q0 149 133 149q63 0 104 -27l-30 -65q-31 16 -62 16t-45 -17t-14 -55v-81h268
v-359q0 -43 15.5 -61t49.5 -18q53 0 120 60v378h86v-501h-67l-13 62q-73 -75 -149 -75zM686 570l-33 45l124 127h58l123 -127l-33 -45l-119 84z" />
    <glyph glyph-name="f_f_udieresis" unicode="ff&#xfc;" horiz-adv-x="1072" 
d="M754 -13q-57 0 -92.5 32.5t-35.5 95.5v316h-182v-431h-86v431h-182v-431h-86v431h-55v70h55v70q0 80 35.5 114.5t91.5 34.5q58 0 96 -23l-29 -67q-27 14 -55 14q-53 0 -53 -72v-71h182v80q0 149 133 149q63 0 104 -27l-30 -65q-31 16 -62 16t-45 -17t-14 -55v-81h268
v-359q0 -43 15.5 -61t49.5 -18q53 0 120 60v378h86v-501h-67l-13 62q-73 -75 -149 -75zM905 567q-23 0 -41 17.5t-18 42.5t18 42.5t41 17.5t41 -17.5t18 -42.5t-18 -42.5t-41 -17.5zM706 567q-24 0 -41.5 17.5t-17.5 42.5t17.5 42.5t41.5 17.5t41.5 -17.5t17.5 -42.5
t-17.5 -42.5t-41.5 -17.5z" />
    <glyph glyph-name="f_f_ugrave" unicode="ff&#xf9;" horiz-adv-x="1072" 
d="M754 -13q-57 0 -92.5 32.5t-35.5 95.5v316h-182v-431h-86v431h-182v-431h-86v431h-55v70h55v70q0 80 35.5 114.5t91.5 34.5q58 0 96 -23l-29 -67q-27 14 -55 14q-53 0 -53 -72v-71h182v80q0 149 133 149q63 0 104 -27l-30 -65q-31 16 -62 16t-45 -17t-14 -55v-81h268
v-359q0 -43 15.5 -61t49.5 -18q53 0 120 60v378h86v-501h-67l-13 62q-73 -75 -149 -75zM867 564l-206 102l46 84l191 -133z" />
    <glyph glyph-name="f_f_v" unicode="ffv" horiz-adv-x="988" 
d="M707 0l-142 431h-121v-431h-86v431h-182v-431h-86v431h-55v70h55v70q0 80 35.5 114.5t91.5 34.5q58 0 96 -23l-29 -67q-27 14 -55 14q-53 0 -53 -72v-71h182v80q0 149 133 149q63 0 104 -27l-30 -65q-31 16 -62 16t-45 -17t-14 -55v-81h192l85 -287q2 -6 31 -130h1
q18 89 31 132l85 285h89l-168 -501h-83z" />
    <glyph glyph-name="f_f_w" unicode="ffw" horiz-adv-x="1219" 
d="M647 501l61 -257q4 -18 25 -142h2q8 70 24 133l68 266h90l64 -258q12 -51 28 -141h2q13 80 26 138l62 261h87l-132 -501h-86l-69 267q-5 18 -30 145h-1q-16 -96 -29 -145l-68 -267h-86l-112 431h-129v-431h-86v431h-182v-431h-86v431h-55v70h55v70q0 80 35.5 114.5
t91.5 34.5q58 0 96 -23l-29 -67q-27 14 -55 14q-53 0 -53 -72v-71h182v80q0 149 133 149q63 0 104 -27l-30 -65q-31 16 -62 16t-45 -17t-14 -55v-81h203z" />
    <glyph glyph-name="f_f_y" unicode="ffy" horiz-adv-x="993" 
d="M603 -207l-19 70q62 16 90 42.5t48 94.5h-21l-134 431h-123v-431h-86v431h-182v-431h-86v431h-55v70h55v70q0 80 35.5 114.5t91.5 34.5q58 0 96 -23l-29 -67q-27 14 -55 14q-53 0 -53 -72v-71h182v80q0 149 133 149q63 0 104 -27l-30 -65q-31 16 -62 16t-45 -17t-14 -55
v-81h195l84 -295q14 -52 30 -137h1q19 98 31 137l89 295h89l-166 -517q-18 -56 -35.5 -89.5t-42 -54t-49 -29.5t-67.5 -18z" />
    <glyph glyph-name="f_f_yacute" unicode="ff&#xfd;" horiz-adv-x="993" 
d="M603 -207l-19 70q62 16 90 42.5t48 94.5h-21l-134 431h-123v-431h-86v431h-182v-431h-86v431h-55v70h55v70q0 80 35.5 114.5t91.5 34.5q58 0 96 -23l-29 -67q-27 14 -55 14q-53 0 -53 -72v-71h182v80q0 149 133 149q63 0 104 -27l-30 -65q-31 16 -62 16t-45 -17t-14 -55
v-81h195l84 -295q14 -52 30 -137h1q19 98 31 137l89 295h89l-166 -517q-18 -56 -35.5 -89.5t-42 -54t-49 -29.5t-67.5 -18zM707 564l-31 53l191 133l46 -84z" />
    <glyph glyph-name="f_h" unicode="fh" horiz-adv-x="797" 
d="M444 724v-279q74 69 147 69q56 0 88.5 -30t32.5 -92v-392h-86v365q0 42 -13.5 57.5t-47.5 15.5q-53 0 -121 -60v-378h-86v647q-32 8 -74 8q-55 0 -81.5 -22t-26.5 -70v-62h104v-70h-104v-431h-86v431h-55v70h55v61q0 83 50.5 125.5t131.5 42.5q49 0 89 -6h83z" />
    <glyph glyph-name="f_i" unicode="fi" horiz-adv-x="529" 
d="M358 0v431h-182v-431h-86v431h-55v70h55v61q0 84 44.5 126t120.5 42q75 0 131 -32l-32 -71q-43 23 -87 23q-50 0 -70.5 -19t-20.5 -68v-62h268v-501h-86z" />
    <glyph glyph-name="f_j" unicode="fj" horiz-adv-x="529" 
d="M319 -206l-36 59q46 30 60.5 61t14.5 98v419h-182v-431h-86v431h-55v70h55v61q0 84 44.5 126t120.5 42q75 0 131 -32l-32 -71q-43 23 -87 23q-50 0 -70.5 -19t-20.5 -68v-62h268v-490q0 -99 -26 -140t-99 -77z" />
    <glyph glyph-name="f_k" unicode="fk" horiz-adv-x="755" 
d="M358 0v647q-32 8 -74 8q-55 0 -81.5 -22t-26.5 -70v-62h104v-70h-104v-431h-86v431h-55v70h55v61q0 83 50.5 125.5t131.5 42.5q49 0 89 -6h83v-724h-86zM639 0l-184 285l162 216h97l-164 -213l190 -288h-101z" />
    <glyph glyph-name="f_l" unicode="fl" horiz-adv-x="542" 
d="M449 -10q-48 0 -69.5 28t-21.5 94v535q-32 8 -74 8q-55 0 -81.5 -22t-26.5 -70v-62h104v-70h-104v-431h-86v431h-55v70h55v61q0 83 50.5 125.5t131.5 42.5q49 0 89 -6h83v-628q0 -35 35 -35q10 0 20 2l12 -62q-27 -11 -62 -11z" />
    <glyph glyph-name="f_r" unicode="fr" horiz-adv-x="663" 
d="M358 0v431h-182v-431h-86v431h-55v70h55v80q0 149 133 149q63 0 104 -27l-30 -65q-31 16 -62 16t-45 -17t-14 -55v-81h249l14 -71q64 80 141 80q12 0 18 -3l-10 -92q-12 4 -30 4q-58 0 -114 -51v-368h-86z" />
    <glyph glyph-name="f_t" unicode="ft" horiz-adv-x="594" 
d="M358 431h-182v-431h-86v431h-55v70h55v32q0 95 47.5 146t132.5 51q83 0 128.5 -37.5t45.5 -106.5v-85h103v-70h-103v-329q0 -46 41 -46q18 0 55 14l17 -64q-40 -19 -79 -19q-120 0 -120 107v337zM358 501v87q0 41 -21 58t-67 17q-52 0 -73 -34t-21 -106v-22h182z" />
    <glyph glyph-name="f_u" unicode="fu" horiz-adv-x="804" 
d="M486 -13q-57 0 -92.5 32.5t-35.5 95.5v316h-182v-431h-86v431h-55v70h55v80q0 149 133 149q63 0 104 -27l-30 -65q-31 16 -62 16t-45 -17t-14 -55v-81h268v-359q0 -43 15.5 -61t49.5 -18q53 0 120 60v378h86v-501h-67l-13 62q-73 -75 -149 -75z" />
    <glyph glyph-name="f_uacute" unicode="f&#xfa;" horiz-adv-x="804" 
d="M486 -13q-57 0 -92.5 32.5t-35.5 95.5v316h-182v-431h-86v431h-55v70h55v80q0 149 133 149q63 0 104 -27l-30 -65q-31 16 -62 16t-45 -17t-14 -55v-81h268v-359q0 -43 15.5 -61t49.5 -18q53 0 120 60v378h86v-501h-67l-13 62q-73 -75 -149 -75zM477 564l-31 53l191 133
l46 -84z" />
    <glyph glyph-name="f_ucircumflex" unicode="f&#xfb;" horiz-adv-x="804" 
d="M486 -13q-57 0 -92.5 32.5t-35.5 95.5v316h-182v-431h-86v431h-55v70h55v80q0 149 133 149q63 0 104 -27l-30 -65q-31 16 -62 16t-45 -17t-14 -55v-81h268v-359q0 -43 15.5 -61t49.5 -18q53 0 120 60v378h86v-501h-67l-13 62q-73 -75 -149 -75zM418 570l-33 45l124 127
h58l123 -127l-33 -45l-119 84z" />
    <glyph glyph-name="f_udieresis" unicode="f&#xfc;" horiz-adv-x="804" 
d="M486 -13q-57 0 -92.5 32.5t-35.5 95.5v316h-182v-431h-86v431h-55v70h55v80q0 149 133 149q63 0 104 -27l-30 -65q-31 16 -62 16t-45 -17t-14 -55v-81h268v-359q0 -43 15.5 -61t49.5 -18q53 0 120 60v378h86v-501h-67l-13 62q-73 -75 -149 -75zM438 567q-24 0 -41.5 17.5
t-17.5 42.5t17.5 42.5t41.5 17.5t41.5 -17.5t17.5 -42.5t-17.5 -42.5t-41.5 -17.5zM637 567q-23 0 -41 17.5t-18 42.5t18 42.5t41 17.5t41 -17.5t18 -42.5t-18 -42.5t-41 -17.5z" />
    <glyph glyph-name="f_ugrave" unicode="f&#xf9;" horiz-adv-x="804" 
d="M486 -13q-57 0 -92.5 32.5t-35.5 95.5v316h-182v-431h-86v431h-55v70h55v80q0 149 133 149q63 0 104 -27l-30 -65q-31 16 -62 16t-45 -17t-14 -55v-81h268v-359q0 -43 15.5 -61t49.5 -18q53 0 120 60v378h86v-501h-67l-13 62q-73 -75 -149 -75zM599 564l-206 102l46 84
l191 -133z" />
    <glyph glyph-name="f_v" unicode="fv" horiz-adv-x="720" 
d="M439 0l-142 431h-121v-431h-86v431h-55v70h55v80q0 149 133 149q63 0 104 -27l-30 -65q-31 16 -62 16t-45 -17t-14 -55v-81h192l85 -287q2 -6 31 -130h1q18 89 31 132l85 285h89l-168 -501h-83z" />
    <glyph glyph-name="f_w" unicode="fw" horiz-adv-x="951" 
d="M379 501l61 -257q4 -18 25 -142h2q8 70 24 133l68 266h90l64 -258q12 -51 28 -141h2q13 80 26 138l62 261h87l-132 -501h-86l-69 267q-5 18 -30 145h-1q-16 -96 -29 -145l-68 -267h-86l-112 431h-129v-431h-86v431h-55v70h55v80q0 149 133 149q63 0 104 -27l-30 -65
q-31 16 -62 16t-45 -17t-14 -55v-81h203z" />
    <glyph glyph-name="f_y" unicode="fy" horiz-adv-x="725" 
d="M335 -207l-19 70q62 16 90 42.5t48 94.5h-21l-134 431h-123v-431h-86v431h-55v70h55v80q0 149 133 149q63 0 104 -27l-30 -65q-31 16 -62 16t-45 -17t-14 -55v-81h195l84 -295q14 -52 30 -137h1q19 98 31 137l89 295h89l-166 -517q-18 -56 -35.5 -89.5t-42 -54t-49 -29.5
t-67.5 -18z" />
    <glyph glyph-name="f_yacute" unicode="f&#xfd;" horiz-adv-x="725" 
d="M335 -207l-19 70q62 16 90 42.5t48 94.5h-21l-134 431h-123v-431h-86v431h-55v70h55v80q0 149 133 149q63 0 104 -27l-30 -65q-31 16 -62 16t-45 -17t-14 -55v-81h195l84 -295q14 -52 30 -137h1q19 98 31 137l89 295h89l-166 -517q-18 -56 -35.5 -89.5t-42 -54t-49 -29.5
t-67.5 -18zM439 564l-31 53l191 133l46 -84z" />
    <glyph glyph-name=".notdef" horiz-adv-x="527" 
d="M88 0v689h351v-689h-351zM163 75h201v539h-201v-539z" />
    <glyph glyph-name=".null" horiz-adv-x="0" 
 />
    <glyph glyph-name=".null" horiz-adv-x="0" 
 />
    <glyph glyph-name="nonmarkingreturn" horiz-adv-x="333" 
 />
    <glyph glyph-name="CR" unicode="&#xd;" horiz-adv-x="242" 
 />
    <glyph glyph-name="space" unicode=" " horiz-adv-x="242" 
 />
    <glyph glyph-name="exclam" unicode="!" horiz-adv-x="280" 
d="M105 210l-21 479h108l-21 -479h-66zM140 -9q-28 0 -47 19.5t-19 47.5t19 47.5t47 19.5t47 -19t19 -48t-19 -48t-47 -19z" />
    <glyph glyph-name="quotedbl" unicode="&#x22;" horiz-adv-x="416" 
d="M252 453v256h81v-256h-81zM82 453v256h81v-256h-81z" />
    <glyph glyph-name="numbersign" unicode="#" horiz-adv-x="556" 
d="M72 396v74h101l24 166h69l-24 -166h116l24 166h69l-24 -166h84v-74h-95l-21 -145h88v-74h-99l-26 -177h-69l26 177h-116l-26 -177h-69l26 177h-86v74h97l21 145h-90zM231 396l-21 -145h116l21 145h-116z" />
    <glyph glyph-name="dollar" unicode="$" horiz-adv-x="508" 
d="M224 -131v119q-109 6 -184 70l40 60q78 -54 146 -58v238q-82 32 -120 71.5t-38 111.5q0 77 40.5 119.5t115.5 47.5v135h61v-136q74 -7 134 -49l-37 -64q-51 34 -99 40v-204q53 -21 85.5 -41.5t56 -60.5t23.5 -97q0 -166 -163 -182v-120h-61zM360 166q0 47 -17 69t-60 40
v-212q42 7 59.5 31.5t17.5 71.5zM154 486q0 -39 15.5 -58t56.5 -36v182q-72 -9 -72 -88z" />
    <glyph glyph-name="percent" unicode="%" horiz-adv-x="836" 
d="M210 302q-69 0 -111.5 47.5t-42.5 125.5t42 125t111 47t111.5 -47.5t42.5 -126.5q0 -78 -42 -124.5t-111 -46.5zM626 -11q-69 0 -111.5 47.5t-42.5 125.5t42 125t111 47t111.5 -47.5t42.5 -126.5q0 -78 -42 -124.5t-111 -46.5zM187 0l384 636h77l-384 -636h-77zM626 52
q71 0 71 104q0 64 -17 89.5t-55 25.5q-71 0 -71 -105q0 -63 17 -88.5t55 -25.5zM210 365q71 0 71 104q0 64 -17 89.5t-55 25.5q-71 0 -71 -105q0 -63 17 -88.5t55 -25.5z" />
    <glyph glyph-name="ampersand" unicode="&#x26;" horiz-adv-x="664" 
d="M287 -13q-116 0 -174.5 56t-58.5 147q0 73 35 120.5t111 82.5l-7 9q-37 46 -54 78.5t-17 72.5q0 68 45.5 108.5t123.5 40.5q76 0 122 -41t46 -116q0 -53 -34 -91.5t-101 -73.5l144 -173q20 62 31 150l83 -9q-17 -135 -55 -212l114 -136h-116l-50 59q-69 -72 -188 -72z
M290 58q84 0 134 64l-183 220q-89 -44 -89 -150q0 -65 31 -99.5t107 -34.5zM213 556q0 -41 47 -98l23 -28q46 30 63.5 54t17.5 60q0 89 -72 89q-38 0 -58.5 -20.5t-20.5 -56.5z" />
    <glyph glyph-name="quotesingle" unicode="'" horiz-adv-x="246" 
d="M82 453v256h81v-256h-81z" />
    <glyph glyph-name="parenleft" unicode="(" horiz-adv-x="353" 
d="M285 -159q-224 109 -224 462q0 188 55.5 303t167.5 169l29 -53q-81 -52 -118 -148t-37 -269q0 -174 37 -267t118 -144z" />
    <glyph glyph-name="parenright" unicode=")" horiz-adv-x="353" 
d="M67 -159l-28 53q81 51 118 144t37 267q0 173 -37 269t-118 148l29 53q112 -54 167.5 -169t55.5 -303q0 -353 -224 -462z" />
    <glyph glyph-name="asterisk" unicode="*" horiz-adv-x="483" 
d="M160 316l-54 36l86 128l-136 48l21 62l131 -52v151h67v-150l131 49l21 -62l-136 -47l87 -126l-54 -37l-82 125z" />
    <glyph glyph-name="plus" unicode="+" horiz-adv-x="549" 
d="M234 78v177h-161v75h161v177h81v-177h160v-75h-160v-177h-81z" />
    <glyph glyph-name="comma" unicode="," horiz-adv-x="277" 
d="M86 -134l-16 47q62 25 61 79q-21 2 -41 19.5t-20 49.5q0 30 18.5 49t45.5 19q33 0 53.5 -25.5t20.5 -67.5q0 -138 -122 -170z" />
    <glyph glyph-name="hyphen" unicode="-" horiz-adv-x="301" 
d="M53 225v91h193v-91h-193z" />
    <glyph glyph-name="period" unicode="." horiz-adv-x="277" 
d="M138 -9q-29 0 -48.5 20t-19.5 49t19.5 49t48.5 20t48.5 -20t19.5 -49t-19.5 -49t-48.5 -20z" />
    <glyph glyph-name="slash" unicode="/" horiz-adv-x="379" 
d="M33 -149l233 910h79l-233 -910h-79z" />
    <glyph glyph-name="zero" unicode="0" horiz-adv-x="620" 
d="M311 -12q-121 0 -185 82t-64 246q0 161 65 247t182 86q120 0 184 -83t64 -245q0 -166 -63 -249.5t-183 -83.5zM310 59q81 0 116 60.5t35 195.5q0 137 -35 199t-116 62t-116.5 -61t-35.5 -195q0 -136 35.5 -198.5t116.5 -62.5z" />
    <glyph glyph-name="one" unicode="1" horiz-adv-x="456" 
d="M75 0v74h128v451l-126 -60l-26 47l174 131h68v-569h112v-74h-330z" />
    <glyph glyph-name="two" unicode="2" horiz-adv-x="503" 
d="M50 0v82q180 154 235 227.5t55 151.5q0 112 -107 112q-75 0 -151 -48l-34 63q93 61 192 61q86 0 140 -46t54 -139q0 -91 -58.5 -171.5t-223.5 -215.5h293v-77h-395z" />
    <glyph glyph-name="three" unicode="3" horiz-adv-x="516" 
d="M212 -66q-91 0 -169 29l16 71q92 -22 149 -22q81 0 114.5 32t33.5 110q0 74 -35 100.5t-118 26.5h-37v71h48q68 0 96.5 28.5t28.5 89.5q0 101 -108 101q-77 0 -152 -39l-30 65q91 52 193 52q87 0 138.5 -47.5t51.5 -121.5q0 -121 -97 -162q56 -16 87.5 -62t31.5 -106
q0 -216 -242 -216z" />
    <glyph glyph-name="four" unicode="4" horiz-adv-x="570" 
d="M51 100v85l200 451h94l-207 -459h219v265l90 17v-282h75v-77h-75v-153h-90v153h-306z" />
    <glyph glyph-name="five" unicode="5" horiz-adv-x="517" 
d="M193 -66q-70 0 -150 28l16 70q74 -22 137 -22q167 0 167 161q0 76 -38.5 108.5t-116.5 32.5q-62 0 -124 -19l30 343h321v-78h-248l-15 -178q25 5 55 5q104 0 167.5 -54t63.5 -154q0 -115 -69.5 -179t-195.5 -64z" />
    <glyph glyph-name="six" unicode="6" horiz-adv-x="575" 
d="M292 -13q-102 0 -165.5 77t-63.5 212q0 193 88.5 293t267.5 134l18 -67q-130 -34 -192 -86t-80 -166q63 58 146 58q88 0 145.5 -61t57.5 -162q0 -109 -62 -170.5t-160 -61.5zM294 371q-76 0 -136 -52q-1 -17 -1 -52q0 -110 33.5 -159.5t101.5 -49.5q62 0 94.5 42
t32.5 117q0 73 -33 113.5t-92 40.5z" />
    <glyph glyph-name="seven" unicode="7" horiz-adv-x="506" 
d="M213 -64l-94 12q20 204 88 357.5t154 252.5h-315v78h401v-82q-92 -105 -157.5 -267.5t-76.5 -350.5z" />
    <glyph glyph-name="eight" unicode="8" horiz-adv-x="568" 
d="M286 -13q-107 0 -166 52.5t-59 139.5q0 68 34 110t100 72q-107 56 -107 167q0 80 52 127t146 47q90 0 143 -46.5t53 -121.5q0 -55 -28 -95t-94 -73q79 -33 112.5 -79.5t33.5 -113.5q0 -88 -58.5 -137t-161.5 -49zM318 299l-69 29q-49 -25 -73 -59t-24 -87
q0 -127 135 -127q61 0 93.5 28.5t32.5 79.5q0 49 -20.5 81t-74.5 55zM179 531q0 -46 19.5 -72t78.5 -51l23 -10q54 30 72.5 60t18.5 75q0 101 -108 101q-104 0 -104 -103z" />
    <glyph glyph-name="nine" unicode="9" horiz-adv-x="575" 
d="M146 -67l-18 67q127 33 192.5 85t86.5 163q-62 -54 -140 -54q-91 0 -148.5 62t-57.5 161q0 108 63 170t160 62q104 0 166 -73.5t62 -210.5q0 -194 -89.5 -295t-276.5 -137zM277 265q79 0 139 52q2 36 2 57q0 110 -34.5 157t-101.5 47q-126 0 -126 -159q0 -154 121 -154z
" />
    <glyph glyph-name="colon" unicode=":" horiz-adv-x="299" 
d="M149 298q-29 0 -48.5 20t-19.5 49t19.5 49t48.5 20t48.5 -20t19.5 -49t-19.5 -49t-48.5 -20zM149 -9q-29 0 -48.5 20t-19.5 49t19.5 49t48.5 20t48.5 -20t19.5 -49t-19.5 -49t-48.5 -20z" />
    <glyph glyph-name="semicolon" unicode=";" horiz-adv-x="299" 
d="M97 -134l-16 47q62 25 61 79q-21 2 -41 19.5t-20 49.5q0 30 18.5 49t45.5 19q33 0 53.5 -25.5t20.5 -67.5q0 -138 -122 -170zM149 298q-29 0 -48.5 20t-19.5 49t19.5 49t48.5 20t48.5 -20t19.5 -49t-19.5 -49t-48.5 -20z" />
    <glyph glyph-name="less" unicode="&#x3c;" horiz-adv-x="381" 
d="M282 71l-225 199v44l225 199l50 -52l-189 -168l189 -168z" />
    <glyph glyph-name="equal" unicode="=" horiz-adv-x="551" 
d="M74 355v75h402v-75h-402zM74 155v75h402v-75h-402z" />
    <glyph glyph-name="greater" unicode="&#x3e;" horiz-adv-x="381" 
d="M98 71l-50 52l189 168l-189 168l50 54l225 -199v-44z" />
    <glyph glyph-name="question" unicode="?" horiz-adv-x="440" 
d="M153 210v90q0 49 17 80.5t53 57.5q27 20 37 28.5t19.5 29.5t9.5 52q0 40 -18.5 57.5t-64.5 17.5q-57 0 -122 -44l-36 65q77 56 165 56q76 0 120 -37t44 -113q0 -19 -2.5 -35.5t-5.5 -28.5t-11.5 -24.5t-12.5 -19t-17 -18t-17.5 -15l-21 -16t-21.5 -15.5q-40 -30 -40 -86
v-82h-75zM192 -9q-28 0 -47 19.5t-19 47.5t19 47.5t47 19.5t47 -19t19 -48t-19 -48t-47 -19z" />
    <glyph glyph-name="at" unicode="@" horiz-adv-x="836" 
d="M389 -162q-165 0 -248 92.5t-83 268.5q0 188 104 308.5t289 120.5q161 0 244 -93.5t83 -254.5q0 -290 -178 -290q-114 0 -128 104q-75 -89 -149 -89q-41 0 -67 35.5t-26 105.5q0 52 12 105q23 108 67.5 157.5t115.5 49.5q55 0 101 -46l7 35h82l-61 -285q-5 -27 -5 -42
q0 -62 47 -62q52 0 76 53t24 169q0 144 -56 212.5t-191 68.5q-154 0 -231 -99.5t-77 -262.5q0 -155 56.5 -224.5t190.5 -69.5q73 0 139 23l19 -62q-77 -28 -157 -28zM348 74q47 0 119 70l47 216q-40 36 -79 36q-43 0 -65.5 -33t-41.5 -121q-16 -73 -16 -113q0 -55 36 -55z
" />
    <glyph glyph-name="A" unicode="A" horiz-adv-x="579" 
d="M28 0l213 690h102l207 -690h-101l-56 200h-213l-58 -200h-94zM238 397l-35 -119h168l-33 119q-32 114 -48 199h-2q-14 -77 -50 -199z" />
    <glyph glyph-name="B" unicode="B" horiz-adv-x="574" 
d="M88 0v689h203q198 0 198 -184q0 -56 -18 -87.5t-66 -51.5q115 -33 115 -173q0 -99 -58.5 -146t-159.5 -47h-214zM180 77h112q71 0 100.5 28.5t29.5 92.5t-28 92.5t-98 28.5h-116v-242zM179 397h114q58 0 78.5 24.5t20.5 81.5t-23 83t-81 26h-109v-215z" />
    <glyph glyph-name="C" unicode="C" horiz-adv-x="553" 
d="M332 -13q-137 0 -202 89.5t-65 265.5q0 360 267 360q102 0 165 -54l-44 -67q-56 43 -121 43q-96 0 -131 -64t-35 -214q0 -152 35.5 -216.5t133.5 -64.5q65 0 129 51l44 -68q-80 -61 -176 -61z" />
    <glyph glyph-name="D" unicode="D" horiz-adv-x="604" 
d="M88 0v689h176q144 0 209 -78t65 -271q0 -131 -30 -206.5t-86.5 -104.5t-152.5 -29h-181zM180 79h91q98 0 133 57t35 208q0 153 -33.5 210.5t-132.5 57.5h-93v-533z" />
    <glyph glyph-name="E" unicode="E" horiz-adv-x="522" 
d="M98 0v689h353v-79h-261v-210h211v-79h-211v-241h274v-80h-366z" />
    <glyph glyph-name="F" unicode="F" horiz-adv-x="494" 
d="M98 0v689h343v-79h-251v-209h204v-79h-204v-322h-92z" />
    <glyph glyph-name="G" unicode="G" horiz-adv-x="620" 
d="M468 0l-12 50q-67 -63 -146 -63q-120 0 -182.5 90.5t-62.5 264.5q0 173 65 266.5t197 93.5q109 0 184 -66l-45 -67q-37 29 -67 41t-70 12q-93 0 -128 -64t-35 -212q0 -149 34 -216.5t117 -67.5q70 0 129 54v172h-129v79h219v-367h-68z" />
    <glyph glyph-name="H" unicode="H" horiz-adv-x="628" 
d="M98 0v689h92v-282h248v282h92v-689h-92v326h-248v-326h-92z" />
    <glyph glyph-name="I" unicode="I" horiz-adv-x="362" 
d="M65 0v51l70 8v571l-70 9v50h232v-50l-70 -9v-571l70 -8v-51h-232z" />
    <glyph glyph-name="J" unicode="J" horiz-adv-x="294" 
d="M40 -146l-29 61q24 14 32 19t23.5 19.5t21 28.5t10.5 38.5t5 57.5v611h93v-604q0 -105 -33.5 -150t-122.5 -81z" />
    <glyph glyph-name="K" unicode="K" horiz-adv-x="551" 
d="M421 0l-226 374l220 315h101l-218 -310l226 -379h-103zM98 0v689h92v-689h-92z" />
    <glyph glyph-name="L" unicode="L" horiz-adv-x="473" 
d="M98 0v689h92v-609h235v-80h-327z" />
    <glyph glyph-name="M" unicode="M" horiz-adv-x="759" 
d="M98 0v689h136l111 -347q26 -79 32 -153h2q10 90 32 153l113 347h137v-689h-92v407q0 62 6 212h-2q-17 -92 -55 -201l-101 -290h-85l-98 278q-10 28 -20 65t-16 63t-12 55t-6 30h-2q5 -115 5 -213v-406h-85z" />
    <glyph glyph-name="N" unicode="N" horiz-adv-x="624" 
d="M98 0v689h93l192 -392q40 -86 67 -170h2q-11 101 -11 196v366h85v-689h-96l-176 360q-45 92 -78 191h-2q9 -88 9 -206v-345h-85z" />
    <glyph glyph-name="O" unicode="O" horiz-adv-x="642" 
d="M322 -13q-257 0 -257 355q0 175 65.5 267.5t189.5 92.5q125 0 190.5 -91t65.5 -264q0 -360 -254 -360zM321 60q84 0 120 67.5t36 213.5q0 148 -36 217t-120 69t-120.5 -67.5t-36.5 -213.5q0 -148 36.5 -217t120.5 -69z" />
    <glyph glyph-name="P" unicode="P" horiz-adv-x="559" 
d="M98 0v689h202q104 0 157 -53t53 -153q0 -213 -199 -213h-121v-270h-92zM190 348h109q59 0 86.5 29.5t27.5 100.5q0 73 -27 102.5t-91 29.5h-105v-262z" />
    <glyph glyph-name="Q" unicode="Q" horiz-adv-x="642" 
d="M576 347q0 -287 -163 -340l192 -49l-29 -86l-334 122q-88 31 -132.5 114t-44.5 234q0 175 65.5 267.5t189.5 92.5q125 0 190.5 -91t65.5 -264zM321 60q84 0 120 67.5t36 213.5q0 148 -36 217t-120 69t-120.5 -67.5t-36.5 -213.5q0 -148 36.5 -217t120.5 -69z" />
    <glyph glyph-name="R" unicode="R" horiz-adv-x="570" 
d="M98 0v689h192q101 0 157 -48.5t56 -143.5q0 -78 -32 -121.5t-99 -61.5q53 -20 87 -116l71 -198h-101l-69 194q-21 60 -44.5 80.5t-60.5 20.5h-65v-295h-92zM190 370h96q67 0 94 30t27 96q0 61 -27 87.5t-94 26.5h-96v-240z" />
    <glyph glyph-name="S" unicode="S" horiz-adv-x="530" 
d="M252 -13q-125 0 -207 70l40 67q43 -32 77 -45t83 -13q126 0 126 113q0 58 -29.5 85.5t-101.5 54.5q-90 35 -128 78.5t-38 126.5q0 87 51 132.5t143 45.5q98 0 166 -48l-38 -72q-59 41 -123 41q-108 0 -108 -96q0 -51 22.5 -74t87.5 -48q47 -18 76 -33t58.5 -40t43 -61.5
t13.5 -86.5q0 -86 -50.5 -141.5t-163.5 -55.5z" />
    <glyph glyph-name="T" unicode="T" horiz-adv-x="499" 
d="M203 0v609h-163v80h418v-80h-163v-609h-92z" />
    <glyph glyph-name="U" unicode="U" horiz-adv-x="634" 
d="M282 -13q-81 0 -134.5 50t-53.5 161v491h92v-475q0 -80 21.5 -113.5t84.5 -33.5q85 0 151 64v558h92v-689h-68l-16 64q-77 -77 -169 -77z" />
    <glyph glyph-name="V" unicode="V" horiz-adv-x="566" 
d="M237 0l-205 689h101l114 -405q23 -85 38 -158h2l14.5 59.5t26.5 99.5l112 404h94l-205 -689h-92z" />
    <glyph glyph-name="W" unicode="W" horiz-adv-x="809" 
d="M184 0l-148 689h99l69 -350q27 -140 38 -246h2q22 153 39 237l74 359h105l74 -361q24 -121 35 -235h2q14 110 42 252l67 344h91l-149 -689h-112l-70 342q-25 125 -35 227h-2q-24 -165 -35 -223l-73 -346h-113z" />
    <glyph glyph-name="X" unicode="X" 
d="M27 0l193 372l-162 317h105l112 -239l118 239h100l-166 -310l196 -379h-105l-145 301l-146 -301h-100z" />
    <glyph glyph-name="Y" unicode="Y" horiz-adv-x="536" 
d="M221 0v278l-194 411h107l96 -223q25 -60 40 -108q2 5 15 44.5t23 62.5l100 224h100l-195 -413v-276h-92z" />
    <glyph glyph-name="Z" unicode="Z" horiz-adv-x="494" 
d="M43 0v70l292 539h-272v80h380v-73l-290 -536h289v-80h-399z" />
    <glyph glyph-name="bracketleft" unicode="[" horiz-adv-x="320" 
d="M88 -155v888h183v-67h-97v-754h97v-67h-183z" />
    <glyph glyph-name="backslash" unicode="\" horiz-adv-x="381" 
d="M267 -149l-233 910h79l233 -910h-79z" />
    <glyph glyph-name="bracketright" unicode="]" horiz-adv-x="320" 
d="M48 -155v67h97v754h-97v67h183v-888h-183z" />
    <glyph glyph-name="asciicircum" unicode="^" horiz-adv-x="498" 
d="M64 440l143 268h83l143 -268h-85l-99 183l-99 -183h-86z" />
    <glyph glyph-name="underscore" unicode="_" horiz-adv-x="341" 
d="M8 -135v75h325v-75h-325z" />
    <glyph glyph-name="grave" unicode="`" horiz-adv-x="545" 
d="M333 564l-206 102l46 84l191 -133z" />
    <glyph glyph-name="a" unicode="a" horiz-adv-x="496" 
d="M204 -13q-73 0 -112 39.5t-39 116.5q0 86 54.5 126.5t176.5 40.5h41v39q0 48 -13.5 69t-58.5 21q-62 0 -146 -46l-33 66q94 55 188 55q75 0 112 -36t37 -115v-363h-67l-14 50q-57 -63 -126 -63zM215 55q57 0 110 60v133h-30q-90 0 -120 -23.5t-30 -81.5q0 -49 16.5 -68.5
t53.5 -19.5z" />
    <glyph glyph-name="b" unicode="b" horiz-adv-x="540" 
d="M307 -13q-40 0 -77.5 17.5t-60.5 43.5l-14 -48h-67v724h86v-275q62 65 134 65q80 0 125.5 -58t45.5 -202q0 -140 -41.5 -203.5t-130.5 -63.5zM285 61q38 0 58.5 13t32 54t11.5 120q0 80 -10 121.5t-29 56t-55 14.5q-57 0 -119 -59v-271q51 -49 111 -49z" />
    <glyph glyph-name="c" unicode="c" horiz-adv-x="442" 
d="M253 -13q-199 0 -199 264q0 263 200 263q84 0 142 -57l-50 -60q-24 24 -44.5 34t-50.5 10q-59 0 -82 -38t-23 -152q0 -112 25 -151.5t87 -39.5q28 0 47 11t45 35l53 -57q-57 -62 -150 -62z" />
    <glyph glyph-name="d" unicode="d" horiz-adv-x="541" 
d="M232 -13q-80 0 -125.5 58t-45.5 202q0 140 41.5 203.5t130.5 63.5q70 0 133 -61v271h86v-724h-67l-14 52q-59 -65 -139 -65zM247 61q62 0 119 54v271q-56 54 -111 54q-38 0 -58.5 -13t-32 -54t-11.5 -120q0 -80 10 -121.5t29 -56t55 -14.5z" />
    <glyph glyph-name="e" unicode="e" horiz-adv-x="492" 
d="M259 -13q-101 0 -153 63.5t-52 200.5q0 263 196 263q93 0 140 -58.5t47 -190.5v-34h-291q1 -101 26 -136t89 -35q37 0 62.5 11.5t55.5 35.5l47 -62q-71 -58 -167 -58zM248 446q-47 0 -71.5 -32.5t-29.5 -117.5h199q0 85 -21.5 117.5t-76.5 32.5z" />
    <glyph glyph-name="f" unicode="f" horiz-adv-x="305" 
d="M35 431v70h55v80q0 149 133 149q63 0 104 -27l-30 -65q-31 16 -62 16t-45 -17t-14 -55v-81h94v-70h-94v-431h-86v431h-55z" />
    <glyph glyph-name="g" unicode="g" horiz-adv-x="504" 
d="M250 -199q-203 0 -203 139q0 65 67 106q-38 23 -38 70q0 60 55 104q-64 42 -64 132q0 78 48 120t131 42q42 0 78 -13h147v-52l-67 -18q19 -38 19 -82q0 -78 -46.5 -118t-129.5 -40q-37 0 -64 7q-29 -31 -29 -61q0 -26 35 -26h86q86 0 133 -37t47 -110q0 -163 -205 -163z
M172 29q-39 -29 -39 -81q0 -42 23 -60.5t93 -18.5q60 0 89 22t29 70q0 38 -22 53t-64 15h-109zM245 256q45 0 67 22.5t22 72.5q0 52 -21 73t-69 21q-45 0 -66.5 -22.5t-21.5 -73.5q0 -50 22 -71.5t67 -21.5z" />
    <glyph glyph-name="h" unicode="h" horiz-adv-x="527" 
d="M88 0v724h86v-279q74 69 147 69q56 0 88.5 -30t32.5 -92v-392h-86v365q0 42 -13.5 57.5t-47.5 15.5q-53 0 -121 -60v-378h-86z" />
    <glyph glyph-name="i" unicode="i" horiz-adv-x="294" 
d="M116 0v434l-74 12v55h160v-501h-86zM157 594q-25 0 -42 17.5t-17 43.5t17.5 44t42.5 18q26 0 43.5 -17.5t17.5 -44.5q0 -26 -17.5 -43.5t-44.5 -17.5z" />
    <glyph glyph-name="j" unicode="j" horiz-adv-x="294" 
d="M77 -206l-36 59q46 30 60.5 61t14.5 98v422l-74 12v55h160v-490q0 -99 -26 -140t-99 -77zM157 594q-25 0 -42 17.5t-17 43.5t17.5 44t42.5 18q26 0 43.5 -17.5t17.5 -44.5q0 -26 -17.5 -43.5t-44.5 -17.5z" />
    <glyph glyph-name="k" unicode="k" horiz-adv-x="485" 
d="M88 0v724h86v-724h-86zM369 0l-184 285l162 216h97l-164 -213l190 -288h-101z" />
    <glyph glyph-name="l" unicode="l" horiz-adv-x="278" 
d="M181 -10q-48 0 -69.5 28t-21.5 94v612h86v-628q0 -35 35 -35q10 0 20 2l12 -62q-27 -11 -62 -11z" />
    <glyph glyph-name="m" unicode="m" horiz-adv-x="767" 
d="M88 0v501h67l13 -62q75 75 145 75q80 0 106 -71q79 71 148 71q53 0 84 -30.5t31 -91.5v-392h-86v365q0 42 -12 57.5t-43 15.5q-48 0 -113 -56v-382h-86v365q0 42 -12 57.5t-43 15.5q-45 0 -113 -60v-378h-86z" />
    <glyph glyph-name="n" unicode="n" horiz-adv-x="527" 
d="M88 0v501h67l13 -62q75 75 153 75q56 0 88.5 -30t32.5 -92v-392h-86v365q0 42 -13.5 57.5t-47.5 15.5q-53 0 -121 -60v-378h-86z" />
    <glyph glyph-name="o" unicode="o" horiz-adv-x="518" 
d="M259 -13q-96 0 -150.5 64t-54.5 200q0 263 203 263q96 0 151 -64t55 -199q0 -136 -54 -200t-150 -64zM259 55q60 0 86 42t26 153q0 112 -26.5 154t-86.5 42t-86 -41.5t-26 -153.5q0 -111 26.5 -153.5t86.5 -42.5z" />
    <glyph glyph-name="p" unicode="p" horiz-adv-x="540" 
d="M88 -201v702h67l14 -57q63 70 139 70q80 0 125.5 -58t45.5 -202q0 -140 -41.5 -203.5t-130.5 -63.5q-75 0 -133 56v-244h-86zM285 61q38 0 58.5 13t32 54t11.5 120q0 80 -10 121.5t-29 56t-55 14.5q-57 0 -119 -59v-271q51 -49 111 -49z" />
    <glyph glyph-name="q" unicode="q" horiz-adv-x="541" 
d="M366 -201v248q-57 -60 -134 -60q-80 0 -125.5 58t-45.5 202q0 140 41.5 203.5t130.5 63.5q39 0 76.5 -19.5t61.5 -46.5l14 53h67v-702h-86zM247 61q62 0 119 54v271q-56 54 -111 54q-38 0 -58.5 -13t-32 -54t-11.5 -120q0 -80 10 -121.5t29 -56t55 -14.5z" />
    <glyph glyph-name="r" unicode="r" horiz-adv-x="358" 
d="M88 0v501h67l14 -71q64 80 141 80q12 0 18 -3l-10 -92q-12 4 -30 4q-58 0 -114 -51v-368h-86z" />
    <glyph glyph-name="s" unicode="s" horiz-adv-x="434" 
d="M203 -13q-48 0 -93 15.5t-73 38.5l36 64q67 -46 134 -46q49 0 69 18.5t20 55.5q0 40 -20.5 55.5t-85.5 33.5q-60 16 -94 51t-34 104q0 59 39.5 98t117.5 39q81 0 139 -33l-30 -68q-56 28 -106 28q-79 0 -79 -62q0 -34 18 -48.5t72 -29.5q34 -9 56.5 -19t45 -28t34 -47
t11.5 -70q0 -77 -44 -113.5t-133 -36.5z" />
    <glyph glyph-name="t" unicode="t" horiz-adv-x="332" 
d="M39 431v70h57v129l86 19v-148h103v-70h-103v-329q0 -46 41 -46q18 0 55 14l17 -64q-40 -19 -79 -19q-120 0 -120 107v337h-57z" />
    <glyph glyph-name="u" unicode="u" horiz-adv-x="530" 
d="M212 -13q-57 0 -92.5 32.5t-35.5 95.5v386h86v-359q0 -43 15.5 -61t49.5 -18q53 0 120 60v378h86v-501h-67l-13 62q-73 -75 -149 -75z" />
    <glyph glyph-name="v" unicode="v" horiz-adv-x="476" 
d="M195 0l-165 501h94l85 -287q2 -6 31 -130h1q18 89 31 132l85 285h89l-168 -501h-83z" />
    <glyph glyph-name="w" unicode="w" horiz-adv-x="697" 
d="M163 0l-130 501h92l61 -257q4 -18 25 -142h2q8 70 24 133l68 266h90l64 -258q12 -51 28 -141h2q13 80 26 138l62 261h87l-132 -501h-86l-69 267q-5 18 -30 145h-1q-16 -96 -29 -145l-68 -267h-86z" />
    <glyph glyph-name="x" unicode="x" horiz-adv-x="466" 
d="M26 0l160 276l-138 225h101l41 -76q31 -58 46 -91h2q21 50 42 91l38 76h97l-135 -225l159 -276h-101l-59 113l-47 95h-2q-15 -34 -46 -93l-61 -115h-97z" />
    <glyph glyph-name="y" unicode="y" horiz-adv-x="478" 
d="M88 -207l-19 70q62 16 90 42.5t48 94.5h-21l-156 501h94l84 -295q14 -52 30 -137h1q19 98 31 137l89 295h89l-166 -517q-18 -56 -35.5 -89.5t-42 -54t-49 -29.5t-67.5 -18z" />
    <glyph glyph-name="z" unicode="z" horiz-adv-x="430" 
d="M49 0v79l236 352h-214v70h303v-78l-234 -353h242v-70h-333z" />
    <glyph glyph-name="braceleft" unicode="{" horiz-adv-x="375" 
d="M252 -155q-119 0 -119 126v207q0 45 -19 59.5t-68 14.5v78q49 0 68 14.5t19 59.5v203q0 126 119 126h74v-67h-61q-28 0 -37 -14.5t-9 -52.5v-205q0 -54 -18.5 -75.5t-54.5 -26.5v-2q36 -5 54.5 -26.5t18.5 -75.5v-209q0 -38 9 -52.5t37 -14.5h61v-67h-74z" />
    <glyph glyph-name="bar" unicode="|" horiz-adv-x="260" 
d="M99 -149v910h62v-910h-62z" />
    <glyph glyph-name="braceright" unicode="}" horiz-adv-x="375" 
d="M48 -155v67h61q28 0 37 14.5t9 52.5v209q0 54 18.5 75.5t54.5 26.5v2q-36 5 -54.5 26.5t-18.5 75.5v205q0 38 -9 52.5t-37 14.5h-61v67h74q119 0 119 -126v-203q0 -45 19 -59.5t68 -14.5v-78q-49 0 -68 -14.5t-19 -59.5v-207q0 -126 -119 -126h-74z" />
    <glyph glyph-name="asciitilde" unicode="~" horiz-adv-x="519" 
d="M126 255l-56 33q48 103 122 103q33 0 75.5 -22t63.5 -22q13 0 25.5 9.5t17 16l18.5 27.5l56 -33q-47 -103 -122 -103q-32 0 -75 22t-64 22q-13 0 -25.5 -9.5t-17 -16z" />
    <glyph glyph-name="uni00A0" unicode="&#xa0;" horiz-adv-x="242" 
 />
    <glyph glyph-name="exclamdown" unicode="&#xa1;" horiz-adv-x="282" 
d="M88 -187l21 479h66l21 -479h-108zM140 377q-28 0 -47 19t-19 48t19 48t47 19t47 -19.5t19 -47.5t-19 -47.5t-47 -19.5z" />
    <glyph glyph-name="cent" unicode="&#xa2;" horiz-adv-x="455" 
d="M226 -131v121q-172 22 -172 261q0 238 172 261v124h61v-123q70 -4 126 -56l-48 -57q-33 36 -80 42v-384q44 6 84 45l51 -54q-51 -55 -133 -61v-119h-61zM146 251q0 -96 18.5 -138.5t63.5 -52.5v382q-45 -8 -63.5 -49.5t-18.5 -141.5z" />
    <glyph glyph-name="sterling" unicode="&#xa3;" horiz-adv-x="521" 
d="M62 283v77h59q-20 60 -20 111q0 85 53.5 131.5t137.5 46.5q92 0 185 -61l-34 -63q-38 24 -69.5 36t-74.5 12q-107 0 -107 -97q0 -43 21 -116h194v-77h-173q9 -41 9 -71q0 -89 -67 -135h296v-77h-407v82q52 24 74 54t22 74q0 28 -13 73h-86z" />
    <glyph glyph-name="currency" unicode="&#xa4;" horiz-adv-x="551" 
d="M89 68l-56 54l74 77q-26 52 -26 122q0 69 25 119l-76 79l54 51l68 -69q51 43 122 43q72 0 122 -42l66 68l56 -53l-73 -77q25 -50 25 -119t-25 -121l76 -80l-54 -51l-69 70q-51 -42 -122 -42q-70 0 -120 41zM276 169q53 0 77.5 33t24.5 118t-25 118.5t-78 33.5t-77.5 -33
t-24.5 -118t25 -118.5t78 -33.5z" />
    <glyph glyph-name="yen" unicode="&#xa5;" horiz-adv-x="602" 
d="M74 159v66h180v24l-30 60h-150v66h117l-131 261h104l96 -205q20 -44 42 -113q26 84 40 112l100 206h99l-132 -261h118v-66h-151l-30 -60v-24h181v-66h-181v-159h-92v159h-180z" />
    <glyph glyph-name="brokenbar" unicode="&#xa6;" horiz-adv-x="260" 
d="M99 377v384h62v-384h-62zM99 -149v384h62v-384h-62z" />
    <glyph glyph-name="section" unicode="&#xa7;" horiz-adv-x="554" 
d="M262 -167q-109 0 -172 55l36 62q32 -25 60.5 -36t77.5 -11q95 0 95 84q0 17 -7.5 30.5t-16.5 22t-31 17.5t-36 13.5l-46 14.5q-85 26 -124.5 64t-39.5 112q0 98 102 132q-46 38 -46 110q0 65 41 105.5t130 40.5q83 0 154 -41l-32 -65q-64 35 -119 35q-50 0 -70.5 -18
t-20.5 -54q0 -19 5 -31t24.5 -22t33 -14.5t55.5 -17.5q47 -14 72 -24t54 -29t41.5 -48.5t12.5 -71.5q0 -105 -101 -140q51 -40 51 -117t-47 -117.5t-136 -40.5zM273 341q-23 6 -41 13q-92 -14 -92 -93q0 -36 26.5 -55t96.5 -40q7 -2 19.5 -6l22.5 -7.5l18 -6.5q86 16 86 98
q0 39 -24.5 55.5t-93.5 36.5q-12 3 -18 5z" />
    <glyph glyph-name="dieresis" unicode="&#xa8;" horiz-adv-x="545" 
d="M371 567q-23 0 -41 17.5t-18 42.5t18 42.5t41 17.5t41 -17.5t18 -42.5t-18 -42.5t-41 -17.5zM172 567q-24 0 -41.5 17.5t-17.5 42.5t17.5 42.5t41.5 17.5t41.5 -17.5t17.5 -42.5t-17.5 -42.5t-41.5 -17.5z" />
    <glyph glyph-name="copyright" unicode="&#xa9;" horiz-adv-x="765" 
d="M382 -17q-144 0 -232 101.5t-88 270.5t88 270.5t232 101.5t232 -101.5t88 -270.5t-88 -270.5t-232 -101.5zM382 31q121 0 192 88t71 236t-71 235.5t-192 87.5q-122 0 -192 -87.5t-70 -235.5t70.5 -236t191.5 -88zM386 123q-172 0 -172 228q0 123 45 174.5t128 51.5
q82 0 131 -70l-50 -45q-21 27 -39 38t-46 11q-47 0 -65.5 -31t-18.5 -130q0 -97 20.5 -129.5t69.5 -32.5q42 0 81 49l52 -42q-53 -72 -136 -72z" />
    <glyph glyph-name="ordfeminine" unicode="&#xaa;" horiz-adv-x="456" 
d="M195 174q-66 0 -101 36t-35 105q0 78 49.5 114t158.5 36h36v33q0 42 -12 60.5t-52 18.5q-55 0 -131 -42l-30 64q82 50 170 50q68 0 102 -33t34 -105v-326h-63l-13 45q-48 -56 -113 -56zM207 238q46 0 96 50v119h-25q-80 0 -106.5 -20.5t-26.5 -71.5q0 -42 14.5 -59.5
t47.5 -17.5z" />
    <glyph glyph-name="guillemotleft" unicode="&#xab;" horiz-adv-x="513" 
d="M389 27l-139 221l139 222l65 -44l-110 -178l109 -179zM195 27l-139 221l139 222l65 -44l-110 -178l109 -179z" />
    <glyph glyph-name="logicalnot" unicode="&#xac;" horiz-adv-x="490" 
d="M326 148v140h-252v75h333v-215h-81z" />
    <glyph glyph-name="uni00AD" unicode="&#xad;" horiz-adv-x="301" 
d="M53 225v91h193v-91h-193z" />
    <glyph glyph-name="registered" unicode="&#xae;" horiz-adv-x="549" 
d="M274 195q-101 0 -162.5 71t-61.5 189t61.5 189.5t162.5 71.5t162.5 -71.5t61.5 -189.5t-61.5 -189t-162.5 -71zM274 242q81 0 125.5 56.5t44.5 156.5q0 101 -44.5 157.5t-125.5 56.5t-125.5 -56.5t-44.5 -157.5q0 -100 44.5 -156.5t125.5 -56.5zM185 314v288h88
q98 0 98 -82q0 -61 -50 -75q25 -8 37 -51l24 -80h-63l-23 82q-6 21 -13.5 28.5t-20.5 7.5h-19v-118h-58zM243 477h32q20 0 28 9.5t8 30.5q0 36 -36 36h-32v-76z" />
    <glyph glyph-name="macron" unicode="&#xaf;" horiz-adv-x="545" 
d="M143 615v74h257v-74h-257z" />
    <glyph glyph-name="degree" unicode="&#xb0;" horiz-adv-x="403" 
d="M201 357q-73 0 -114.5 45.5t-41.5 124.5q0 77 42.5 123t111.5 46q75 0 116.5 -45.5t41.5 -125.5q0 -77 -43 -122.5t-113 -45.5zM202 414q81 0 81 107q0 64 -20 91t-63 27q-82 0 -82 -108q0 -64 20.5 -90.5t63.5 -26.5z" />
    <glyph glyph-name="plusminus" unicode="&#xb1;" horiz-adv-x="551" 
d="M235 148v137h-161v75h161v147h81v-147h160v-75h-160v-137h-81zM74 30v75h402v-75h-402z" />
    <glyph glyph-name="twosuperior" unicode="&#xb2;" horiz-adv-x="361" 
d="M52 219v60q111 89 148 137.5t37 96.5q0 72 -71 72q-43 0 -94 -27l-23 52q61 35 124 35t100.5 -33.5t37.5 -94.5q0 -58 -39 -112t-138 -129h183v-57h-265z" />
    <glyph glyph-name="threesuperior" unicode="&#xb3;" horiz-adv-x="366" 
d="M155 175q-70 0 -128 27l16 52q55 -21 103 -21q95 0 95 83q0 81 -90 81h-40v53h36q81 0 81 70q0 67 -75 67q-44 0 -92 -25l-20 50q56 33 124 33q62 0 98 -32t36 -84q0 -77 -71 -103q87 -22 87 -115q0 -63 -41.5 -99.5t-118.5 -36.5z" />
    <glyph glyph-name="acute" unicode="&#xb4;" horiz-adv-x="545" 
d="M211 564l-31 53l191 133l46 -84z" />
    <glyph glyph-name="mu" unicode="&#xb5;" horiz-adv-x="530" 
d="M225 -13q-37 0 -55 18v-206h-86v702h86v-359q0 -43 15.5 -61t49.5 -18q53 0 120 60v378h86v-501h-67l-13 62q-75 -75 -136 -75z" />
    <glyph glyph-name="paragraph" unicode="&#xb6;" horiz-adv-x="575" 
d="M246 -87v434h-10q-85 0 -132.5 45.5t-47.5 125.5q0 83 47 127t133 44h251v-776h-78v704h-85v-704h-78z" />
    <glyph glyph-name="periodcentered" unicode="&#xb7;" horiz-adv-x="279" 
d="M139 265q-29 0 -48.5 20t-19.5 49t19.5 49t48.5 20t48.5 -20t19.5 -49t-19.5 -49t-48.5 -20z" />
    <glyph glyph-name="cedilla" unicode="&#xb8;" horiz-adv-x="545" 
d="M272 -214q-45 0 -79 24l22 46q32 -15 56 -15q37 0 37 32q0 33 -36 33q-18 0 -43 -5l33 99l4 16h56l-5 -16l-19 -51q73 -6 73 -81q0 -36 -23.5 -59t-75.5 -23z" />
    <glyph glyph-name="onesuperior" unicode="&#xb9;" horiz-adv-x="327" 
d="M58 219v52h82v287l-76 -39l-20 38l114 87h55v-373h76v-52h-231z" />
    <glyph glyph-name="ordmasculine" unicode="&#xba;" horiz-adv-x="491" 
d="M245 174q-185 0 -185 238q0 237 183 237q88 0 137.5 -57.5t49.5 -180.5q0 -122 -49 -179.5t-136 -57.5zM245 239q52 0 75 37t23 135q0 99 -23 135.5t-76 36.5t-75.5 -36t-22.5 -136q0 -98 23.5 -135t75.5 -37z" />
    <glyph glyph-name="guillemotright" unicode="&#xbb;" horiz-adv-x="513" 
d="M317 27l-65 44l110 178l-109 179l64 42l139 -221zM123 27l-65 44l110 178l-109 179l64 42l139 -221z" />
    <glyph glyph-name="onequarter" unicode="&#xbc;" horiz-adv-x="967" 
d="M802 59h-221v63l129 296h73l-131 -300h150v173l71 12v-185h48v-59h-48v-95h-71v95zM254 0l372 637h75l-372 -637h-75zM60 219v52h83v287l-76 -39l-20 38l114 87h55v-373h76v-52h-232z" />
    <glyph glyph-name="onehalf" unicode="&#xbd;" horiz-adv-x="962" 
d="M639 0v60q112 89 149 137.5t37 96.5q0 72 -71 72q-43 0 -94 -27l-23 52q61 35 124 35t100.5 -33.5t37.5 -94.5q0 -58 -39 -112t-138 -129h183v-57h-266zM253 0l372 637h76l-373 -637h-75zM60 219v52h83v287l-76 -39l-20 38l114 87h55v-373h76v-52h-232z" />
    <glyph glyph-name="threequarters" unicode="&#xbe;" horiz-adv-x="990" 
d="M824 59h-221v63l130 296h73l-132 -300h150v173l71 12v-185h48v-59h-48v-95h-71v95zM168 176q-70 0 -128 27l16 52q55 -21 103 -21q95 0 95 83q0 81 -90 81h-40v53h37q80 0 80 70q0 67 -75 67q-40 0 -92 -25l-20 50q54 32 124 32q62 0 98 -31.5t36 -83.5q0 -77 -70 -103
q86 -21 86 -115q0 -63 -41 -99.5t-119 -36.5zM285 0l373 637h75l-373 -637h-75z" />
    <glyph glyph-name="questiondown" unicode="&#xbf;" horiz-adv-x="440" 
d="M226 -198q-76 0 -120 37t-44 113q0 19 2.5 35.5t5.5 28.5t11.5 24.5t12.5 19t17 18t17.5 15l21 16t21.5 15.5q40 30 40 86v82h75v-90q0 -49 -17 -80.5t-53 -57.5q-27 -20 -37 -28.5t-19.5 -29.5t-9.5 -52q0 -40 18.5 -57.5t64.5 -17.5q57 0 122 44l36 -65
q-77 -56 -165 -56zM247 377q-28 0 -47 19t-19 48t19 48t47 19t47 -19.5t19 -47.5t-19 -47.5t-47 -19.5z" />
    <glyph glyph-name="Agrave" unicode="&#xc0;" horiz-adv-x="579" 
d="M28 0l213 690h102l207 -690h-101l-56 200h-213l-58 -200h-94zM238 397l-35 -119h168l-33 119q-32 114 -48 199h-2q-14 -77 -50 -199zM350 738l-206 102l46 84l191 -133z" />
    <glyph glyph-name="Aacute" unicode="&#xc1;" horiz-adv-x="579" 
d="M28 0l213 690h102l207 -690h-101l-56 200h-213l-58 -200h-94zM238 397l-35 -119h168l-33 119q-32 114 -48 199h-2q-14 -77 -50 -199zM228 738l-31 53l191 133l46 -84z" />
    <glyph glyph-name="Acircumflex" unicode="&#xc2;" horiz-adv-x="579" 
d="M28 0l213 690h102l207 -690h-101l-56 200h-213l-58 -200h-94zM238 397l-35 -119h168l-33 119q-32 114 -48 199h-2q-14 -77 -50 -199zM169 744l-33 45l124 127h58l123 -127l-33 -45l-119 84z" />
    <glyph glyph-name="Atilde" unicode="&#xc3;" horiz-adv-x="579" 
d="M28 0l213 690h102l207 -690h-101l-56 200h-213l-58 -200h-94zM238 397l-35 -119h168l-33 119q-32 114 -48 199h-2q-14 -77 -50 -199zM176 753l-45 33q40 86 103 86q28 0 63.5 -19t54.5 -19q11 0 20.5 6t15 12.5t16.5 21.5l45 -33q-40 -86 -103 -86q-28 0 -63.5 19
t-54.5 19q-11 0 -20.5 -6t-15 -12.5t-16.5 -21.5z" />
    <glyph glyph-name="Adieresis" unicode="&#xc4;" horiz-adv-x="579" 
d="M28 0l213 690h102l207 -690h-101l-56 200h-213l-58 -200h-94zM238 397l-35 -119h168l-33 119q-32 114 -48 199h-2q-14 -77 -50 -199zM189 741q-23 0 -41 17.5t-18 42.5t18 42.5t41 17.5t41 -17.5t18 -42.5t-18 -42.5t-41 -17.5zM388 741q-24 0 -41.5 17.5t-17.5 42.5
t17.5 42.5t41.5 17.5t41.5 -17.5t17.5 -42.5t-17.5 -42.5t-41.5 -17.5z" />
    <glyph glyph-name="Aring" unicode="&#xc5;" horiz-adv-x="579" 
d="M28 0l213 690h102l207 -690h-101l-56 200h-213l-58 -200h-94zM238 397l-35 -119h168l-33 119q-32 114 -48 199h-2q-14 -77 -50 -199zM291 725q-45 0 -72.5 30.5t-27.5 74.5t27.5 74.5t72.5 30.5t72.5 -30.5t27.5 -74.5t-27.5 -74.5t-72.5 -30.5zM291 774q43 0 43 56
t-43 56t-43 -56t43 -56z" />
    <glyph glyph-name="AE" unicode="&#xc6;" horiz-adv-x="854" 
d="M24 0l366 689h393v-79h-261v-210h211v-79h-211v-241h274v-80h-366v183h-215l-94 -183h-97zM359 464l-104 -203h175v190l3 167h-2q-24 -62 -72 -154z" />
    <glyph glyph-name="Ccedilla" unicode="&#xc7;" horiz-adv-x="553" 
d="M276 -214q-45 0 -79 24l22 46q32 -15 56 -15q37 0 37 32q0 33 -36 33q-18 0 -43 -5l31 93q-199 39 -199 348q0 360 267 360q102 0 165 -54l-44 -67q-56 43 -121 43q-96 0 -131 -64t-35 -214q0 -152 35.5 -216.5t133.5 -64.5q65 0 129 51l44 -68q-80 -61 -176 -61h-16
l-14 -38q73 -6 73 -81q0 -36 -23.5 -59t-75.5 -23z" />
    <glyph glyph-name="Egrave" unicode="&#xc8;" horiz-adv-x="522" 
d="M98 0v689h353v-79h-261v-210h211v-79h-211v-241h274v-80h-366zM351 738l-206 102l46 84l191 -133z" />
    <glyph glyph-name="Eacute" unicode="&#xc9;" horiz-adv-x="522" 
d="M98 0v689h353v-79h-261v-210h211v-79h-211v-241h274v-80h-366zM199 738l-31 53l191 133l46 -84z" />
    <glyph glyph-name="Ecircumflex" unicode="&#xca;" horiz-adv-x="522" 
d="M98 0v689h353v-79h-261v-210h211v-79h-211v-241h274v-80h-366zM153 744l-33 45l124 127h58l123 -127l-33 -45l-119 84z" />
    <glyph glyph-name="Edieresis" unicode="&#xcb;" horiz-adv-x="522" 
d="M98 0v689h353v-79h-261v-210h211v-79h-211v-241h274v-80h-366zM172 741q-24 0 -41.5 17.5t-17.5 42.5t17.5 42.5t41.5 17.5t41.5 -17.5t17.5 -42.5t-17.5 -42.5t-41.5 -17.5zM371 741q-23 0 -41 17.5t-18 42.5t18 42.5t41 17.5t41 -17.5t18 -42.5t-18 -42.5t-41 -17.5z
" />
    <glyph glyph-name="Igrave" unicode="&#xcc;" horiz-adv-x="362" 
d="M65 0v51l70 8v571l-70 9v50h232v-50l-70 -9v-571l70 -8v-51h-232zM257 738l-206 102l46 84l191 -133z" />
    <glyph glyph-name="Iacute" unicode="&#xcd;" horiz-adv-x="362" 
d="M65 0v51l70 8v571l-70 9v50h232v-50l-70 -9v-571l70 -8v-51h-232zM108 738l-31 53l191 133l46 -84z" />
    <glyph glyph-name="Icircumflex" unicode="&#xce;" horiz-adv-x="362" 
d="M65 0v51l70 8v571l-70 9v50h232v-50l-70 -9v-571l70 -8v-51h-232zM61 744l-33 45l124 127h58l123 -127l-33 -45l-119 84z" />
    <glyph glyph-name="Idieresis" unicode="&#xcf;" horiz-adv-x="362" 
d="M65 0v51l70 8v571l-70 9v50h232v-50l-70 -9v-571l70 -8v-51h-232zM81 741q-23 0 -41 17.5t-18 42.5t18 42.5t41 17.5t41 -17.5t18 -42.5t-18 -42.5t-41 -17.5zM280 741q-24 0 -41.5 17.5t-17.5 42.5t17.5 42.5t41.5 17.5t41.5 -17.5t17.5 -42.5t-17.5 -42.5t-41.5 -17.5z
" />
    <glyph glyph-name="Eth" unicode="&#xd0;" horiz-adv-x="602" 
d="M25 301v79h62v309h176q144 0 209 -78t65 -271q0 -131 -30 -206.5t-86.5 -104.5t-152.5 -29h-181v301h-62zM179 79h91q98 0 133 57t35 208q0 153 -33.5 210.5t-132.5 57.5h-93v-232h138v-79h-138v-222z" />
    <glyph glyph-name="Ntilde" unicode="&#xd1;" horiz-adv-x="624" 
d="M98 0v689h93l192 -392q40 -86 67 -170h2q-11 101 -11 196v366h85v-689h-96l-176 360q-45 92 -78 191h-2q9 -88 9 -206v-345h-85zM204 753l-45 33q40 86 103 86q28 0 63.5 -19t54.5 -19q11 0 20.5 6t15 12.5t16.5 21.5l45 -33q-40 -86 -103 -86q-28 0 -63.5 19t-54.5 19
q-11 0 -20.5 -6t-15 -12.5t-16.5 -21.5z" />
    <glyph glyph-name="Ograve" unicode="&#xd2;" horiz-adv-x="642" 
d="M322 -13q-257 0 -257 355q0 175 65.5 267.5t189.5 92.5q125 0 190.5 -91t65.5 -264q0 -360 -254 -360zM321 60q84 0 120 67.5t36 213.5q0 148 -36 217t-120 69t-120.5 -67.5t-36.5 -213.5q0 -148 36.5 -217t120.5 -69zM381 738l-206 102l46 84l191 -133z" />
    <glyph glyph-name="Oacute" unicode="&#xd3;" horiz-adv-x="642" 
d="M322 -13q-257 0 -257 355q0 175 65.5 267.5t189.5 92.5q125 0 190.5 -91t65.5 -264q0 -360 -254 -360zM321 60q84 0 120 67.5t36 213.5q0 148 -36 217t-120 69t-120.5 -67.5t-36.5 -213.5q0 -148 36.5 -217t120.5 -69zM259 738l-31 53l191 133l46 -84z" />
    <glyph glyph-name="Ocircumflex" unicode="&#xd4;" horiz-adv-x="642" 
d="M322 -13q-257 0 -257 355q0 175 65.5 267.5t189.5 92.5q125 0 190.5 -91t65.5 -264q0 -360 -254 -360zM321 60q84 0 120 67.5t36 213.5q0 148 -36 217t-120 69t-120.5 -67.5t-36.5 -213.5q0 -148 36.5 -217t120.5 -69zM200 744l-33 45l124 127h58l123 -127l-33 -45
l-119 84z" />
    <glyph glyph-name="Otilde" unicode="&#xd5;" horiz-adv-x="642" 
d="M322 -13q-257 0 -257 355q0 175 65.5 267.5t189.5 92.5q125 0 190.5 -91t65.5 -264q0 -360 -254 -360zM321 60q84 0 120 67.5t36 213.5q0 148 -36 217t-120 69t-120.5 -67.5t-36.5 -213.5q0 -148 36.5 -217t120.5 -69zM208 753l-45 33q40 86 103 86q28 0 63.5 -19
t54.5 -19q11 0 20.5 6t15 12.5t16.5 21.5l45 -33q-40 -86 -103 -86q-28 0 -63.5 19t-54.5 19q-11 0 -20.5 -6t-15 -12.5t-16.5 -21.5z" />
    <glyph glyph-name="Odieresis" unicode="&#xd6;" horiz-adv-x="642" 
d="M322 -13q-257 0 -257 355q0 175 65.5 267.5t189.5 92.5q125 0 190.5 -91t65.5 -264q0 -360 -254 -360zM321 60q84 0 120 67.5t36 213.5q0 148 -36 217t-120 69t-120.5 -67.5t-36.5 -213.5q0 -148 36.5 -217t120.5 -69zM220 741q-24 0 -41.5 17.5t-17.5 42.5t17.5 42.5
t41.5 17.5t41.5 -17.5t17.5 -42.5t-17.5 -42.5t-41.5 -17.5zM419 741q-23 0 -41 17.5t-18 42.5t18 42.5t41 17.5t41 -17.5t18 -42.5t-18 -42.5t-41 -17.5z" />
    <glyph glyph-name="multiply" unicode="&#xd7;" horiz-adv-x="530" 
d="M136 99l-52 55l130 137l-132 138l50 52l133 -137l128 137l52 -54l-129 -136l131 -139l-50 -52l-132 138z" />
    <glyph glyph-name="Oslash" unicode="&#xd8;" horiz-adv-x="642" 
d="M129 -86l-62 38l66 118q-68 87 -68 272q0 175 65.5 267.5t189.5 92.5q82 0 140 -41l58 103l62 -38l-67 -120q63 -92 63 -259q0 -360 -254 -360q-80 0 -134 33zM164 346q0 -118 21 -181l235 423q-36 39 -99 39q-84 0 -120.5 -67.5t-36.5 -213.5zM321 60q84 0 120 67.5
t36 213.5q0 103 -18 168l-231 -417q33 -32 93 -32z" />
    <glyph glyph-name="Ugrave" unicode="&#xd9;" horiz-adv-x="634" 
d="M282 -13q-81 0 -134.5 50t-53.5 161v491h92v-475q0 -80 21.5 -113.5t84.5 -33.5q85 0 151 64v558h92v-689h-68l-16 64q-77 -77 -169 -77zM377 738l-206 102l46 84l191 -133z" />
    <glyph glyph-name="Uacute" unicode="&#xda;" horiz-adv-x="634" 
d="M282 -13q-81 0 -134.5 50t-53.5 161v491h92v-475q0 -80 21.5 -113.5t84.5 -33.5q85 0 151 64v558h92v-689h-68l-16 64q-77 -77 -169 -77zM255 738l-31 53l191 133l46 -84z" />
    <glyph glyph-name="Ucircumflex" unicode="&#xdb;" horiz-adv-x="634" 
d="M282 -13q-81 0 -134.5 50t-53.5 161v491h92v-475q0 -80 21.5 -113.5t84.5 -33.5q85 0 151 64v558h92v-689h-68l-16 64q-77 -77 -169 -77zM196 744l-33 45l124 127h58l123 -127l-33 -45l-119 84z" />
    <glyph glyph-name="Udieresis" unicode="&#xdc;" horiz-adv-x="634" 
d="M282 -13q-81 0 -134.5 50t-53.5 161v491h92v-475q0 -80 21.5 -113.5t84.5 -33.5q85 0 151 64v558h92v-689h-68l-16 64q-77 -77 -169 -77zM216 741q-24 0 -41.5 17.5t-17.5 42.5t17.5 42.5t41.5 17.5t41.5 -17.5t17.5 -42.5t-17.5 -42.5t-41.5 -17.5zM415 741
q-23 0 -41 17.5t-18 42.5t18 42.5t41 17.5t41 -17.5t18 -42.5t-18 -42.5t-41 -17.5z" />
    <glyph glyph-name="Yacute" unicode="&#xdd;" horiz-adv-x="536" 
d="M221 0v278l-194 411h107l96 -223q25 -60 40 -108q2 5 15 44.5t23 62.5l100 224h100l-195 -413v-276h-92zM236 738l-31 53l191 133l46 -84z" />
    <glyph glyph-name="Thorn" unicode="&#xde;" horiz-adv-x="562" 
d="M97 0v689h92v-110h110q104 0 157 -53t53 -153q0 -213 -199 -213h-121v-160h-92zM189 238h109q59 0 86.5 29.5t27.5 100.5q0 73 -27 102.5t-91 29.5h-105v-262z" />
    <glyph glyph-name="germandbls" unicode="&#xdf;" 
d="M322 -8q-50 0 -93 15l15 63q32 -10 67 -10q47 0 73.5 26.5t26.5 78.5q0 33 -15 60.5t-28 38.5t-43 33q-24 18 -37 29.5t-23.5 31t-10.5 42.5q0 28 15.5 50.5t34.5 35.5t34.5 35.5t15.5 50.5q0 40 -21 57.5t-66 17.5q-51 0 -71.5 -34.5t-20.5 -105.5v-507h-86v517
q0 95 47 146t131 51q82 0 127 -37.5t45 -106.5q0 -38 -16 -67.5t-35.5 -43t-35.5 -27.5t-16 -26t9.5 -21.5t41.5 -32.5q9 -6 14 -10q28 -21 47 -39.5t37 -56t18 -81.5q0 -84 -51 -128.5t-130 -44.5z" />
    <glyph glyph-name="agrave" unicode="&#xe0;" horiz-adv-x="496" 
d="M204 -13q-73 0 -112 39.5t-39 116.5q0 86 54.5 126.5t176.5 40.5h41v39q0 48 -13.5 69t-58.5 21q-62 0 -146 -46l-33 66q94 55 188 55q75 0 112 -36t37 -115v-363h-67l-14 50q-57 -63 -126 -63zM215 55q57 0 110 60v133h-30q-90 0 -120 -23.5t-30 -81.5q0 -49 16.5 -68.5
t53.5 -19.5zM318 564l-206 102l46 84l191 -133z" />
    <glyph glyph-name="aacute" unicode="&#xe1;" horiz-adv-x="496" 
d="M204 -13q-73 0 -112 39.5t-39 116.5q0 86 54.5 126.5t176.5 40.5h41v39q0 48 -13.5 69t-58.5 21q-62 0 -146 -46l-33 66q94 55 188 55q75 0 112 -36t37 -115v-363h-67l-14 50q-57 -63 -126 -63zM215 55q57 0 110 60v133h-30q-90 0 -120 -23.5t-30 -81.5q0 -49 16.5 -68.5
t53.5 -19.5zM166 564l-31 53l191 133l46 -84z" />
    <glyph glyph-name="acircumflex" unicode="&#xe2;" horiz-adv-x="496" 
d="M204 -13q-73 0 -112 39.5t-39 116.5q0 86 54.5 126.5t176.5 40.5h41v39q0 48 -13.5 69t-58.5 21q-62 0 -146 -46l-33 66q94 55 188 55q75 0 112 -36t37 -115v-363h-67l-14 50q-57 -63 -126 -63zM215 55q57 0 110 60v133h-30q-90 0 -120 -23.5t-30 -81.5q0 -49 16.5 -68.5
t53.5 -19.5zM130 570l-33 45l124 127h58l123 -127l-33 -45l-119 84z" />
    <glyph glyph-name="atilde" unicode="&#xe3;" horiz-adv-x="496" 
d="M204 -13q-73 0 -112 39.5t-39 116.5q0 86 54.5 126.5t176.5 40.5h41v39q0 48 -13.5 69t-58.5 21q-62 0 -146 -46l-33 66q94 55 188 55q75 0 112 -36t37 -115v-363h-67l-14 50q-57 -63 -126 -63zM215 55q57 0 110 60v133h-30q-90 0 -120 -23.5t-30 -81.5q0 -49 16.5 -68.5
t53.5 -19.5zM130 579l-45 33q40 86 103 86q28 0 63.5 -19t54.5 -19q11 0 20.5 6t15 12.5t16.5 21.5l45 -33q-40 -86 -103 -86q-28 0 -63.5 19t-54.5 19q-11 0 -20.5 -6t-15 -12.5t-16.5 -21.5z" />
    <glyph glyph-name="adieresis" unicode="&#xe4;" horiz-adv-x="496" 
d="M204 -13q-73 0 -112 39.5t-39 116.5q0 86 54.5 126.5t176.5 40.5h41v39q0 48 -13.5 69t-58.5 21q-62 0 -146 -46l-33 66q94 55 188 55q75 0 112 -36t37 -115v-363h-67l-14 50q-57 -63 -126 -63zM215 55q57 0 110 60v133h-30q-90 0 -120 -23.5t-30 -81.5q0 -49 16.5 -68.5
t53.5 -19.5zM149 567q-23 0 -41 17.5t-18 42.5t18 42.5t41 17.5t41 -17.5t18 -42.5t-18 -42.5t-41 -17.5zM348 567q-24 0 -41.5 17.5t-17.5 42.5t17.5 42.5t41.5 17.5t41.5 -17.5t17.5 -42.5t-17.5 -42.5t-41.5 -17.5z" />
    <glyph glyph-name="aring" unicode="&#xe5;" horiz-adv-x="496" 
d="M204 -13q-73 0 -112 39.5t-39 116.5q0 86 54.5 126.5t176.5 40.5h41v39q0 48 -13.5 69t-58.5 21q-62 0 -146 -46l-33 66q94 55 188 55q75 0 112 -36t37 -115v-363h-67l-14 50q-57 -63 -126 -63zM215 55q57 0 110 60v133h-30q-90 0 -120 -23.5t-30 -81.5q0 -49 16.5 -68.5
t53.5 -19.5zM253 563q-45 0 -72.5 30.5t-27.5 74.5t27.5 74.5t72.5 30.5t72.5 -30.5t27.5 -74.5t-27.5 -74.5t-72.5 -30.5zM253 612q43 0 43 56t-43 56t-43 -56t43 -56z" />
    <glyph glyph-name="ae" unicode="&#xe6;" horiz-adv-x="757" 
d="M204 -13q-72 0 -111.5 40t-39.5 113q0 84 55 123.5t176 39.5h41v46q0 48 -13.5 69t-58.5 21q-62 0 -146 -46l-33 66q94 55 188 55q89 0 118 -63q47 63 135 63q93 0 140 -58.5t47 -190.5v-27h-291q1 -106 25.5 -143.5t89.5 -37.5q64 0 121 45l44 -57q-71 -58 -167 -58
q-113 0 -161 87q-67 -87 -159 -87zM215 55q55 0 110 60v123h-30q-91 0 -120.5 -21.5t-29.5 -76.5q0 -47 16.5 -66t53.5 -19zM513 446q-46 0 -70.5 -31t-30.5 -112h199q0 80 -22 111.5t-76 31.5z" />
    <glyph glyph-name="ccedilla" unicode="&#xe7;" horiz-adv-x="442" 
d="M218 -214q-45 0 -79 24l22 46q32 -15 56 -15q37 0 37 32q0 33 -36 33q-18 0 -43 -5l30 91q-151 29 -151 259q0 263 200 263q84 0 142 -57l-50 -60q-24 24 -44.5 34t-50.5 10q-59 0 -82 -38t-23 -152q0 -112 25 -151.5t87 -39.5q28 0 47 11t45 35l53 -57q-56 -61 -145 -62
l-14 -38q73 -6 73 -81q0 -36 -23.5 -59t-75.5 -23z" />
    <glyph glyph-name="egrave" unicode="&#xe8;" horiz-adv-x="492" 
d="M259 -13q-101 0 -153 63.5t-52 200.5q0 263 196 263q93 0 140 -58.5t47 -190.5v-34h-291q1 -101 26 -136t89 -35q37 0 62.5 11.5t55.5 35.5l47 -62q-71 -58 -167 -58zM248 446q-47 0 -71.5 -32.5t-29.5 -117.5h199q0 85 -21.5 117.5t-76.5 32.5zM333 564l-206 102l46 84
l191 -133z" />
    <glyph glyph-name="eacute" unicode="&#xe9;" horiz-adv-x="492" 
d="M259 -13q-101 0 -153 63.5t-52 200.5q0 263 196 263q93 0 140 -58.5t47 -190.5v-34h-291q1 -101 26 -136t89 -35q37 0 62.5 11.5t55.5 35.5l47 -62q-71 -58 -167 -58zM248 446q-47 0 -71.5 -32.5t-29.5 -117.5h199q0 85 -21.5 117.5t-76.5 32.5zM173 564l-31 53l191 133
l46 -84z" />
    <glyph glyph-name="ecircumflex" unicode="&#xea;" horiz-adv-x="492" 
d="M259 -13q-101 0 -153 63.5t-52 200.5q0 263 196 263q93 0 140 -58.5t47 -190.5v-34h-291q1 -101 26 -136t89 -35q37 0 62.5 11.5t55.5 35.5l47 -62q-71 -58 -167 -58zM248 446q-47 0 -71.5 -32.5t-29.5 -117.5h199q0 85 -21.5 117.5t-76.5 32.5zM130 570l-33 45l124 127
h58l123 -127l-33 -45l-119 84z" />
    <glyph glyph-name="edieresis" unicode="&#xeb;" horiz-adv-x="492" 
d="M259 -13q-101 0 -153 63.5t-52 200.5q0 263 196 263q93 0 140 -58.5t47 -190.5v-34h-291q1 -101 26 -136t89 -35q37 0 62.5 11.5t55.5 35.5l47 -62q-71 -58 -167 -58zM248 446q-47 0 -71.5 -32.5t-29.5 -117.5h199q0 85 -21.5 117.5t-76.5 32.5zM150 567
q-24 0 -41.5 17.5t-17.5 42.5t17.5 42.5t41.5 17.5t41.5 -17.5t17.5 -42.5t-17.5 -42.5t-41.5 -17.5zM349 567q-23 0 -41 17.5t-18 42.5t18 42.5t41 17.5t41 -17.5t18 -42.5t-18 -42.5t-41 -17.5z" />
    <glyph glyph-name="igrave" unicode="&#xec;" horiz-adv-x="294" 
d="M116 0v434l-74 12v55h160v-501h-86zM185 564l-206 102l46 84l191 -133z" />
    <glyph glyph-name="iacute" unicode="&#xed;" horiz-adv-x="294" 
d="M116 0v434l-74 12v55h160v-501h-86zM113 564l-31 53l191 133l46 -84z" />
    <glyph glyph-name="icircumflex" unicode="&#xee;" horiz-adv-x="294" 
d="M116 0v434l-74 12v55h160v-501h-86zM20 570l-33 45l124 127h58l123 -127l-33 -45l-119 84z" />
    <glyph glyph-name="idieresis" unicode="&#xef;" horiz-adv-x="294" 
d="M116 0v434l-74 12v55h160v-501h-86zM44 567q-24 0 -41.5 17.5t-17.5 42.5t17.5 42.5t41.5 17.5t41.5 -17.5t17.5 -42.5t-17.5 -42.5t-41.5 -17.5zM243 567q-23 0 -41 17.5t-18 42.5t18 42.5t41 17.5t41 -17.5t18 -42.5t-18 -42.5t-41 -17.5z" />
    <glyph glyph-name="eth" unicode="&#xf0;" horiz-adv-x="516" 
d="M156 534l-28 55l86 39q-26 20 -83 54l30 53q76 -38 124 -74l105 47l28 -55l-81 -37q125 -125 125 -341q0 -288 -204 -288q-96 0 -150.5 64.5t-54.5 200.5q0 131 51 191.5t138 60.5q66 0 105 -41q-27 70 -80 121zM258 55q60 0 86.5 42.5t26.5 153.5q0 102 -27.5 143.5
t-86.5 41.5q-63 0 -87.5 -37.5t-24.5 -146.5q0 -111 26.5 -154t86.5 -43z" />
    <glyph glyph-name="ntilde" unicode="&#xf1;" horiz-adv-x="527" 
d="M88 0v501h67l13 -62q75 75 153 75q56 0 88.5 -30t32.5 -92v-392h-86v365q0 42 -13.5 57.5t-47.5 15.5q-53 0 -121 -60v-378h-86zM151 579l-45 33q40 86 103 86q28 0 63.5 -19t54.5 -19q11 0 20.5 6t15 12.5t16.5 21.5l45 -33q-40 -86 -103 -86q-28 0 -63.5 19t-54.5 19
q-11 0 -20.5 -6t-15 -12.5t-16.5 -21.5z" />
    <glyph glyph-name="ograve" unicode="&#xf2;" horiz-adv-x="518" 
d="M259 -13q-96 0 -150.5 64t-54.5 200q0 263 203 263q96 0 151 -64t55 -199q0 -136 -54 -200t-150 -64zM259 55q60 0 86 42t26 153q0 112 -26.5 154t-86.5 42t-86 -41.5t-26 -153.5q0 -111 26.5 -153.5t86.5 -42.5zM319 564l-206 102l46 84l191 -133z" />
    <glyph glyph-name="oacute" unicode="&#xf3;" horiz-adv-x="518" 
d="M259 -13q-96 0 -150.5 64t-54.5 200q0 263 203 263q96 0 151 -64t55 -199q0 -136 -54 -200t-150 -64zM259 55q60 0 86 42t26 153q0 112 -26.5 154t-86.5 42t-86 -41.5t-26 -153.5q0 -111 26.5 -153.5t86.5 -42.5zM197 564l-31 53l191 133l46 -84z" />
    <glyph glyph-name="ocircumflex" unicode="&#xf4;" horiz-adv-x="518" 
d="M259 -13q-96 0 -150.5 64t-54.5 200q0 263 203 263q96 0 151 -64t55 -199q0 -136 -54 -200t-150 -64zM259 55q60 0 86 42t26 153q0 112 -26.5 154t-86.5 42t-86 -41.5t-26 -153.5q0 -111 26.5 -153.5t86.5 -42.5zM138 570l-33 45l124 127h58l123 -127l-33 -45l-119 84z
" />
    <glyph glyph-name="otilde" unicode="&#xf5;" horiz-adv-x="518" 
d="M259 -13q-96 0 -150.5 64t-54.5 200q0 263 203 263q96 0 151 -64t55 -199q0 -136 -54 -200t-150 -64zM259 55q60 0 86 42t26 153q0 112 -26.5 154t-86.5 42t-86 -41.5t-26 -153.5q0 -111 26.5 -153.5t86.5 -42.5zM146 579l-45 33q40 86 103 86q28 0 63.5 -19t54.5 -19
q11 0 20.5 6t15 12.5t16.5 21.5l45 -33q-40 -86 -103 -86q-28 0 -63.5 19t-54.5 19q-11 0 -20.5 -6t-15 -12.5t-16.5 -21.5z" />
    <glyph glyph-name="odieresis" unicode="&#xf6;" horiz-adv-x="518" 
d="M259 -13q-96 0 -150.5 64t-54.5 200q0 263 203 263q96 0 151 -64t55 -199q0 -136 -54 -200t-150 -64zM259 55q60 0 86 42t26 153q0 112 -26.5 154t-86.5 42t-86 -41.5t-26 -153.5q0 -111 26.5 -153.5t86.5 -42.5zM158 567q-24 0 -41.5 17.5t-17.5 42.5t17.5 42.5
t41.5 17.5t41.5 -17.5t17.5 -42.5t-17.5 -42.5t-41.5 -17.5zM357 567q-23 0 -41 17.5t-18 42.5t18 42.5t41 17.5t41 -17.5t18 -42.5t-18 -42.5t-41 -17.5z" />
    <glyph glyph-name="divide" unicode="&#xf7;" horiz-adv-x="551" 
d="M74 255v75h402v-75h-402zM275 409q-27 0 -46 19t-19 47t19 47t46 19q28 0 46.5 -19t18.5 -47t-18.5 -47t-46.5 -19zM275 44q-27 0 -46 19t-19 47t19 47t46 19q28 0 46.5 -19t18.5 -47t-18.5 -47t-46.5 -19z" />
    <glyph glyph-name="oslash" unicode="&#xf8;" horiz-adv-x="518" 
d="M109 -72l-48 28l51 91q-58 67 -58 204q0 263 203 263q58 0 103 -24l48 86l48 -28l-52 -93q59 -67 59 -204q0 -136 -54 -200t-150 -64q-59 0 -104 24zM259 55q60 0 86 42t26 153q0 80 -13 122l-167 -297q26 -20 68 -20zM146 251q0 -77 12 -120l166 296q-23 19 -66 19
q-60 0 -86 -41.5t-26 -153.5z" />
    <glyph glyph-name="ugrave" unicode="&#xf9;" horiz-adv-x="530" 
d="M212 -13q-57 0 -92.5 32.5t-35.5 95.5v386h86v-359q0 -43 15.5 -61t49.5 -18q53 0 120 60v378h86v-501h-67l-13 62q-73 -75 -149 -75zM325 564l-206 102l46 84l191 -133z" />
    <glyph glyph-name="uacute" unicode="&#xfa;" horiz-adv-x="530" 
d="M212 -13q-57 0 -92.5 32.5t-35.5 95.5v386h86v-359q0 -43 15.5 -61t49.5 -18q53 0 120 60v378h86v-501h-67l-13 62q-73 -75 -149 -75zM203 564l-31 53l191 133l46 -84z" />
    <glyph glyph-name="ucircumflex" unicode="&#xfb;" horiz-adv-x="530" 
d="M212 -13q-57 0 -92.5 32.5t-35.5 95.5v386h86v-359q0 -43 15.5 -61t49.5 -18q53 0 120 60v378h86v-501h-67l-13 62q-73 -75 -149 -75zM144 570l-33 45l124 127h58l123 -127l-33 -45l-119 84z" />
    <glyph glyph-name="udieresis" unicode="&#xfc;" horiz-adv-x="530" 
d="M212 -13q-57 0 -92.5 32.5t-35.5 95.5v386h86v-359q0 -43 15.5 -61t49.5 -18q53 0 120 60v378h86v-501h-67l-13 62q-73 -75 -149 -75zM164 567q-24 0 -41.5 17.5t-17.5 42.5t17.5 42.5t41.5 17.5t41.5 -17.5t17.5 -42.5t-17.5 -42.5t-41.5 -17.5zM363 567q-23 0 -41 17.5
t-18 42.5t18 42.5t41 17.5t41 -17.5t18 -42.5t-18 -42.5t-41 -17.5z" />
    <glyph glyph-name="yacute" unicode="&#xfd;" horiz-adv-x="478" 
d="M88 -207l-19 70q62 16 90 42.5t48 94.5h-21l-156 501h94l84 -295q14 -52 30 -137h1q19 98 31 137l89 295h89l-166 -517q-18 -56 -35.5 -89.5t-42 -54t-49 -29.5t-67.5 -18zM192 564l-31 53l191 133l46 -84z" />
    <glyph glyph-name="thorn" unicode="&#xfe;" horiz-adv-x="536" 
d="M88 -201v925h86v-275q62 65 134 65q80 0 125.5 -58t45.5 -202q0 -140 -41.5 -203.5t-130.5 -63.5q-75 0 -133 56v-244h-86zM285 61q38 0 58.5 13t32 54t11.5 120q0 80 -10 121.5t-29 56t-55 14.5q-57 0 -119 -59v-271q51 -49 111 -49z" />
    <glyph glyph-name="ydieresis" unicode="&#xff;" horiz-adv-x="478" 
d="M88 -207l-19 70q62 16 90 42.5t48 94.5h-21l-156 501h94l84 -295q14 -52 30 -137h1q19 98 31 137l89 295h89l-166 -517q-18 -56 -35.5 -89.5t-42 -54t-49 -29.5t-67.5 -18zM143 567q-23 0 -41 17.5t-18 42.5t18 42.5t41 17.5t41 -17.5t18 -42.5t-18 -42.5t-41 -17.5z
M342 567q-24 0 -41.5 17.5t-17.5 42.5t17.5 42.5t41.5 17.5t41.5 -17.5t17.5 -42.5t-17.5 -42.5t-41.5 -17.5z" />
    <glyph glyph-name="dotlessi" unicode="&#x131;" horiz-adv-x="294" 
d="M116 0v434l-74 12v55h160v-501h-86z" />
    <glyph glyph-name="IJ" unicode="&#x132;" horiz-adv-x="656" 
d="M65 0v51l70 8v571l-70 9v50h232v-50l-70 -9v-571l70 -8v-51h-232zM402 -146l-29 61q24 14 32 19t23.5 19.5t21 28.5t10.5 38.5t5 57.5v611h93v-604q0 -105 -33.5 -150t-122.5 -81z" />
    <glyph glyph-name="ij" unicode="&#x133;" horiz-adv-x="588" 
d="M116 0v434l-74 12v55h160v-501h-86zM157 594q-25 0 -42 17.5t-17 43.5t17.5 44t42.5 18q26 0 43.5 -17.5t17.5 -44.5q0 -26 -17.5 -43.5t-44.5 -17.5zM371 -206l-36 59q46 30 60.5 61t14.5 98v422l-74 12v55h160v-490q0 -99 -26 -140t-99 -77zM451 594q-25 0 -42 17.5
t-17 43.5t17.5 44t42.5 18q26 0 43.5 -17.5t17.5 -44.5q0 -26 -17.5 -43.5t-44.5 -17.5z" />
    <glyph glyph-name="Lslash" unicode="&#x141;" horiz-adv-x="471" 
d="M25 244v82l72 24v339h92v-308l147 50v-82l-147 -50v-219h235v-80h-327v268z" />
    <glyph glyph-name="lslash" unicode="&#x142;" horiz-adv-x="282" 
d="M28 284v82l67 30v328h86v-288l76 35v-82l-76 -35v-258q0 -35 35 -35q12 0 20 2l12 -62q-27 -11 -62 -11q-48 0 -69.5 28t-21.5 94v202z" />
    <glyph glyph-name="OE" unicode="&#x152;" horiz-adv-x="847" 
d="M339 0q-60 0 -108 18t-86 57.5t-59 108.5t-21 165q0 97 20.5 165t58.5 105.5t84 53.5t106 16h442v-79h-261v-210h211v-79h-211v-241h274v-80h-450zM330 80h93v530h-91q-90 0 -129 -58t-39 -205q0 -148 37.5 -207.5t128.5 -59.5z" />
    <glyph glyph-name="oe" unicode="&#x153;" horiz-adv-x="809" 
d="M259 -13q-96 0 -150.5 64t-54.5 200q0 263 203 263q113 0 159 -95q43 95 151 95q93 0 140 -58.5t47 -190.5v-34h-291q1 -102 26 -138t89 -36t121 45l44 -57q-71 -58 -167 -58q-118 0 -161 94q-45 -94 -156 -94zM259 55q60 0 86 42t26 153q0 112 -26.5 154t-86.5 42
t-86 -41.5t-26 -153.5q0 -111 26.5 -153.5t86.5 -42.5zM565 446q-47 0 -71.5 -32.5t-29.5 -117.5h199q0 85 -21.5 117.5t-76.5 32.5z" />
    <glyph glyph-name="Scaron" unicode="&#x160;" horiz-adv-x="530" 
d="M252 -13q-125 0 -207 70l40 67q43 -32 77 -45t83 -13q126 0 126 113q0 58 -29.5 85.5t-101.5 54.5q-90 35 -128 78.5t-38 126.5q0 87 51 132.5t143 45.5q98 0 166 -48l-38 -72q-59 41 -123 41q-108 0 -108 -96q0 -51 22.5 -74t87.5 -48q47 -18 76 -33t58.5 -40t43 -61.5
t13.5 -86.5q0 -86 -50.5 -141.5t-163.5 -55.5zM228 744l-123 127l33 45l119 -84l120 84l33 -45l-124 -127h-58z" />
    <glyph glyph-name="scaron" unicode="&#x161;" horiz-adv-x="434" 
d="M203 -13q-48 0 -93 15.5t-73 38.5l36 64q67 -46 134 -46q49 0 69 18.5t20 55.5q0 40 -20.5 55.5t-85.5 33.5q-60 16 -94 51t-34 104q0 59 39.5 98t117.5 39q81 0 139 -33l-30 -68q-56 28 -106 28q-79 0 -79 -62q0 -34 18 -48.5t72 -29.5q34 -9 56.5 -19t45 -28t34 -47
t11.5 -70q0 -77 -44 -113.5t-133 -36.5zM197 570l-123 127l33 45l119 -84l120 84l33 -45l-124 -127h-58z" />
    <glyph glyph-name="Ydieresis" unicode="&#x178;" horiz-adv-x="536" 
d="M221 0v278l-194 411h107l96 -223q25 -60 40 -108q2 5 15 44.5t23 62.5l100 224h100l-195 -413v-276h-92zM167 741q-23 0 -41 17.5t-18 42.5t18 42.5t41 17.5t41 -17.5t18 -42.5t-18 -42.5t-41 -17.5zM366 741q-24 0 -41.5 17.5t-17.5 42.5t17.5 42.5t41.5 17.5
t41.5 -17.5t17.5 -42.5t-17.5 -42.5t-41.5 -17.5z" />
    <glyph glyph-name="Zcaron" unicode="&#x17d;" horiz-adv-x="494" 
d="M43 0v70l292 539h-272v80h380v-73l-290 -536h289v-80h-399zM227 744l-123 127l33 45l119 -84l120 84l33 -45l-124 -127h-58z" />
    <glyph glyph-name="zcaron" unicode="&#x17e;" horiz-adv-x="430" 
d="M49 0v79l236 352h-214v70h303v-78l-234 -353h242v-70h-333zM194 570l-123 127l33 45l119 -84l120 84l33 -45l-124 -127h-58z" />
    <glyph glyph-name="longs" unicode="&#x17f;" horiz-adv-x="305" 
d="M90 0v581q0 149 133 149q63 0 104 -27l-30 -65q-31 16 -62 16t-45 -17t-14 -55v-582h-86z" />
    <glyph glyph-name="florin" unicode="&#x192;" horiz-adv-x="406" 
d="M59 369v70h82l12 114q15 149 138 149q62 0 103 -27l-30 -65q-31 16 -61 16q-29 0 -44.5 -16.5t-19.5 -55.5l-12 -115h107v-70h-114l-58 -570h-86l58 570h-75z" />
    <glyph glyph-name="uni02BB" unicode="&#x2bb;" horiz-adv-x="259" 
d="M135 444q-32 0 -52 24.5t-20 64.5q0 130 118 165l17 -46q-60 -26 -60 -76q20 -2 39.5 -19t19.5 -48q0 -28 -18.5 -46.5t-43.5 -18.5z" />
    <glyph glyph-name="afii57929" unicode="&#x2bc;" horiz-adv-x="259" 
d="M78 444l-17 46q60 26 60 76q-20 2 -39.5 19t-19.5 48q0 28 18.5 46.5t43.5 18.5q32 0 52 -24.5t20 -64.5q0 -130 -118 -165z" />
    <glyph glyph-name="circumflex" unicode="&#x2c6;" horiz-adv-x="545" 
d="M152 570l-33 45l124 127h58l123 -127l-33 -45l-119 84z" />
    <glyph glyph-name="caron" unicode="&#x2c7;" horiz-adv-x="545" 
d="M244 570l-123 127l33 45l119 -84l120 84l33 -45l-124 -127h-58z" />
    <glyph glyph-name="breve" unicode="&#x2d8;" horiz-adv-x="545" 
d="M272 579q-58 0 -95.5 38t-47.5 89l58 15q12 -33 30.5 -48.5t54.5 -15.5t54.5 15.5t30.5 48.5l58 -15q-10 -51 -48 -89t-95 -38z" />
    <glyph glyph-name="dotaccent" unicode="&#x2d9;" horiz-adv-x="545" 
d="M272 567q-24 0 -41.5 17.5t-17.5 42.5t17.5 42.5t41.5 17.5t41.5 -17.5t17.5 -42.5t-17.5 -42.5t-41.5 -17.5z" />
    <glyph glyph-name="ring" unicode="&#x2da;" horiz-adv-x="545" 
d="M272 563q-45 0 -72.5 30.5t-27.5 74.5t27.5 74.5t72.5 30.5t72.5 -30.5t27.5 -74.5t-27.5 -74.5t-72.5 -30.5zM272 612q43 0 43 56t-43 56t-43 -56t43 -56z" />
    <glyph glyph-name="ogonek" unicode="&#x2db;" horiz-adv-x="545" 
d="M273 -214q-43 0 -66 23.5t-23 57.5q0 65 60 133l16 19h64l-14 -19q-63 -80 -63 -127q0 -32 32 -32q22 0 56 16l21 -47q-37 -24 -83 -24z" />
    <glyph glyph-name="tilde" unicode="&#x2dc;" horiz-adv-x="545" 
d="M160 579l-45 33q40 86 103 86q28 0 63.5 -19t54.5 -19q11 0 20.5 6t15 12.5t16.5 21.5l45 -33q-40 -86 -103 -86q-28 0 -63.5 19t-54.5 19q-11 0 -20.5 -6t-15 -12.5t-16.5 -21.5z" />
    <glyph glyph-name="hungarumlaut" unicode="&#x2dd;" horiz-adv-x="545" 
d="M366 534l-54 30l99 211l82 -50zM185 534l-54 30l99 211l82 -50z" />
    <glyph glyph-name="gravecomb" unicode="&#x300;" horiz-adv-x="1" 
d="M-198 564l-206 102l46 84l191 -133z" />
    <glyph glyph-name="acutecomb" unicode="&#x301;" horiz-adv-x="1" 
d="M-320 564l-31 53l191 133l46 -84z" />
    <glyph glyph-name="uni0302" unicode="&#x302;" horiz-adv-x="1" 
d="M-379 570l-33 45l124 127h58l123 -127l-33 -45l-119 84z" />
    <glyph glyph-name="tildecomb" unicode="&#x303;" horiz-adv-x="1" 
d="M-371 579l-45 33q40 86 103 86q28 0 63.5 -19t54.5 -19q11 0 20.5 6t15 12.5t16.5 21.5l45 -33q-40 -86 -103 -86q-28 0 -63.5 19t-54.5 19q-11 0 -20.5 -6t-15 -12.5t-16.5 -21.5z" />
    <glyph glyph-name="uni0304" unicode="&#x304;" horiz-adv-x="1" 
d="M-401 618v74h257v-74h-257z" />
    <glyph glyph-name="uni0306" unicode="&#x306;" horiz-adv-x="1" 
d="M-272 570q-58 0 -95.5 38t-47.5 89l58 15q12 -33 30.5 -48.5t54.5 -15.5t54.5 15.5t30.5 48.5l58 -15q-10 -51 -48 -89t-95 -38z" />
    <glyph glyph-name="uni0307" unicode="&#x307;" horiz-adv-x="1" 
d="M-136 594q-25 0 -42 17.5t-17 43.5t17.5 44t42.5 18q26 0 43.5 -17.5t17.5 -44.5q0 -26 -17.5 -43.5t-44.5 -17.5z" />
    <glyph glyph-name="uni0308" unicode="&#x308;" horiz-adv-x="1" 
d="M-173 567q-23 0 -41 17.5t-18 42.5t18 42.5t41 17.5t41 -17.5t18 -42.5t-18 -42.5t-41 -17.5zM-372 567q-24 0 -41.5 17.5t-17.5 42.5t17.5 42.5t41.5 17.5t41.5 -17.5t17.5 -42.5t-17.5 -42.5t-41.5 -17.5z" />
    <glyph glyph-name="uni030A" unicode="&#x30a;" horiz-adv-x="1" 
d="M-272 563q-45 0 -72.5 30.5t-27.5 74.5t27.5 74.5t72.5 30.5t72.5 -30.5t27.5 -74.5t-27.5 -74.5t-72.5 -30.5zM-272 612q43 0 43 56t-43 56t-43 -56t43 -56z" />
    <glyph glyph-name="uni030B" unicode="&#x30b;" horiz-adv-x="1" 
d="M-178 564l-54 30l99 211l82 -50zM-359 564l-54 30l99 211l82 -50z" />
    <glyph glyph-name="uni030C" unicode="&#x30c;" horiz-adv-x="1" 
d="M-235 570l-123 127l33 45l119 -84l120 84l33 -45l-124 -127h-58z" />
    <glyph glyph-name="uni0312" unicode="&#x312;" horiz-adv-x="1" 
d="M-84 857l16 -47q-62 -25 -61 -79q21 -2 41 -19.5t20 -49.5q0 -30 -18.5 -49t-45.5 -19q-33 0 -53.5 25.5t-20.5 67.5q0 138 122 170z" />
    <glyph glyph-name="uni0313" unicode="&#x313;" horiz-adv-x="1" 
d="M-190 426l-16 47q62 25 61 79q-21 2 -41 19.5t-20 49.5q0 30 18.5 49t45.5 19q33 0 53.5 -25.5t20.5 -67.5q0 -138 -122 -170z" />
    <glyph glyph-name="uni0326" unicode="&#x326;" horiz-adv-x="1" 
d="M-320 -238l-16 40q23 7 44 21.5t21 28.5q-17 2 -32 15t-15 37t15 39t37 15q27 0 44 -18.5t17 -51.5q0 -98 -115 -126z" />
    <glyph glyph-name="uni0327" unicode="&#x327;" horiz-adv-x="1" 
d="M-272 -214q-45 0 -79 24l22 46q32 -15 56 -15q37 0 37 32q0 33 -36 33q-18 0 -43 -5l33 99l4 16h56l-5 -16l-19 -51q73 -6 73 -81q0 -36 -23.5 -59t-75.5 -23z" />
    <glyph glyph-name="uni0328" unicode="&#x328;" horiz-adv-x="1" 
d="M-271 -214q-43 0 -66 23.5t-23 57.5q0 65 60 133l16 19h64l-14 -19q-63 -80 -63 -127q0 -32 32 -32q22 0 56 16l21 -47q-37 -24 -83 -24z" />
    <glyph glyph-name="uni0335" unicode="&#x335;" horiz-adv-x="1" 
d="M-401 213v74h257v-74h-257z" />
    <glyph glyph-name="uni0336" unicode="&#x336;" horiz-adv-x="1" 
d="M-725 213v75h670v-75h-670z" />
    <glyph glyph-name="uni0394" unicode="&#x394;" horiz-adv-x="579" 
d="M28 0l213 690h102l207 -690h-522zM146 78h282l-89 319q-32 114 -48 199h-2q-14 -77 -50 -199z" />
    <glyph glyph-name="uni03A9" unicode="&#x3a9;" horiz-adv-x="660" 
d="M46 0v80h174q-77 23 -111.5 90.5t-34.5 202.5q0 160 65.5 244.5t189.5 84.5q126 0 191 -83t65 -247q0 -131 -34.5 -200t-111.5 -92h174v-80h-234v129q38 10 58 27t34.5 69.5t14.5 146.5q0 133 -36 194t-120 61t-120.5 -59.5t-36.5 -190.5q0 -94 14.5 -148t35 -72
t57.5 -28v-129h-234z" />
    <glyph glyph-name="uni03BC" unicode="&#x3bc;" horiz-adv-x="530" 
d="M225 -13q-37 0 -55 18v-206h-86v702h86v-359q0 -43 15.5 -61t49.5 -18q53 0 120 60v378h86v-501h-67l-13 62q-75 -75 -136 -75z" />
    <glyph glyph-name="pi" unicode="&#x3c0;" horiz-adv-x="540" 
d="M37 431v70h465v-70h-77v-335q0 -35 35 -35q10 0 20 2l12 -62q-28 -11 -62 -11q-48 0 -69.5 28t-21.5 94v319h-144v-431h-86v431h-72z" />
    <glyph glyph-name="uni2007" unicode="&#x2007;" horiz-adv-x="620" 
 />
    <glyph glyph-name="uni2008" unicode="&#x2008;" horiz-adv-x="277" 
 />
    <glyph glyph-name="uni200B" unicode="&#x200b;" horiz-adv-x="0" 
 />
    <glyph glyph-name="endash" unicode="&#x2013;" horiz-adv-x="567" 
d="M54 240v75h457v-75h-457z" />
    <glyph glyph-name="emdash" unicode="&#x2014;" horiz-adv-x="780" 
d="M54 240v75h670v-75h-670z" />
    <glyph glyph-name="quoteleft" unicode="&#x2018;" horiz-adv-x="259" 
d="M135 444q-32 0 -52 24.5t-20 64.5q0 130 118 165l17 -46q-60 -26 -60 -76q20 -2 39.5 -19t19.5 -48q0 -28 -18.5 -46.5t-43.5 -18.5z" />
    <glyph glyph-name="quoteright" unicode="&#x2019;" horiz-adv-x="259" 
d="M78 444l-17 46q60 26 60 76q-20 2 -39.5 19t-19.5 48q0 28 18.5 46.5t43.5 18.5q32 0 52 -24.5t20 -64.5q0 -130 -118 -165z" />
    <glyph glyph-name="quotesinglbase" unicode="&#x201a;" horiz-adv-x="259" 
d="M78 -125l-17 46q60 26 60 76q-20 2 -39.5 19t-19.5 48q0 28 18.5 46.5t43.5 18.5q32 0 52 -24.5t20 -64.5q0 -130 -118 -165z" />
    <glyph glyph-name="quotedblleft" unicode="&#x201c;" horiz-adv-x="456" 
d="M332 444q-32 0 -52 24.5t-20 64.5q0 130 118 165l17 -46q-60 -26 -60 -76q20 -2 39.5 -19t19.5 -48q0 -28 -18.5 -46.5t-43.5 -18.5zM135 444q-32 0 -52 24.5t-20 64.5q0 130 118 165l17 -46q-60 -26 -60 -76q20 -2 39.5 -19t19.5 -48q0 -28 -18.5 -46.5t-43.5 -18.5z
" />
    <glyph glyph-name="quotedblright" unicode="&#x201d;" horiz-adv-x="456" 
d="M275 444l-17 46q60 26 60 76q-20 2 -39.5 19t-19.5 48q0 28 18.5 46.5t43.5 18.5q32 0 52 -24.5t20 -64.5q0 -130 -118 -165zM78 444l-17 46q60 26 60 76q-20 2 -39.5 19t-19.5 48q0 28 18.5 46.5t43.5 18.5q32 0 52 -24.5t20 -64.5q0 -130 -118 -165z" />
    <glyph glyph-name="quotedblbase" unicode="&#x201e;" horiz-adv-x="456" 
d="M275 -125l-17 46q60 26 60 76q-20 2 -39.5 19t-19.5 48q0 28 18.5 46.5t43.5 18.5q32 0 52 -24.5t20 -64.5q0 -130 -118 -165zM78 -125l-17 46q60 26 60 76q-20 2 -39.5 19t-19.5 48q0 28 18.5 46.5t43.5 18.5q32 0 52 -24.5t20 -64.5q0 -130 -118 -165z" />
    <glyph glyph-name="dagger" unicode="&#x2020;" horiz-adv-x="383" 
d="M151 194v291h-100v73h100v131h80v-131h100v-73h-100v-291h-80z" />
    <glyph glyph-name="daggerdbl" unicode="&#x2021;" horiz-adv-x="383" 
d="M151 194v131h-100v73h100v87h-100v73h100v131h80v-131h100v-73h-100v-87h100v-73h-100v-131h-80z" />
    <glyph glyph-name="bullet" unicode="&#x2022;" horiz-adv-x="361" 
d="M180 214q-49 0 -80.5 35t-31.5 86t31.5 86t80.5 35t80.5 -35t31.5 -86t-31.5 -86t-80.5 -35z" />
    <glyph glyph-name="uni2023" unicode="&#x2023;" horiz-adv-x="562" 
d="M75 104v458l434 -228z" />
    <glyph glyph-name="ellipsis" unicode="&#x2026;" horiz-adv-x="723" 
d="M583 -9q-29 0 -48.5 20t-19.5 49t19.5 49t48.5 20t48.5 -20t19.5 -49t-19.5 -49t-48.5 -20zM361 -9q-29 0 -48.5 20t-19.5 49t19.5 49t48.5 20t48.5 -20t19.5 -49t-19.5 -49t-48.5 -20zM139 -9q-29 0 -48.5 20t-19.5 49t19.5 49t48.5 20t48.5 -20t19.5 -49t-19.5 -49
t-48.5 -20z" />
    <glyph glyph-name="perthousand" unicode="&#x2030;" horiz-adv-x="1202" 
d="M210 302q-69 0 -111.5 47.5t-42.5 125.5t42 125t111 47t111.5 -47.5t42.5 -126.5q0 -78 -42 -124.5t-111 -46.5zM626 -11q-69 0 -111.5 47.5t-42.5 125.5t42 125t111 47t111.5 -47.5t42.5 -126.5q0 -78 -42 -124.5t-111 -46.5zM991 -11q-69 0 -111.5 47.5t-42.5 125.5
t42 125t111 47t111.5 -47.5t42.5 -126.5q0 -78 -42 -124.5t-111 -46.5zM187 0l384 636h77l-384 -636h-77zM210 365q71 0 71 104q0 64 -17 89.5t-55 25.5q-71 0 -71 -105q0 -63 17 -88.5t55 -25.5zM991 52q71 0 71 104q0 64 -17 89.5t-55 25.5q-71 0 -71 -105q0 -63 17 -88.5
t55 -25.5zM626 52q71 0 71 104q0 64 -17 89.5t-55 25.5q-71 0 -71 -105q0 -63 17 -88.5t55 -25.5z" />
    <glyph glyph-name="guilsinglleft" unicode="&#x2039;" horiz-adv-x="319" 
d="M195 27l-139 221l139 222l65 -44l-110 -178l109 -179z" />
    <glyph glyph-name="guilsinglright" unicode="&#x203a;" horiz-adv-x="319" 
d="M123 27l-65 44l110 178l-109 179l64 42l139 -221z" />
    <glyph glyph-name="fraction" unicode="&#x2044;" horiz-adv-x="310" 
d="M-76 0l384 636h77l-384 -636h-77z" />
    <glyph glyph-name="uni2070" unicode="&#x2070;" horiz-adv-x="376" 
d="M188 213q-163 0 -163 214q0 219 163 219t163 -219q0 -214 -163 -214zM188 267q48 0 68.5 38.5t20.5 123.5q0 83 -21 122.5t-68 39.5t-68.5 -40t-21.5 -123q0 -84 20.5 -122.5t69.5 -38.5z" />
    <glyph glyph-name="uni2074" unicode="&#x2074;" horiz-adv-x="375" 
d="M242 278h-221v63l129 296h73l-131 -300h150v173l71 12v-185h48v-59h-48v-95h-71v95z" />
    <glyph glyph-name="uni2075" unicode="&#x2075;" horiz-adv-x="352" 
d="M143 176q-66 0 -122 28l17 51q47 -21 96 -21q95 0 95 94q0 89 -99 89q-45 0 -80 -13l20 235h221v-58h-165l-11 -113q18 4 39 4q69 0 109 -36.5t40 -105.5q0 -73 -41 -113.5t-119 -40.5z" />
    <glyph glyph-name="uni2076" unicode="&#x2076;" horiz-adv-x="366" 
d="M107 466q49 36 98 36q55 0 93 -35t38 -103q0 -74 -40 -112.5t-107 -38.5q-74 0 -117 49.5t-43 144.5q0 123 60 189.5t180 87.5l16 -53q-84 -21 -125.5 -56.5t-52.5 -108.5zM103 416q-1 -7 -1 -23q0 -127 87 -127q76 0 76 93q0 91 -80 91q-40 0 -82 -34z" />
    <glyph glyph-name="uni2077" unicode="&#x2077;" horiz-adv-x="337" 
d="M153 175l-72 10q22 244 159 395h-208v59h273v-63q-56 -63 -100 -166.5t-52 -234.5z" />
    <glyph glyph-name="uni2078" unicode="&#x2078;" horiz-adv-x="372" 
d="M122 452q-75 34 -75 110q0 52 36 84.5t102 32.5q65 0 101.5 -31t36.5 -82q0 -72 -78 -106q49 -23 72 -49t23 -72q0 -61 -41 -93.5t-115 -32.5q-73 0 -113 32t-40 93q0 78 91 114zM174 429q-74 -31 -74 -89q0 -76 86 -76q39 0 61.5 19.5t22.5 53.5q0 29 -15.5 47.5
t-53.5 33.5zM190 481q65 26 65 81q0 65 -70 65q-32 0 -50.5 -16.5t-18.5 -46.5q0 -53 58 -77z" />
    <glyph glyph-name="uni2079" unicode="&#x2079;" horiz-adv-x="366" 
d="M258 389q-42 -36 -94 -36q-56 0 -95 36.5t-39 104.5q0 74 40.5 113t107.5 39q74 0 116.5 -49.5t42.5 -145.5q0 -236 -245 -277l-16 52q86 22 128.5 57.5t53.5 105.5zM263 437v27q0 129 -85 129q-37 0 -57.5 -24t-20.5 -69q0 -47 22.5 -71.5t61.5 -24.5q42 0 79 33z" />
    <glyph glyph-name="uni207A" unicode="&#x207a;" horiz-adv-x="347" 
d="M140 270v111h-101v62h101v113h67v-113h101v-62h-101v-111h-67z" />
    <glyph glyph-name="uni207B" unicode="&#x207b;" horiz-adv-x="347" 
d="M39 381v62h269v-62h-269z" />
    <glyph glyph-name="uni207C" unicode="&#x207c;" horiz-adv-x="350" 
d="M39 444v62h271v-62h-271zM39 317v62h271v-62h-271z" />
    <glyph glyph-name="uni207D" unicode="&#x207d;" horiz-adv-x="218" 
d="M181 114q-78 32 -113 104t-35 203q0 132 34.5 204t113.5 103l19 -48q-52 -31 -73 -85.5t-21 -174.5q0 -119 21.5 -173.5t72.5 -84.5z" />
    <glyph glyph-name="uni207E" unicode="&#x207e;" horiz-adv-x="218" 
d="M37 114l-19 48q51 31 72.5 85.5t21.5 173.5q0 120 -21.5 174.5t-72.5 84.5l19 48q78 -32 112.5 -104t34.5 -203q0 -132 -34.5 -204t-112.5 -103z" />
    <glyph glyph-name="uni2080" unicode="&#x2080;" horiz-adv-x="376" 
d="M188 -156q-163 0 -163 214q0 219 163 219t163 -219q0 -214 -163 -214zM188 -102q48 0 68.5 38.5t20.5 123.5q0 83 -21 122.5t-68 39.5t-68.5 -40t-21.5 -123q0 -84 20.5 -122.5t69.5 -38.5z" />
    <glyph glyph-name="uni2081" unicode="&#x2081;" horiz-adv-x="327" 
d="M58 -150v52h82v287l-76 -39l-20 38l114 87h55v-373h76v-52h-231z" />
    <glyph glyph-name="uni2082" unicode="&#x2082;" horiz-adv-x="361" 
d="M52 -150v60q111 89 148 137.5t37 96.5q0 72 -71 72q-43 0 -94 -27l-23 52q61 35 124 35t100.5 -33.5t37.5 -94.5q0 -58 -39 -112t-138 -129h183v-57h-265z" />
    <glyph glyph-name="uni2083" unicode="&#x2083;" horiz-adv-x="366" 
d="M155 -194q-70 0 -128 27l16 52q55 -21 103 -21q95 0 95 83q0 81 -90 81h-40v53h36q81 0 81 70q0 67 -75 67q-44 0 -92 -25l-20 50q56 33 124 33q62 0 98 -32t36 -84q0 -77 -71 -103q87 -22 87 -115q0 -63 -41.5 -99.5t-118.5 -36.5z" />
    <glyph glyph-name="uni2084" unicode="&#x2084;" horiz-adv-x="375" 
d="M242 -91h-221v63l129 296h73l-131 -300h150v173l71 12v-185h48v-59h-48v-95h-71v95z" />
    <glyph glyph-name="uni2085" unicode="&#x2085;" horiz-adv-x="352" 
d="M143 -193q-66 0 -122 28l17 51q47 -21 96 -21q95 0 95 94q0 89 -99 89q-45 0 -80 -13l20 235h221v-58h-165l-11 -113q18 4 39 4q69 0 109 -36.5t40 -105.5q0 -73 -41 -113.5t-119 -40.5z" />
    <glyph glyph-name="uni2086" unicode="&#x2086;" horiz-adv-x="366" 
d="M107 97q49 36 98 36q55 0 93 -35t38 -103q0 -74 -40 -112.5t-107 -38.5q-74 0 -117 49.5t-43 144.5q0 123 60 189.5t180 87.5l16 -53q-84 -21 -125.5 -56.5t-52.5 -108.5zM103 47q-1 -7 -1 -23q0 -127 87 -127q76 0 76 93q0 91 -80 91q-40 0 -82 -34z" />
    <glyph glyph-name="uni2087" unicode="&#x2087;" horiz-adv-x="337" 
d="M153 -194l-72 10q22 244 159 395h-208v59h273v-63q-56 -63 -100 -166.5t-52 -234.5z" />
    <glyph glyph-name="uni2088" unicode="&#x2088;" horiz-adv-x="372" 
d="M122 83q-75 34 -75 110q0 52 36 84.5t102 32.5q65 0 101.5 -31t36.5 -82q0 -72 -78 -106q49 -23 72 -49t23 -72q0 -61 -41 -93.5t-115 -32.5q-73 0 -113 32t-40 93q0 78 91 114zM174 60q-74 -31 -74 -89q0 -76 86 -76q39 0 61.5 19.5t22.5 53.5q0 29 -15.5 47.5
t-53.5 33.5zM190 112q65 26 65 81q0 65 -70 65q-32 0 -50.5 -16.5t-18.5 -46.5q0 -53 58 -77z" />
    <glyph glyph-name="uni2089" unicode="&#x2089;" horiz-adv-x="366" 
d="M258 20q-42 -36 -94 -36q-56 0 -95 36.5t-39 104.5q0 74 40.5 113t107.5 39q74 0 116.5 -49.5t42.5 -145.5q0 -236 -245 -277l-16 52q86 22 128.5 57.5t53.5 105.5zM263 68v27q0 129 -85 129q-37 0 -57.5 -24t-20.5 -69q0 -47 22.5 -71.5t61.5 -24.5q42 0 79 33z" />
    <glyph glyph-name="uni208A" unicode="&#x208a;" horiz-adv-x="347" 
d="M140 -99v111h-101v62h101v113h67v-113h101v-62h-101v-111h-67z" />
    <glyph glyph-name="uni208B" unicode="&#x208b;" horiz-adv-x="347" 
d="M39 12v62h269v-62h-269z" />
    <glyph glyph-name="uni208C" unicode="&#x208c;" horiz-adv-x="350" 
d="M39 75v62h271v-62h-271zM39 -52v62h271v-62h-271z" />
    <glyph glyph-name="uni208D" unicode="&#x208d;" horiz-adv-x="218" 
d="M181 -255q-78 32 -113 104t-35 203q0 132 34.5 204t113.5 103l19 -48q-52 -31 -73 -85.5t-21 -174.5q0 -119 21.5 -173.5t72.5 -84.5z" />
    <glyph glyph-name="uni208E" unicode="&#x208e;" horiz-adv-x="218" 
d="M37 -255l-19 48q51 31 72.5 85.5t21.5 173.5q0 120 -21.5 174.5t-72.5 84.5l19 48q78 -32 112.5 -104t34.5 -203q0 -132 -34.5 -204t-112.5 -103z" />
    <glyph glyph-name="Euro" unicode="&#x20ac;" horiz-adv-x="610" 
d="M50 363v66h102q40 220 244 220q100 0 159 -50l-41 -61q-51 38 -118 38q-70 0 -106 -35t-47 -112h209v-66h-215v-84h215v-66h-209q11 -80 47 -116.5t109 -36.5q70 0 125 45l41 -61q-74 -57 -169 -57q-209 0 -246 226h-100v66h94q-1 12 -1 37q0 32 1 47h-94z" />
    <glyph glyph-name="trademark" unicode="&#x2122;" horiz-adv-x="784" 
d="M376 309v380h101l48 -160q17 -58 17 -87h2q0 28 17 87l47 160h99v-380h-68v178q0 75 6 138h-2q-9 -64 -30 -130l-39 -126h-65l-39 126q-21 68 -31 130h-2q7 -49 7 -138v-178h-68zM148 309v318h-97v62h265v-62h-97v-318h-71z" />
    <glyph glyph-name="Omega" unicode="&#x2126;" horiz-adv-x="660" 
d="M46 0v80h174q-77 23 -111.5 90.5t-34.5 202.5q0 160 65.5 244.5t189.5 84.5q126 0 191 -83t65 -247q0 -131 -34.5 -200t-111.5 -92h174v-80h-234v129q38 10 58 27t34.5 69.5t14.5 146.5q0 133 -36 194t-120 61t-120.5 -59.5t-36.5 -190.5q0 -94 14.5 -148t35 -72
t57.5 -28v-129h-234z" />
    <glyph glyph-name="uni2150" unicode="&#x2150;" horiz-adv-x="974" 
d="M58 219v52h82v287l-76 -39l-20 38l114 87h55v-373h76v-52h-231zM251 0l384 636h77l-384 -636h-77zM790 -44l-72 10q22 244 159 395h-208v59h273v-63q-56 -63 -100 -166.5t-52 -234.5z" />
    <glyph glyph-name="uni2151" unicode="&#x2151;" horiz-adv-x="1003" 
d="M895 170q-42 -36 -94 -36q-56 0 -95 36.5t-39 104.5q0 74 40.5 113t107.5 39q74 0 116.5 -49.5t42.5 -145.5q0 -236 -245 -277l-16 52q86 22 128.5 57.5t53.5 105.5zM251 0l384 636h77l-384 -636h-77zM58 219v52h82v287l-76 -39l-20 38l114 87h55v-373h76v-52h-231z
M900 218v27q0 129 -85 129q-37 0 -57.5 -24t-20.5 -69q0 -47 22.5 -71.5t61.5 -24.5q42 0 79 33z" />
    <glyph glyph-name="uni2152" unicode="&#x2152;" horiz-adv-x="1340" 
d="M58 219v52h82v287l-76 -39l-20 38l114 87h55v-373h76v-52h-231zM251 0l384 636h77l-384 -636h-77zM695 0v52h82v287l-76 -39l-20 38l114 87h55v-373h76v-52h-231zM1152 -6q-163 0 -163 214q0 219 163 219t163 -219q0 -214 -163 -214zM1152 48q48 0 68.5 38.5t20.5 123.5
q0 83 -21 122.5t-68 39.5t-68.5 -40t-21.5 -123q0 -84 20.5 -122.5t69.5 -38.5z" />
    <glyph glyph-name="onethird" unicode="&#x2153;" horiz-adv-x="1003" 
d="M58 219v52h82v287l-76 -39l-20 38l114 87h55v-373h76v-52h-231zM251 0l384 636h77l-384 -636h-77zM792 -44q-70 0 -128 27l16 52q55 -21 103 -21q95 0 95 83q0 81 -90 81h-40v53h36q81 0 81 70q0 67 -75 67q-44 0 -92 -25l-20 50q56 33 124 33q62 0 98 -32t36 -84
q0 -77 -71 -103q87 -22 87 -115q0 -63 -41.5 -99.5t-118.5 -36.5z" />
    <glyph glyph-name="twothirds" unicode="&#x2154;" horiz-adv-x="1037" 
d="M52 219v60q111 89 148 137.5t37 96.5q0 72 -71 72q-43 0 -94 -27l-23 52q61 35 124 35t100.5 -33.5t37.5 -94.5q0 -58 -39 -112t-138 -129h183v-57h-265zM285 0l384 636h77l-384 -636h-77zM826 -44q-70 0 -128 27l16 52q55 -21 103 -21q95 0 95 83q0 81 -90 81h-40v53h36
q81 0 81 70q0 67 -75 67q-44 0 -92 -25l-20 50q56 33 124 33q62 0 98 -32t36 -84q0 -77 -71 -103q87 -22 87 -115q0 -63 -41.5 -99.5t-118.5 -36.5z" />
    <glyph glyph-name="uni2155" unicode="&#x2155;" horiz-adv-x="989" 
d="M58 219v52h82v287l-76 -39l-20 38l114 87h55v-373h76v-52h-231zM251 0l384 636h77l-384 -636h-77zM780 -43q-66 0 -122 28l17 51q47 -21 96 -21q95 0 95 94q0 89 -99 89q-45 0 -80 -13l20 235h221v-58h-165l-11 -113q18 4 39 4q69 0 109 -36.5t40 -105.5
q0 -73 -41 -113.5t-119 -40.5z" />
    <glyph glyph-name="uni2156" unicode="&#x2156;" horiz-adv-x="1023" 
d="M52 219v60q111 89 148 137.5t37 96.5q0 72 -71 72q-43 0 -94 -27l-23 52q61 35 124 35t100.5 -33.5t37.5 -94.5q0 -58 -39 -112t-138 -129h183v-57h-265zM285 0l384 636h77l-384 -636h-77zM814 -43q-66 0 -122 28l17 51q47 -21 96 -21q95 0 95 94q0 89 -99 89
q-45 0 -80 -13l20 235h221v-58h-165l-11 -113q18 4 39 4q69 0 109 -36.5t40 -105.5q0 -73 -41 -113.5t-119 -40.5z" />
    <glyph glyph-name="uni2157" unicode="&#x2157;" horiz-adv-x="1028" 
d="M155 175q-70 0 -128 27l16 52q55 -21 103 -21q95 0 95 83q0 81 -90 81h-40v53h36q81 0 81 70q0 67 -75 67q-44 0 -92 -25l-20 50q56 33 124 33q62 0 98 -32t36 -84q0 -77 -71 -103q87 -22 87 -115q0 -63 -41.5 -99.5t-118.5 -36.5zM290 0l384 636h77l-384 -636h-77z
M819 -43q-66 0 -122 28l17 51q47 -21 96 -21q95 0 95 94q0 89 -99 89q-45 0 -80 -13l20 235h221v-58h-165l-11 -113q18 4 39 4q69 0 109 -36.5t40 -105.5q0 -73 -41 -113.5t-119 -40.5z" />
    <glyph glyph-name="uni2158" unicode="&#x2158;" horiz-adv-x="1037" 
d="M242 278h-221v63l129 296h73l-131 -300h150v173l71 12v-185h48v-59h-48v-95h-71v95zM299 0l384 636h77l-384 -636h-77zM828 -43q-66 0 -122 28l17 51q47 -21 96 -21q95 0 95 94q0 89 -99 89q-45 0 -80 -13l20 235h221v-58h-165l-11 -113q18 4 39 4q69 0 109 -36.5
t40 -105.5q0 -73 -41 -113.5t-119 -40.5z" />
    <glyph glyph-name="uni2159" unicode="&#x2159;" horiz-adv-x="1003" 
d="M58 219v52h82v287l-76 -39l-20 38l114 87h55v-373h76v-52h-231zM251 0l384 636h77l-384 -636h-77zM744 247q49 36 98 36q55 0 93 -35t38 -103q0 -74 -40 -112.5t-107 -38.5q-74 0 -117 49.5t-43 144.5q0 123 60 189.5t180 87.5l16 -53q-84 -21 -125.5 -56.5t-52.5 -108.5
zM740 197q-1 -7 -1 -23q0 -127 87 -127q76 0 76 93q0 91 -80 91q-40 0 -82 -34z" />
    <glyph glyph-name="uni215A" unicode="&#x215a;" horiz-adv-x="1028" 
d="M143 176q-66 0 -122 28l17 51q47 -21 96 -21q95 0 95 94q0 89 -99 89q-45 0 -80 -13l20 235h221v-58h-165l-11 -113q18 4 39 4q69 0 109 -36.5t40 -105.5q0 -73 -41 -113.5t-119 -40.5zM276 0l384 636h77l-384 -636h-77zM769 247q49 36 98 36q55 0 93 -35t38 -103
q0 -74 -40 -112.5t-107 -38.5q-74 0 -117 49.5t-43 144.5q0 123 60 189.5t180 87.5l16 -53q-84 -21 -125.5 -56.5t-52.5 -108.5zM765 197q-1 -7 -1 -23q0 -127 87 -127q76 0 76 93q0 91 -80 91q-40 0 -82 -34z" />
    <glyph glyph-name="oneeighth" unicode="&#x215b;" horiz-adv-x="1009" 
d="M58 219v52h82v287l-76 -39l-20 38l114 87h55v-373h76v-52h-231zM251 0l384 636h77l-384 -636h-77zM759 233q-75 34 -75 110q0 52 36 84.5t102 32.5q65 0 101.5 -31t36.5 -82q0 -72 -78 -106q49 -23 72 -49t23 -72q0 -61 -41 -93.5t-115 -32.5q-73 0 -113 32t-40 93
q0 78 91 114zM811 210q-74 -31 -74 -89q0 -76 86 -76q39 0 61.5 19.5t22.5 53.5q0 29 -15.5 47.5t-53.5 33.5zM827 262q65 26 65 81q0 65 -70 65q-32 0 -50.5 -16.5t-18.5 -46.5q0 -53 58 -77z" />
    <glyph glyph-name="threeeighths" unicode="&#x215c;" horiz-adv-x="1048" 
d="M155 175q-70 0 -128 27l16 52q55 -21 103 -21q95 0 95 83q0 81 -90 81h-40v53h36q81 0 81 70q0 67 -75 67q-44 0 -92 -25l-20 50q56 33 124 33q62 0 98 -32t36 -84q0 -77 -71 -103q87 -22 87 -115q0 -63 -41.5 -99.5t-118.5 -36.5zM290 0l384 636h77l-384 -636h-77z
M798 233q-75 34 -75 110q0 52 36 84.5t102 32.5q65 0 101.5 -31t36.5 -82q0 -72 -78 -106q49 -23 72 -49t23 -72q0 -61 -41 -93.5t-115 -32.5q-73 0 -113 32t-40 93q0 78 91 114zM850 210q-74 -31 -74 -89q0 -76 86 -76q39 0 61.5 19.5t22.5 53.5q0 29 -15.5 47.5
t-53.5 33.5zM866 262q65 26 65 81q0 65 -70 65q-32 0 -50.5 -16.5t-18.5 -46.5q0 -53 58 -77z" />
    <glyph glyph-name="fiveeighths" unicode="&#x215d;" horiz-adv-x="1034" 
d="M143 176q-66 0 -122 28l17 51q47 -21 96 -21q95 0 95 94q0 89 -99 89q-45 0 -80 -13l20 235h221v-58h-165l-11 -113q18 4 39 4q69 0 109 -36.5t40 -105.5q0 -73 -41 -113.5t-119 -40.5zM276 0l384 636h77l-384 -636h-77zM784 233q-75 34 -75 110q0 52 36 84.5t102 32.5
q65 0 101.5 -31t36.5 -82q0 -72 -78 -106q49 -23 72 -49t23 -72q0 -61 -41 -93.5t-115 -32.5q-73 0 -113 32t-40 93q0 78 91 114zM836 210q-74 -31 -74 -89q0 -76 86 -76q39 0 61.5 19.5t22.5 53.5q0 29 -15.5 47.5t-53.5 33.5zM852 262q65 26 65 81q0 65 -70 65
q-32 0 -50.5 -16.5t-18.5 -46.5q0 -53 58 -77z" />
    <glyph glyph-name="seveneighths" unicode="&#x215e;" horiz-adv-x="1019" 
d="M153 175l-72 10q22 244 159 395h-208v59h273v-63q-56 -63 -100 -166.5t-52 -234.5zM261 0l384 636h77l-384 -636h-77zM769 233q-75 34 -75 110q0 52 36 84.5t102 32.5q65 0 101.5 -31t36.5 -82q0 -72 -78 -106q49 -23 72 -49t23 -72q0 -61 -41 -93.5t-115 -32.5
q-73 0 -113 32t-40 93q0 78 91 114zM821 210q-74 -31 -74 -89q0 -76 86 -76q39 0 61.5 19.5t22.5 53.5q0 29 -15.5 47.5t-53.5 33.5zM837 262q65 26 65 81q0 65 -70 65q-32 0 -50.5 -16.5t-18.5 -46.5q0 -53 58 -77z" />
    <glyph glyph-name="uni215F" unicode="&#x215f;" horiz-adv-x="637" 
d="M58 219v52h82v287l-76 -39l-20 38l114 87h55v-373h76v-52h-231zM251 0l384 636h77l-384 -636h-77z" />
    <glyph glyph-name="uni2189" unicode="&#x2189;" horiz-adv-x="1052" 
d="M188 213q-163 0 -163 214q0 219 163 219t163 -219q0 -214 -163 -214zM188 267q48 0 68.5 38.5t20.5 123.5q0 83 -21 122.5t-68 39.5t-68.5 -40t-21.5 -123q0 -84 20.5 -122.5t69.5 -38.5zM300 0l384 636h77l-384 -636h-77zM841 -44q-70 0 -128 27l16 52q55 -21 103 -21
q95 0 95 83q0 81 -90 81h-40v53h36q81 0 81 70q0 67 -75 67q-44 0 -92 -25l-20 50q56 33 124 33q62 0 98 -32t36 -84q0 -77 -71 -103q87 -22 87 -115q0 -63 -41.5 -99.5t-118.5 -36.5z" />
    <glyph glyph-name="arrowleft" unicode="&#x2190;" horiz-adv-x="730" 
d="M203 378h472v-76h-473l246 -268l-50 -54l-347 359l347 359l50 -54z" />
    <glyph glyph-name="arrowup" unicode="&#x2191;" horiz-adv-x="768" 
d="M345 528l-268 -240l-52 52l359 346l359 -346l-54 -53l-264 240v-527h-80v528z" />
    <glyph glyph-name="arrowright" unicode="&#x2192;" horiz-adv-x="730" 
d="M51 378h472l-245 266l50 54l347 -359l-347 -359l-50 54l246 268h-473v76z" />
    <glyph glyph-name="arrowdown" unicode="&#x2193;" horiz-adv-x="768" 
d="M77 398l268 -240v528h80v-527l264 240l54 -53l-359 -346l-359 346z" />
    <glyph glyph-name="uni2196" unicode="&#x2196;" horiz-adv-x="730" 
d="M204 458l-17 -385h-76l9 522l523 10v-71l-388 -15l373 -372l-57 -57z" />
    <glyph glyph-name="uni2197" unicode="&#x2197;" horiz-adv-x="730" 
d="M543 73l-17 385l-367 -368l-57 57l373 372l-388 15v71l523 -10l9 -522h-76z" />
    <glyph glyph-name="uni2198" unicode="&#x2198;" horiz-adv-x="730" 
d="M526 222l17 385h76l-9 -522l-523 -10v71l388 15l-373 372l57 57z" />
    <glyph glyph-name="uni2199" unicode="&#x2199;" horiz-adv-x="730" 
d="M187 607l17 -385l367 368l57 -57l-373 -372l388 -15v-71l-523 10l-9 522h76z" />
    <glyph glyph-name="uni21B0" unicode="&#x21b0;" horiz-adv-x="826" 
d="M411 609l-205 -229h539v-380h-74v304h-466l207 -225l-51 -55l-306 319l306 319z" />
    <glyph glyph-name="uni21B1" unicode="&#x21b1;" horiz-adv-x="826" 
d="M624 380l-205 229l50 53l306 -319l-306 -319l-51 55l207 225h-466v-304h-74v380h539z" />
    <glyph glyph-name="uni21B2" unicode="&#x21b2;" horiz-adv-x="768" 
d="M391 609l-205 -229h441v288h74v-364h-516l207 -225l-51 -55l-306 319l306 319z" />
    <glyph glyph-name="uni21B3" unicode="&#x21b3;" horiz-adv-x="768" 
d="M570 380l-205 229l50 53l306 -319l-306 -319l-51 55l207 225h-516v364h74v-288h441z" />
    <glyph glyph-name="uni21B4" unicode="&#x21b4;" horiz-adv-x="768" 
d="M117 358l228 -200v429h-292v76h372v-504l224 200l54 -53l-319 -306l-319 306z" />
    <glyph glyph-name="carriagereturn" unicode="&#x21b5;" horiz-adv-x="768" 
d="M391 609l-205 -229h441v288h74v-364h-516l207 -225l-51 -55l-306 319l306 319z" />
    <glyph glyph-name="uni21E0" unicode="&#x21e0;" horiz-adv-x="778" 
d="M279 546q-23 0 -39.5 16.5t-16.5 39.5t16.5 39.5t39.5 16.5t39.5 -16.5t16.5 -39.5t-16.5 -39.5t-39.5 -16.5zM279 26q-23 0 -39.5 16.5t-16.5 39.5t16.5 39.5t39.5 16.5t39.5 -16.5t16.5 -39.5t-16.5 -39.5t-39.5 -16.5zM189 151q-23 0 -39.5 16.5t-16.5 39.5t16.5 39.5
t39.5 16.5t39.5 -16.5t16.5 -39.5t-16.5 -39.5t-39.5 -16.5zM89 286q-23 0 -39.5 16.5t-16.5 39.5t16.5 39.5t39.5 16.5t39.5 -16.5t16.5 -39.5t-16.5 -39.5t-39.5 -16.5zM239 286q-23 0 -39.5 16.5t-16.5 39.5t16.5 39.5t39.5 16.5t39.5 -16.5t16.5 -39.5t-16.5 -39.5
t-39.5 -16.5zM389 286q-23 0 -39.5 16.5t-16.5 39.5t16.5 39.5t39.5 16.5t39.5 -16.5t16.5 -39.5t-16.5 -39.5t-39.5 -16.5zM539 286q-23 0 -39.5 16.5t-16.5 39.5t16.5 39.5t39.5 16.5t39.5 -16.5t16.5 -39.5t-16.5 -39.5t-39.5 -16.5zM689 286q-23 0 -39.5 16.5
t-16.5 39.5t16.5 39.5t39.5 16.5t39.5 -16.5t16.5 -39.5t-16.5 -39.5t-39.5 -16.5zM189 421q-23 0 -39.5 16.5t-16.5 39.5t16.5 39.5t39.5 16.5t39.5 -16.5t16.5 -39.5t-16.5 -39.5t-39.5 -16.5z" />
    <glyph glyph-name="uni21E1" unicode="&#x21e1;" horiz-adv-x="778" 
d="M333 642q0 23 16.5 39.5t39.5 16.5t39.5 -16.5t16.5 -39.5t-16.5 -39.5t-39.5 -16.5t-39.5 16.5t-16.5 39.5zM333 42q0 23 16.5 39.5t39.5 16.5t39.5 -16.5t16.5 -39.5t-16.5 -39.5t-39.5 -16.5t-39.5 16.5t-16.5 39.5zM333 192q0 23 16.5 39.5t39.5 16.5t39.5 -16.5
t16.5 -39.5t-16.5 -39.5t-39.5 -16.5t-39.5 16.5t-16.5 39.5zM333 342q0 23 16.5 39.5t39.5 16.5t39.5 -16.5t16.5 -39.5t-16.5 -39.5t-39.5 -16.5t-39.5 16.5t-16.5 39.5zM83 442q0 23 16.5 39.5t39.5 16.5t39.5 -16.5t16.5 -39.5t-16.5 -39.5t-39.5 -16.5t-39.5 16.5
t-16.5 39.5zM583 442q0 23 16.5 39.5t39.5 16.5t39.5 -16.5t16.5 -39.5t-16.5 -39.5t-39.5 -16.5t-39.5 16.5t-16.5 39.5zM333 492q0 23 16.5 39.5t39.5 16.5t39.5 -16.5t16.5 -39.5t-16.5 -39.5t-39.5 -16.5t-39.5 16.5t-16.5 39.5zM198 542q0 23 16.5 39.5t39.5 16.5
t39.5 -16.5t16.5 -39.5t-16.5 -39.5t-39.5 -16.5t-39.5 16.5t-16.5 39.5zM468 542q0 23 16.5 39.5t39.5 16.5t39.5 -16.5t16.5 -39.5t-16.5 -39.5t-39.5 -16.5t-39.5 16.5t-16.5 39.5z" />
    <glyph glyph-name="uni21E2" unicode="&#x21e2;" horiz-adv-x="778" 
d="M499 658q23 0 39.5 -16.5t16.5 -39.5t-16.5 -39.5t-39.5 -16.5t-39.5 16.5t-16.5 39.5t16.5 39.5t39.5 16.5zM499 138q23 0 39.5 -16.5t16.5 -39.5t-16.5 -39.5t-39.5 -16.5t-39.5 16.5t-16.5 39.5t16.5 39.5t39.5 16.5zM589 263q23 0 39.5 -16.5t16.5 -39.5t-16.5 -39.5
t-39.5 -16.5t-39.5 16.5t-16.5 39.5t16.5 39.5t39.5 16.5zM89 398q23 0 39.5 -16.5t16.5 -39.5t-16.5 -39.5t-39.5 -16.5t-39.5 16.5t-16.5 39.5t16.5 39.5t39.5 16.5zM239 398q23 0 39.5 -16.5t16.5 -39.5t-16.5 -39.5t-39.5 -16.5t-39.5 16.5t-16.5 39.5t16.5 39.5
t39.5 16.5zM389 398q23 0 39.5 -16.5t16.5 -39.5t-16.5 -39.5t-39.5 -16.5t-39.5 16.5t-16.5 39.5t16.5 39.5t39.5 16.5zM539 398q23 0 39.5 -16.5t16.5 -39.5t-16.5 -39.5t-39.5 -16.5t-39.5 16.5t-16.5 39.5t16.5 39.5t39.5 16.5zM689 398q23 0 39.5 -16.5t16.5 -39.5
t-16.5 -39.5t-39.5 -16.5t-39.5 16.5t-16.5 39.5t16.5 39.5t39.5 16.5zM589 533q23 0 39.5 -16.5t16.5 -39.5t-16.5 -39.5t-39.5 -16.5t-39.5 16.5t-16.5 39.5t16.5 39.5t39.5 16.5z" />
    <glyph glyph-name="uni21E3" unicode="&#x21e3;" horiz-adv-x="778" 
d="M445 642q0 -23 -16.5 -39.5t-39.5 -16.5t-39.5 16.5t-16.5 39.5t16.5 39.5t39.5 16.5t39.5 -16.5t16.5 -39.5zM445 42q0 -23 -16.5 -39.5t-39.5 -16.5t-39.5 16.5t-16.5 39.5t16.5 39.5t39.5 16.5t39.5 -16.5t16.5 -39.5zM310 142q0 -23 -16.5 -39.5t-39.5 -16.5
t-39.5 16.5t-16.5 39.5t16.5 39.5t39.5 16.5t39.5 -16.5t16.5 -39.5zM580 142q0 -23 -16.5 -39.5t-39.5 -16.5t-39.5 16.5t-16.5 39.5t16.5 39.5t39.5 16.5t39.5 -16.5t16.5 -39.5zM445 192q0 -23 -16.5 -39.5t-39.5 -16.5t-39.5 16.5t-16.5 39.5t16.5 39.5t39.5 16.5
t39.5 -16.5t16.5 -39.5zM195 242q0 -23 -16.5 -39.5t-39.5 -16.5t-39.5 16.5t-16.5 39.5t16.5 39.5t39.5 16.5t39.5 -16.5t16.5 -39.5zM695 242q0 -23 -16.5 -39.5t-39.5 -16.5t-39.5 16.5t-16.5 39.5t16.5 39.5t39.5 16.5t39.5 -16.5t16.5 -39.5zM445 342
q0 -23 -16.5 -39.5t-39.5 -16.5t-39.5 16.5t-16.5 39.5t16.5 39.5t39.5 16.5t39.5 -16.5t16.5 -39.5zM445 492q0 -23 -16.5 -39.5t-39.5 -16.5t-39.5 16.5t-16.5 39.5t16.5 39.5t39.5 16.5t39.5 -16.5t16.5 -39.5z" />
    <glyph glyph-name="partialdiff" unicode="&#x2202;" horiz-adv-x="518" 
d="M240 514q74 0 117 -50q-24 83 -79 141.5t-146 117.5l30 52q151 -73 226 -190.5t75 -310.5q0 -287 -204 -287q-96 0 -150.5 64t-54.5 200q0 135 50.5 199t135.5 64zM259 55q60 0 86 42t26 153q0 112 -26.5 154t-86.5 42q-62 0 -87 -40.5t-25 -154.5q0 -111 26.5 -153.5
t86.5 -42.5z" />
    <glyph glyph-name="Delta" unicode="&#x2206;" horiz-adv-x="579" 
d="M28 0l213 690h102l207 -690h-522zM146 78h282l-89 319q-32 114 -48 199h-2q-14 -77 -50 -199z" />
    <glyph glyph-name="product" unicode="&#x220f;" horiz-adv-x="633" 
d="M129 -211v820h-89v80h552v-80h-89v-820h-92v820h-190v-820h-92z" />
    <glyph glyph-name="summation" unicode="&#x2211;" horiz-adv-x="517" 
d="M65 -211v84l189 371l-189 373v72h385v-79h-274l182 -363l-197 -378h298v-80h-394z" />
    <glyph glyph-name="minus" unicode="&#x2212;" horiz-adv-x="549" 
d="M73 255v75h402v-75h-402z" />
    <glyph glyph-name="uni2219" unicode="&#x2219;" horiz-adv-x="549" 
d="M274 214q-49 0 -80.5 35t-31.5 86t31.5 86t80.5 35t80.5 -35t31.5 -86t-31.5 -86t-80.5 -35z" />
    <glyph glyph-name="radical" unicode="&#x221a;" horiz-adv-x="555" 
d="M227 0l-116 295h-65v78h129l34 -89q41 -110 56 -161h2q11 42 45 162l117 404h93l-205 -689h-90z" />
    <glyph glyph-name="infinity" unicode="&#x221e;" horiz-adv-x="622" 
d="M171 90q-53 0 -89 43t-36 121q0 88 35 130t94 42q68 0 136 -104q70 104 139 104q53 0 89 -43t36 -121q0 -88 -35 -130t-94 -42q-40 0 -71.5 27.5t-63.5 76.5q-70 -104 -140 -104zM175 166q24 0 46 23.5t50 68.5q-27 44 -49 68t-47 24q-48 0 -48 -95q0 -89 48 -89z
M446 166q48 0 48 95q0 89 -48 89q-23 0 -45 -23.5t-51 -69.5q28 -45 49.5 -68t46.5 -23z" />
    <glyph glyph-name="integral" unicode="&#x222b;" horiz-adv-x="309" 
d="M62 -211q-63 0 -104 27l30 67q36 -19 62 -19q31 0 45 17.5t14 56.5v615q0 149 137 149q63 0 104 -27l-30 -67q-36 19 -62 19q-31 0 -45 -17.5t-14 -56.5v-615q0 -149 -137 -149z" />
    <glyph glyph-name="approxequal" unicode="&#x2248;" horiz-adv-x="545" 
d="M130 325l-56 33q48 103 126 103q32 0 80 -22t69 -22q30 0 65 53l56 -33q-47 -103 -126 -103q-32 0 -80 22t-69 22q-30 0 -65 -53zM130 139l-56 33q48 103 126 103q32 0 80 -22t69 -22q30 0 65 53l56 -33q-47 -103 -126 -103q-32 0 -80 22t-69 22q-30 0 -65 -53z" />
    <glyph glyph-name="notequal" unicode="&#x2260;" horiz-adv-x="551" 
d="M74 355v75h213l55 140l70 -25l-45 -115h109v-75h-138l-49 -125h187v-75h-216l-54 -140l-69 26l44 114h-107v75h136l48 125h-184z" />
    <glyph glyph-name="lessequal" unicode="&#x2264;" horiz-adv-x="398" 
d="M304 151l-247 155v52l247 155l35 -63l-191 -118l191 -118zM63 30v75h282v-75h-282z" />
    <glyph glyph-name="greaterequal" unicode="&#x2265;" horiz-adv-x="398" 
d="M93 151l-35 63l191 118l-191 118l35 63l247 -155v-52zM52 30v75h282v-75h-282z" />
    <glyph glyph-name="dotmath" unicode="&#x22c5;" horiz-adv-x="549" 
d="M274 265q-29 0 -48.5 20t-19.5 49t19.5 49t48.5 20t48.5 -20t19.5 -49t-19.5 -49t-48.5 -20z" />
    <glyph glyph-name="H18543" unicode="&#x25aa;" horiz-adv-x="498" 
d="M75 502h348v-358h-348v358z" />
    <glyph glyph-name="H18551" unicode="&#x25ab;" horiz-adv-x="498" 
d="M75 502h348v-358h-348v358zM138 203h222v240h-222v-240z" />
    <glyph glyph-name="triagup" unicode="&#x25b2;" horiz-adv-x="562" 
d="M510 116h-458l230 434z" />
    <glyph glyph-name="uni25B3" unicode="&#x25b3;" horiz-adv-x="562" 
d="M510 116h-458l228 434h2zM281 424l-122 -243h244z" />
    <glyph glyph-name="uni25B4" unicode="&#x25b4;" horiz-adv-x="542" 
d="M470 56h-398l198 414h2z" />
    <glyph glyph-name="uni25B5" unicode="&#x25b5;" horiz-adv-x="542" 
d="M470 56h-398l198 414h2zM271 340l-104 -217h208z" />
    <glyph glyph-name="uni25B6" unicode="&#x25b6;" horiz-adv-x="562" 
d="M75 104v458l434 -228z" />
    <glyph glyph-name="uni25B7" unicode="&#x25b7;" horiz-adv-x="562" 
d="M75 104v458l434 -228v-2zM140 211l243 122l-243 122v-244z" />
    <glyph glyph-name="uni25B8" unicode="&#x25b8;" horiz-adv-x="542" 
d="M75 64v398l414 -198v-2z" />
    <glyph glyph-name="uni25B9" unicode="&#x25b9;" horiz-adv-x="542" 
d="M75 64v398l414 -198v-2zM359 263l-217 104v-208z" />
    <glyph glyph-name="triagdn" unicode="&#x25bc;" horiz-adv-x="562" 
d="M52 550h458l-228 -434z" />
    <glyph glyph-name="uni25BD" unicode="&#x25bd;" horiz-adv-x="562" 
d="M52 550h458l-228 -434h-2zM159 485l122 -243l122 243h-244z" />
    <glyph glyph-name="uni25BE" unicode="&#x25be;" horiz-adv-x="542" 
d="M72 490h398l-198 -414h-2z" />
    <glyph glyph-name="uni25BF" unicode="&#x25bf;" horiz-adv-x="542" 
d="M72 490h398l-198 -414h-2zM167 423l104 -217l104 217h-208z" />
    <glyph glyph-name="uni25C0" unicode="&#x25c0;" horiz-adv-x="562" 
d="M487 562v-458l-434 228v2z" />
    <glyph glyph-name="uni25C1" unicode="&#x25c1;" horiz-adv-x="562" 
d="M487 562v-458l-434 228v2zM422 455l-243 -122l243 -122v244z" />
    <glyph glyph-name="uni25C2" unicode="&#x25c2;" horiz-adv-x="542" 
d="M467 462v-398l-414 198v2z" />
    <glyph glyph-name="lozenge" unicode="&#x25ca;" horiz-adv-x="582" 
d="M255 0l-204 345l199 344h76l204 -345l-199 -344h-76zM293 74h1q13 38 37 83l104 191l-110 190q-22 39 -37 83h-1q-15 -44 -36 -83l-105 -191l108 -190q25 -45 39 -83z" />
    <glyph glyph-name="uniFB00" unicode="&#xfb00;" horiz-adv-x="573" 
d="M35 431v70h55v70q0 80 35.5 114.5t91.5 34.5q58 0 96 -23l-29 -67q-27 14 -55 14q-53 0 -53 -72v-71h182v80q0 149 133 149q63 0 104 -27l-30 -65q-31 16 -62 16t-45 -17t-14 -55v-81h94v-70h-94v-431h-86v431h-182v-431h-86v431h-55z" />
    <glyph glyph-name="fi" unicode="&#xfb01;" horiz-adv-x="529" 
d="M358 0v431h-182v-431h-86v431h-55v70h55v61q0 84 44.5 126t120.5 42q75 0 131 -32l-32 -71q-43 23 -87 23q-50 0 -70.5 -19t-20.5 -68v-62h268v-501h-86z" />
    <glyph glyph-name="fl" unicode="&#xfb02;" horiz-adv-x="542" 
d="M449 -10q-48 0 -69.5 28t-21.5 94v535q-32 8 -74 8q-55 0 -81.5 -22t-26.5 -70v-62h104v-70h-104v-431h-86v431h-55v70h55v61q0 83 50.5 125.5t131.5 42.5q49 0 89 -6h83v-628q0 -35 35 -35q10 0 20 2l12 -62q-27 -11 -62 -11z" />
    <glyph glyph-name="uniFB03" unicode="&#xfb03;" horiz-adv-x="797" 
d="M358 0v431h-182v-431h-86v431h-55v70h55v70q0 80 35.5 114.5t91.5 34.5q58 0 96 -23l-29 -67q-27 14 -55 14q-53 0 -53 -72v-71h182v61q0 84 44.5 126t120.5 42q75 0 131 -32l-32 -71q-43 23 -87 23q-50 0 -70.5 -19t-20.5 -68v-62h268v-501h-86v431h-182v-431h-86z" />
    <glyph glyph-name="uniFB04" unicode="&#xfb04;" horiz-adv-x="810" 
d="M358 0v431h-182v-431h-86v431h-55v70h55v70q0 80 35.5 114.5t91.5 34.5q58 0 96 -23l-29 -67q-27 14 -55 14q-53 0 -53 -72v-71h182v61q0 83 50.5 125.5t131.5 42.5q49 0 89 -6h83v-628q0 -35 35 -35q12 0 20 2l12 -62q-27 -11 -62 -11q-48 0 -69.5 28t-21.5 94v535
q-32 8 -74 8q-55 0 -81.5 -22t-26.5 -70v-62h104v-70h-104v-431h-86z" />
    <glyph glyph-name="uniFB05" unicode="&#xfb05;" horiz-adv-x="594" 
d="M176 523v-523h-86v533q0 95 47.5 146t132.5 51q83 0 128.5 -37.5t45.5 -106.5v-85h103v-70h-103v-329q0 -46 41 -46q18 0 55 14l17 -64q-40 -19 -79 -19q-120 0 -120 107v337h-57v70h57v87q0 41 -21 58t-67 17q-52 0 -73 -34t-21 -106z" />
    <glyph glyph-name="uniFB06" unicode="&#xfb06;" horiz-adv-x="766" 
d="M203 -13q-48 0 -93 15.5t-73 38.5l36 64q67 -46 134 -46q49 0 69 18.5t20 55.5q0 40 -20.5 55.5t-85.5 33.5q-60 16 -94 51t-34 104q0 59 39.5 98t117.5 39q24 0 37 -4q-28 34 -28 82q0 15 7.5 34.5t24.5 42.5t52 38.5t82 15.5q42 0 79 -10t70.5 -33t53 -65.5
t19.5 -101.5v-12h103v-70h-103v-329q0 -46 41 -46q18 0 55 14l17 -64q-40 -19 -79 -19q-120 0 -120 107v337h-57v70h57q0 50 -13 84.5t-34.5 50.5t-43 22.5t-45.5 6.5q-33 0 -55.5 -9t-32 -24t-13 -26.5t-3.5 -23.5q0 -41 17 -64t49 -42l-28 -63q-56 28 -106 28
q-79 0 -79 -62q0 -34 18 -48.5t72 -29.5q34 -9 56.5 -19t45 -28t34 -47t11.5 -70q0 -77 -44 -113.5t-133 -36.5z" />
    <glyph glyph-name="registered.alt001" horiz-adv-x="746" 
d="M373 -17q-144 0 -232 101.5t-88 270.5t88 270.5t232 101.5t232 -101.5t88 -270.5t-88 -270.5t-232 -101.5zM373 31q121 0 192 88t71 236t-71 235.5t-192 87.5q-122 0 -192 -87.5t-70 -235.5t70.5 -236t191.5 -88zM246 151v412h123q137 0 137 -116q0 -48 -18.5 -73
t-56.5 -35q33 -12 53 -73l37 -115h-80l-36 117q-10 32 -22 43.5t-35 11.5h-28v-172h-74zM320 380h50q32 0 45 15t13 49q0 30 -13 43.5t-45 13.5h-50v-121z" />
    <glyph glyph-name="arrowleft.alt003" horiz-adv-x="730" 
d="M427 295v-191l-376 229l376 229v-191h248v-76h-248z" />
    <glyph glyph-name="arrowleft.alt004" horiz-adv-x="730" 
d="M427 235v-181l-376 219l376 219v-181h248v-76h-248z" />
    <glyph glyph-name="arrowright.alt003" horiz-adv-x="730" 
d="M303 104v191h-248v76h248v191l376 -229z" />
    <glyph glyph-name="arrowright.alt004" horiz-adv-x="730" 
d="M303 54v181h-248v76h248v181l376 -219z" />
    <glyph glyph-name="comma.subs" horiz-adv-x="154" 
d="M42 -225l-10 32q39 12 41 41q-18 2 -29.5 12.5t-11.5 29.5q0 18 13 30.5t31 12.5q19 0 33 -15t14 -41q0 -84 -81 -102z" />
    <glyph glyph-name="period.subs" horiz-adv-x="154" 
d="M77 -155q-18 0 -31.5 13t-13.5 31t13.5 31t31.5 13t31 -13t13 -31q0 -19 -13 -31.5t-31 -12.5z" />
    <glyph glyph-name="colon.subs" horiz-adv-x="161" 
d="M80 20q-18 0 -31 13t-13 32q0 18 13 31t31 13q19 0 32 -13t13 -31q0 -19 -13 -32t-32 -13zM80 -155q-18 0 -31 12.5t-13 31.5q0 18 13 31t31 13q19 0 32 -13t13 -31q0 -19 -13 -31.5t-32 -12.5z" />
    <glyph glyph-name="bracketleft.subs" horiz-adv-x="205" 
d="M45 -252v584h136v-52h-67v-480h67v-52h-136z" />
    <glyph glyph-name="bracketright.subs" horiz-adv-x="205" 
d="M24 -252v52h67v480h-67v52h135v-584h-135z" />
    <glyph glyph-name="multiply.subs" horiz-adv-x="330" 
d="M86 -88l-42 43l78 87l-78 88l43 43l78 -86l79 86l42 -43l-79 -87l79 -87l-44 -44l-78 86z" />
    <glyph glyph-name="comma.sups" horiz-adv-x="154" 
d="M42 144l-10 32q39 12 41 41q-18 2 -29.5 12.5t-11.5 29.5q0 18 13 30.5t31 12.5q19 0 33 -15t14 -41q0 -84 -81 -102z" />
    <glyph glyph-name="period.sups" horiz-adv-x="154" 
d="M77 214q-18 0 -31.5 13t-13.5 31t13.5 31t31.5 13t31 -13t13 -31q0 -19 -13 -31.5t-31 -12.5z" />
    <glyph glyph-name="colon.sups" horiz-adv-x="161" 
d="M80 389q-18 0 -31 13t-13 32q0 18 13 31t31 13q19 0 32 -13t13 -31q0 -19 -13 -32t-32 -13zM80 214q-18 0 -31 12.5t-13 31.5q0 18 13 31t31 13q19 0 32 -13t13 -31q0 -19 -13 -31.5t-32 -12.5z" />
    <glyph glyph-name="bracketleft.sups" horiz-adv-x="205" 
d="M45 117v584h136v-52h-67v-480h67v-52h-136z" />
    <glyph glyph-name="bracketright.sups" horiz-adv-x="205" 
d="M24 117v52h67v480h-67v52h135v-584h-135z" />
    <glyph glyph-name="multiply.sups" horiz-adv-x="330" 
d="M86 281l-42 43l78 87l-78 88l43 43l78 -86l79 86l42 -43l-79 -87l79 -87l-44 -44l-78 86z" />
    <glyph glyph-name="parenleft.numr" horiz-adv-x="218" 
d="M181 114q-78 32 -113 104t-35 203q0 132 34.5 204t113.5 103l19 -48q-52 -31 -73 -85.5t-21 -174.5q0 -119 21.5 -173.5t72.5 -84.5z" />
    <glyph glyph-name="parenright.numr" horiz-adv-x="218" 
d="M37 114l-19 48q51 31 72.5 85.5t21.5 173.5q0 120 -21.5 174.5t-72.5 84.5l19 48q78 -32 112.5 -104t34.5 -203q0 -132 -34.5 -204t-112.5 -103z" />
    <glyph glyph-name="plus.numr" horiz-adv-x="347" 
d="M140 270v111h-101v62h101v113h67v-113h101v-62h-101v-111h-67z" />
    <glyph glyph-name="comma.numr" horiz-adv-x="154" 
d="M42 144l-10 32q39 12 41 41q-18 2 -29.5 12.5t-11.5 29.5q0 18 13 30.5t31 12.5q19 0 33 -15t14 -41q0 -84 -81 -102z" />
    <glyph glyph-name="period.numr" horiz-adv-x="154" 
d="M77 214q-18 0 -31.5 13t-13.5 31t13.5 31t31.5 13t31 -13t13 -31q0 -19 -13 -31.5t-31 -12.5z" />
    <glyph glyph-name="zero.numr" horiz-adv-x="376" 
d="M188 213q-163 0 -163 214q0 219 163 219t163 -219q0 -214 -163 -214zM188 267q48 0 68.5 38.5t20.5 123.5q0 83 -21 122.5t-68 39.5t-68.5 -40t-21.5 -123q0 -84 20.5 -122.5t69.5 -38.5z" />
    <glyph glyph-name="one.numr" horiz-adv-x="327" 
d="M58 219v52h82v287l-76 -39l-20 38l114 87h55v-373h76v-52h-231z" />
    <glyph glyph-name="two.numr" horiz-adv-x="361" 
d="M52 219v60q111 89 148 137.5t37 96.5q0 72 -71 72q-43 0 -94 -27l-23 52q61 35 124 35t100.5 -33.5t37.5 -94.5q0 -58 -39 -112t-138 -129h183v-57h-265z" />
    <glyph glyph-name="three.numr" horiz-adv-x="366" 
d="M155 175q-70 0 -128 27l16 52q55 -21 103 -21q95 0 95 83q0 81 -90 81h-40v53h36q81 0 81 70q0 67 -75 67q-44 0 -92 -25l-20 50q56 33 124 33q62 0 98 -32t36 -84q0 -77 -71 -103q87 -22 87 -115q0 -63 -41.5 -99.5t-118.5 -36.5z" />
    <glyph glyph-name="four.numr" horiz-adv-x="375" 
d="M242 278h-221v63l129 296h73l-131 -300h150v173l71 12v-185h48v-59h-48v-95h-71v95z" />
    <glyph glyph-name="five.numr" horiz-adv-x="352" 
d="M143 176q-66 0 -122 28l17 51q47 -21 96 -21q95 0 95 94q0 89 -99 89q-45 0 -80 -13l20 235h221v-58h-165l-11 -113q18 4 39 4q69 0 109 -36.5t40 -105.5q0 -73 -41 -113.5t-119 -40.5z" />
    <glyph glyph-name="six.numr" horiz-adv-x="366" 
d="M107 466q49 36 98 36q55 0 93 -35t38 -103q0 -74 -40 -112.5t-107 -38.5q-74 0 -117 49.5t-43 144.5q0 123 60 189.5t180 87.5l16 -53q-84 -21 -125.5 -56.5t-52.5 -108.5zM103 416q-1 -7 -1 -23q0 -127 87 -127q76 0 76 93q0 91 -80 91q-40 0 -82 -34z" />
    <glyph glyph-name="seven.numr" horiz-adv-x="337" 
d="M153 175l-72 10q22 244 159 395h-208v59h273v-63q-56 -63 -100 -166.5t-52 -234.5z" />
    <glyph glyph-name="eight.numr" horiz-adv-x="372" 
d="M122 452q-75 34 -75 110q0 52 36 84.5t102 32.5q65 0 101.5 -31t36.5 -82q0 -72 -78 -106q49 -23 72 -49t23 -72q0 -61 -41 -93.5t-115 -32.5q-73 0 -113 32t-40 93q0 78 91 114zM174 429q-74 -31 -74 -89q0 -76 86 -76q39 0 61.5 19.5t22.5 53.5q0 29 -15.5 47.5
t-53.5 33.5zM190 481q65 26 65 81q0 65 -70 65q-32 0 -50.5 -16.5t-18.5 -46.5q0 -53 58 -77z" />
    <glyph glyph-name="nine.numr" horiz-adv-x="366" 
d="M258 389q-42 -36 -94 -36q-56 0 -95 36.5t-39 104.5q0 74 40.5 113t107.5 39q74 0 116.5 -49.5t42.5 -145.5q0 -236 -245 -277l-16 52q86 22 128.5 57.5t53.5 105.5zM263 437v27q0 129 -85 129q-37 0 -57.5 -24t-20.5 -69q0 -47 22.5 -71.5t61.5 -24.5q42 0 79 33z" />
    <glyph glyph-name="colon.numr" horiz-adv-x="161" 
d="M80 389q-18 0 -31 13t-13 32q0 18 13 31t31 13q19 0 32 -13t13 -31q0 -19 -13 -32t-32 -13zM80 214q-18 0 -31 12.5t-13 31.5q0 18 13 31t31 13q19 0 32 -13t13 -31q0 -19 -13 -31.5t-32 -12.5z" />
    <glyph glyph-name="equal.numr" horiz-adv-x="350" 
d="M39 444v62h271v-62h-271zM39 317v62h271v-62h-271z" />
    <glyph glyph-name="bracketleft.numr" horiz-adv-x="205" 
d="M45 117v584h136v-52h-67v-480h67v-52h-136z" />
    <glyph glyph-name="bracketright.numr" horiz-adv-x="205" 
d="M24 117v52h67v480h-67v52h135v-584h-135z" />
    <glyph glyph-name="multiply.numr" horiz-adv-x="330" 
d="M86 281l-42 43l78 87l-78 88l43 43l78 -86l79 86l42 -43l-79 -87l79 -87l-44 -44l-78 86z" />
    <glyph glyph-name="minus.numr" horiz-adv-x="347" 
d="M39 381v62h269v-62h-269z" />
    <glyph glyph-name="parenleft.dnom" horiz-adv-x="218" 
d="M181 -105q-78 32 -113 104t-35 203q0 132 34.5 204t113.5 103l19 -48q-52 -31 -73 -85.5t-21 -174.5q0 -119 21.5 -173.5t72.5 -84.5z" />
    <glyph glyph-name="parenright.dnom" horiz-adv-x="218" 
d="M37 -105l-19 48q51 31 72.5 85.5t21.5 173.5q0 120 -21.5 174.5t-72.5 84.5l19 48q78 -32 112.5 -104t34.5 -203q0 -132 -34.5 -204t-112.5 -103z" />
    <glyph glyph-name="plus.dnom" horiz-adv-x="347" 
d="M140 51v111h-101v62h101v113h67v-113h101v-62h-101v-111h-67z" />
    <glyph glyph-name="comma.dnom" horiz-adv-x="154" 
d="M42 -75l-10 32q39 12 41 41q-18 2 -29.5 12.5t-11.5 29.5q0 18 13 30.5t31 12.5q19 0 33 -15t14 -41q0 -84 -81 -102z" />
    <glyph glyph-name="period.dnom" horiz-adv-x="154" 
d="M77 -5q-18 0 -31.5 13t-13.5 31t13.5 31t31.5 13t31 -13t13 -31q0 -19 -13 -31.5t-31 -12.5z" />
    <glyph glyph-name="zero.dnom" horiz-adv-x="376" 
d="M188 -6q-163 0 -163 214q0 219 163 219t163 -219q0 -214 -163 -214zM188 48q48 0 68.5 38.5t20.5 123.5q0 83 -21 122.5t-68 39.5t-68.5 -40t-21.5 -123q0 -84 20.5 -122.5t69.5 -38.5z" />
    <glyph glyph-name="one.dnom" horiz-adv-x="327" 
d="M58 0v52h82v287l-76 -39l-20 38l114 87h55v-373h76v-52h-231z" />
    <glyph glyph-name="two.dnom" horiz-adv-x="361" 
d="M52 0v60q111 89 148 137.5t37 96.5q0 72 -71 72q-43 0 -94 -27l-23 52q61 35 124 35t100.5 -33.5t37.5 -94.5q0 -58 -39 -112t-138 -129h183v-57h-265z" />
    <glyph glyph-name="three.dnom" horiz-adv-x="366" 
d="M155 -44q-70 0 -128 27l16 52q55 -21 103 -21q95 0 95 83q0 81 -90 81h-40v53h36q81 0 81 70q0 67 -75 67q-44 0 -92 -25l-20 50q56 33 124 33q62 0 98 -32t36 -84q0 -77 -71 -103q87 -22 87 -115q0 -63 -41.5 -99.5t-118.5 -36.5z" />
    <glyph glyph-name="four.dnom" horiz-adv-x="375" 
d="M242 59h-221v63l129 296h73l-131 -300h150v173l71 12v-185h48v-59h-48v-95h-71v95z" />
    <glyph glyph-name="five.dnom" horiz-adv-x="352" 
d="M143 -43q-66 0 -122 28l17 51q47 -21 96 -21q95 0 95 94q0 89 -99 89q-45 0 -80 -13l20 235h221v-58h-165l-11 -113q18 4 39 4q69 0 109 -36.5t40 -105.5q0 -73 -41 -113.5t-119 -40.5z" />
    <glyph glyph-name="six.dnom" horiz-adv-x="366" 
d="M107 247q49 36 98 36q55 0 93 -35t38 -103q0 -74 -40 -112.5t-107 -38.5q-74 0 -117 49.5t-43 144.5q0 123 60 189.5t180 87.5l16 -53q-84 -21 -125.5 -56.5t-52.5 -108.5zM103 197q-1 -7 -1 -23q0 -127 87 -127q76 0 76 93q0 91 -80 91q-40 0 -82 -34z" />
    <glyph glyph-name="seven.dnom" horiz-adv-x="337" 
d="M153 -44l-72 10q22 244 159 395h-208v59h273v-63q-56 -63 -100 -166.5t-52 -234.5z" />
    <glyph glyph-name="eight.dnom" horiz-adv-x="372" 
d="M122 233q-75 34 -75 110q0 52 36 84.5t102 32.5q65 0 101.5 -31t36.5 -82q0 -72 -78 -106q49 -23 72 -49t23 -72q0 -61 -41 -93.5t-115 -32.5q-73 0 -113 32t-40 93q0 78 91 114zM174 210q-74 -31 -74 -89q0 -76 86 -76q39 0 61.5 19.5t22.5 53.5q0 29 -15.5 47.5
t-53.5 33.5zM190 262q65 26 65 81q0 65 -70 65q-32 0 -50.5 -16.5t-18.5 -46.5q0 -53 58 -77z" />
    <glyph glyph-name="nine.dnom" horiz-adv-x="366" 
d="M258 170q-42 -36 -94 -36q-56 0 -95 36.5t-39 104.5q0 74 40.5 113t107.5 39q74 0 116.5 -49.5t42.5 -145.5q0 -236 -245 -277l-16 52q86 22 128.5 57.5t53.5 105.5zM263 218v27q0 129 -85 129q-37 0 -57.5 -24t-20.5 -69q0 -47 22.5 -71.5t61.5 -24.5q42 0 79 33z" />
    <glyph glyph-name="colon.dnom" horiz-adv-x="161" 
d="M80 170q-18 0 -31 13t-13 32q0 18 13 31t31 13q19 0 32 -13t13 -31q0 -19 -13 -32t-32 -13zM80 -5q-18 0 -31 12.5t-13 31.5q0 18 13 31t31 13q19 0 32 -13t13 -31q0 -19 -13 -31.5t-32 -12.5z" />
    <glyph glyph-name="equal.dnom" horiz-adv-x="350" 
d="M39 225v62h271v-62h-271zM39 98v62h271v-62h-271z" />
    <glyph glyph-name="bracketleft.dnom" horiz-adv-x="205" 
d="M45 -102v584h136v-52h-67v-480h67v-52h-136z" />
    <glyph glyph-name="bracketright.dnom" horiz-adv-x="205" 
d="M24 -102v52h67v480h-67v52h135v-584h-135z" />
    <glyph glyph-name="multiply.dnom" horiz-adv-x="330" 
d="M86 62l-42 43l78 87l-78 88l43 43l78 -86l79 86l42 -43l-79 -87l79 -87l-44 -44l-78 86z" />
    <glyph glyph-name="minus.dnom" horiz-adv-x="347" 
d="M39 162v62h269v-62h-269z" />
    <glyph glyph-name="space.frac" horiz-adv-x="48" 
 />
    <glyph glyph-name="numbersign.tf" 
d="M159 424h-90v69h100l29 196h69l-29 -196h116l29 196h69l-29 -196h85v-69h-95l-22 -151h89v-68h-99l-30 -205h-69l30 205h-116l-30 -205h-69l30 205h-86v68h96zM344 424h-116l-22 -151h116z" />
    <glyph glyph-name="dollar.tf" 
d="M304 301v-241q42 7 60 35t18 84q0 46 -19 73.5t-59 48.5zM247 418v212q-74 -10 -74 -103q0 -45 15.5 -67t58.5 -42zM245 701v82h61v-83q74 -7 134 -49l-35 -59q-46 33 -101 38v-235q83 -33 124.5 -78t41.5 -133q0 -93 -40 -140t-124 -55v-120h-61v119q-92 5 -182 54
l31 63q73 -44 153 -48v268q-88 35 -123 76t-35 123q0 81 40.5 126.5t115.5 50.5z" />
    <glyph glyph-name="plus.tf" 
d="M234 104v177h-161v75h161v177h81v-177h160v-75h-160v-177h-81z" />
    <glyph glyph-name="zero.tf" 
d="M276 -12q-112 0 -170.5 90.5t-58.5 265.5q0 176 58 266.5t169 90.5q228 0 228 -352q0 -177 -57.5 -269t-168.5 -92zM275 59q71 0 101 64.5t30 219.5q0 154 -30 219.5t-101 65.5q-72 0 -102 -63t-30 -217t30.5 -221.5t101.5 -67.5z" />
    <glyph glyph-name="one.tf" 
d="M122 0v74h128v504l-126 -60l-26 47l174 131h68v-622h112v-74h-330z" />
    <glyph glyph-name="two.tf" 
d="M82 0v82q128 131 190.5 208t81 120t18.5 93q0 63 -26 92.5t-81 29.5q-75 0 -151 -48l-34 63q93 61 192 61q91 0 142.5 -51.5t51.5 -143.5q0 -80 -59.5 -172.5t-222.5 -256.5h293v-77h-395z" />
    <glyph glyph-name="three.tf" 
d="M229 -13q-80 0 -169 29l16 69q92 -22 149 -22q80 0 114 33t34 111q0 74 -35 100.5t-118 26.5h-37v71h48q68 0 96.5 28.5t28.5 89.5q0 103 -108 103q-77 0 -152 -39l-30 63q91 52 193 52q87 0 138.5 -47.5t51.5 -121.5q0 -121 -97 -162q56 -16 87.5 -62t31.5 -106
q0 -216 -242 -216z" />
    <glyph glyph-name="four.tf" 
d="M340 153h-289v85l185 451h99l-190 -459h195v265l90 17v-282h77v-77h-77v-153h-90v153z" />
    <glyph glyph-name="five.tf" 
d="M219 -12q-68 0 -160 28l16 70q88 -22 137 -22q167 0 167 161q0 76 -38.5 108.5t-116.5 32.5q-62 0 -124 -19l30 343h321v-78h-248l-15 -178q25 5 55 5q104 0 167.5 -54t63.5 -154q0 -115 -67 -179t-188 -64z" />
    <glyph glyph-name="six.tf" 
d="M281 -13q-99 0 -162 77t-63 212q0 191 89 291.5t263 135.5l18 -67q-62 -17 -102.5 -34.5t-76.5 -46t-57 -70t-31 -100.5q64 57 141 57q84 0 138.5 -61t54.5 -162q0 -109 -59 -170.5t-153 -61.5zM283 371q-71 0 -131 -52q-1 -17 -1 -52q0 -110 32.5 -159.5t97.5 -49.5
q117 0 117 159q0 74 -29.5 114t-85.5 40z" />
    <glyph glyph-name="seven.tf" 
d="M235 -11l-94 12q18 189 88.5 347.5t153.5 262.5h-315v78h401v-82q-92 -105 -157.5 -267.5t-76.5 -350.5z" />
    <glyph glyph-name="eight.tf" 
d="M277 -13q-106 0 -163.5 52.5t-57.5 139.5q0 69 32.5 110.5t97.5 71.5q-103 54 -103 167q0 81 50.5 127.5t143.5 46.5q90 0 141 -46.5t51 -121.5q0 -56 -26.5 -95.5t-91.5 -72.5q78 -32 110 -78.5t32 -114.5q0 -88 -57 -137t-159 -49zM309 299l-69 29q-48 -25 -70.5 -58.5
t-22.5 -87.5q0 -67 32.5 -97t98.5 -30q60 0 91 28.5t31 79.5q0 50 -19 81.5t-72 54.5zM174 531q0 -47 18 -73t76 -50l23 -10q54 29 70.5 59t16.5 76q0 101 -104 101q-100 0 -100 -103z" />
    <glyph glyph-name="nine.tf" 
d="M395 370q2 36 2 57q0 111 -32 157.5t-97 46.5q-118 0 -118 -159q0 -154 111 -154q74 0 134 52zM387 301q-62 -54 -136 -54q-84 0 -140 62.5t-56 160.5q0 108 61 170t154 62q100 0 161 -73.5t61 -210.5q0 -193 -89.5 -294.5t-272.5 -137.5l-18 67q125 34 189.5 86
t85.5 162z" />
    <glyph glyph-name="less.tf" 
d="M397 97l-293 199v44l293 199l39 -66l-231 -155l231 -155z" />
    <glyph glyph-name="equal.tf" 
d="M73 381v75h402v-75h-402zM73 181v75h402v-75h-402z" />
    <glyph glyph-name="greater.tf" 
d="M153 97l-39 66l231 155l-231 155l39 66l293 -199v-44z" />
    <glyph glyph-name="cent.tf" 
d="M273 -131v121q-172 22 -172 261q0 238 172 261v124h61v-123q70 -4 126 -56l-48 -57q-33 36 -80 42v-384q42 5 84 45l51 -54q-51 -55 -133 -61v-119h-61zM193 251q0 -96 18.5 -138.5t63.5 -52.5v382q-45 -8 -63.5 -49.5t-18.5 -141.5z" />
    <glyph glyph-name="sterling.tf" 
d="M253 310q9 -47 9 -77q0 -108 -69 -156h293v-77h-407v82q59 28 78.5 61t19.5 88q0 35 -13 79h-88v77h63q-26 80 -26 135q0 83 52.5 131.5t140.5 48.5q90 0 185 -62l-34 -63q-26 16 -42.5 25t-44 16.5t-57.5 7.5q-52 0 -79 -25.5t-27 -73.5q0 -45 27 -140h187v-77h-168z
" />
    <glyph glyph-name="currency.tf" 
d="M89 68l-56 54l74 77q-26 52 -26 122q0 69 25 119l-76 79l54 51l68 -69q51 43 122 43q72 0 122 -42l66 68l56 -53l-73 -77q25 -50 25 -119t-25 -121l76 -80l-54 -51l-69 70q-51 -42 -122 -42q-70 0 -120 41zM276 169q53 0 77.5 33t24.5 118t-25 118.5t-78 33.5t-77.5 -33
t-24.5 -118t25 -118.5t78 -33.5z" />
    <glyph glyph-name="yen.tf" 
d="M199 360h-151v66h118l-132 263h106l96 -207q19 -41 40 -108q26 82 38 107l100 208h101l-132 -263h118v-66h-150l-31 -61v-23h181v-66h-181v-210h-92v210h-180v66h180v25z" />
    <glyph glyph-name="section.tf" 
d="M159 446q-47 39 -47 110q0 65 41 105.5t130 40.5q83 0 154 -41l-32 -65q-64 35 -119 35q-50 0 -70.5 -18t-20.5 -54q0 -19 5 -31t24 -22t33 -15t56 -17q47 -14 72 -24t54 -29t41.5 -48.5t12.5 -71.5q0 -106 -101 -140q51 -40 51 -117t-47 -117.5t-136 -40.5
q-109 0 -172 55l36 62q32 -25 60.5 -36t77.5 -11q95 0 95 84q0 38 -29.5 56t-96.5 39q-7 2 -11 3q-85 26 -124.5 64t-39.5 112q0 98 103 132zM321 199q86 17 86 98q0 39 -24.5 55.5t-93.5 36.5q-12 3 -18 5q-8 2 -22.5 7t-18.5 6q-92 -14 -92 -93q0 -36 26.5 -55t96.5 -40
q32 -9 60 -20z" />
    <glyph glyph-name="logicalnot.tf" 
d="M356 174v140h-252v75h333v-215h-81z" />
    <glyph glyph-name="plusminus.tf" 
d="M234 148v137h-161v75h161v147h81v-147h160v-75h-160v-137h-81zM73 30v75h402v-75h-402z" />
    <glyph glyph-name="multiply.tf" 
d="M405 123l-130 138l-127 -136l-55 58l128 134l-130 137l53 56l131 -137l126 135l55 -58l-127 -133l129 -138z" />
    <glyph glyph-name="divide.tf" 
d="M274 435q-27 0 -46 19t-19 47t19 47t46 19q28 0 46.5 -19t18.5 -47t-18.5 -47t-46.5 -19zM73 281v75h402v-75h-402zM274 70q-27 0 -46 19t-19 47t19 47t46 19q28 0 46.5 -19t18.5 -47t-18.5 -47t-46.5 -19z" />
    <glyph glyph-name="florin.tf" 
d="M131 369v70h82l12 114q15 149 138 149q62 0 103 -27l-30 -64q-36 19 -61 19q-57 0 -64 -76l-12 -115h107v-70h-114l-58 -570h-86l58 570h-75z" />
    <glyph glyph-name="uni2007.tf" 
 />
    <glyph glyph-name="Euro.tf" 
d="M103 389h-64v66h70q34 247 247 247q99 0 158 -50l-41 -61q-51 38 -117 38q-72 0 -108.5 -39.5t-46.5 -134.5h210v-66h-214q-1 -13 -1 -43q0 -28 1 -41h214v-66h-211q10 -99 46 -139t113 -40q69 0 124 45l41 -61q-74 -57 -168 -57q-109 0 -170.5 62t-77.5 190h-69v66h64
q-1 12 -1 37q0 32 1 47z" />
    <glyph glyph-name="minus.tf" 
d="M73 277v83h402v-83h-402z" />
    <glyph glyph-name="numbersign.lf" 
d="M159 424h-90v69h100l29 196h69l-29 -196h116l29 196h69l-29 -196h85v-69h-95l-22 -151h89v-68h-99l-30 -205h-69l30 205h-116l-30 -205h-69l30 205h-86v68h96zM344 424h-116l-22 -151h116z" />
    <glyph glyph-name="dollar.lf" 
d="M304 301v-241q42 7 60 35t18 84q0 46 -19 73.5t-59 48.5zM247 418v212q-74 -10 -74 -103q0 -45 15.5 -67t58.5 -42zM245 701v82h61v-83q74 -7 134 -49l-35 -59q-46 33 -101 38v-235q83 -33 124.5 -78t41.5 -133q0 -93 -40 -140t-124 -55v-120h-61v119q-92 5 -182 54
l31 63q73 -44 153 -48v268q-88 35 -123 76t-35 123q0 81 40.5 126.5t115.5 50.5z" />
    <glyph glyph-name="plus.lf" 
d="M234 104v177h-161v75h161v177h81v-177h160v-75h-160v-177h-81z" />
    <glyph glyph-name="zero.lf" 
d="M276 -12q-112 0 -170.5 90.5t-58.5 265.5q0 176 58 266.5t169 90.5q228 0 228 -352q0 -177 -57.5 -269t-168.5 -92zM275 59q71 0 101 64.5t30 219.5q0 154 -30 219.5t-101 65.5q-72 0 -102 -63t-30 -217t30.5 -221.5t101.5 -67.5z" />
    <glyph glyph-name="one.lf" horiz-adv-x="392" 
d="M212 0v578l-126 -60l-26 47l174 131h68v-696h-90z" />
    <glyph glyph-name="two.lf" 
d="M82 0v82q128 131 190.5 208t81 120t18.5 93q0 63 -26 92.5t-81 29.5q-75 0 -151 -48l-34 63q93 61 192 61q91 0 142.5 -51.5t51.5 -143.5q0 -80 -59.5 -172.5t-222.5 -256.5h293v-77h-395z" />
    <glyph glyph-name="three.lf" 
d="M229 -13q-80 0 -169 29l16 69q92 -22 149 -22q80 0 114 33t34 111q0 74 -35 100.5t-118 26.5h-37v71h48q68 0 96.5 28.5t28.5 89.5q0 103 -108 103q-77 0 -152 -39l-30 63q91 52 193 52q87 0 138.5 -47.5t51.5 -121.5q0 -121 -97 -162q56 -16 87.5 -62t31.5 -106
q0 -216 -242 -216z" />
    <glyph glyph-name="four.lf" 
d="M340 153h-289v85l185 451h99l-190 -459h195v265l90 17v-282h77v-77h-77v-153h-90v153z" />
    <glyph glyph-name="five.lf" 
d="M219 -12q-68 0 -160 28l16 70q88 -22 137 -22q167 0 167 161q0 76 -38.5 108.5t-116.5 32.5q-62 0 -124 -19l30 343h321v-78h-248l-15 -178q25 5 55 5q104 0 167.5 -54t63.5 -154q0 -115 -67 -179t-188 -64z" />
    <glyph glyph-name="six.lf" 
d="M281 -13q-99 0 -162 77t-63 212q0 191 89 291.5t263 135.5l18 -67q-62 -17 -102.5 -34.5t-76.5 -46t-57 -70t-31 -100.5q64 57 141 57q84 0 138.5 -61t54.5 -162q0 -109 -59 -170.5t-153 -61.5zM283 371q-71 0 -131 -52q-1 -17 -1 -52q0 -110 32.5 -159.5t97.5 -49.5
q117 0 117 159q0 74 -29.5 114t-85.5 40z" />
    <glyph glyph-name="seven.lf" 
d="M235 -11l-94 12q18 189 88.5 347.5t153.5 262.5h-315v78h401v-82q-92 -105 -157.5 -267.5t-76.5 -350.5z" />
    <glyph glyph-name="eight.lf" 
d="M277 -13q-106 0 -163.5 52.5t-57.5 139.5q0 69 32.5 110.5t97.5 71.5q-103 54 -103 167q0 81 50.5 127.5t143.5 46.5q90 0 141 -46.5t51 -121.5q0 -56 -26.5 -95.5t-91.5 -72.5q78 -32 110 -78.5t32 -114.5q0 -88 -57 -137t-159 -49zM309 299l-69 29q-48 -25 -70.5 -58.5
t-22.5 -87.5q0 -67 32.5 -97t98.5 -30q60 0 91 28.5t31 79.5q0 50 -19 81.5t-72 54.5zM174 531q0 -47 18 -73t76 -50l23 -10q54 29 70.5 59t16.5 76q0 101 -104 101q-100 0 -100 -103z" />
    <glyph glyph-name="nine.lf" 
d="M395 370q2 36 2 57q0 111 -32 157.5t-97 46.5q-118 0 -118 -159q0 -154 111 -154q74 0 134 52zM387 301q-62 -54 -136 -54q-84 0 -140 62.5t-56 160.5q0 108 61 170t154 62q100 0 161 -73.5t61 -210.5q0 -193 -89.5 -294.5t-272.5 -137.5l-18 67q125 34 189.5 86
t85.5 162z" />
    <glyph glyph-name="less.lf" 
d="M397 97l-293 199v44l293 199l39 -66l-231 -155l231 -155z" />
    <glyph glyph-name="equal.lf" 
d="M73 381v75h402v-75h-402zM73 181v75h402v-75h-402z" />
    <glyph glyph-name="greater.lf" 
d="M153 97l-39 66l231 155l-231 155l39 66l293 -199v-44z" />
    <glyph glyph-name="cent.lf" 
d="M273 -131v121q-172 22 -172 261q0 238 172 261v124h61v-123q70 -4 126 -56l-48 -57q-33 36 -80 42v-384q42 5 84 45l51 -54q-51 -55 -133 -61v-119h-61zM193 251q0 -96 18.5 -138.5t63.5 -52.5v382q-45 -8 -63.5 -49.5t-18.5 -141.5z" />
    <glyph glyph-name="sterling.lf" 
d="M253 310q9 -47 9 -77q0 -108 -69 -156h293v-77h-407v82q59 28 78.5 61t19.5 88q0 35 -13 79h-88v77h63q-26 80 -26 135q0 83 52.5 131.5t140.5 48.5q90 0 185 -62l-34 -63q-26 16 -42.5 25t-44 16.5t-57.5 7.5q-52 0 -79 -25.5t-27 -73.5q0 -45 27 -140h187v-77h-168z
" />
    <glyph glyph-name="currency.lf" 
d="M89 68l-56 54l74 77q-26 52 -26 122q0 69 25 119l-76 79l54 51l68 -69q51 43 122 43q72 0 122 -42l66 68l56 -53l-73 -77q25 -50 25 -119t-25 -121l76 -80l-54 -51l-69 70q-51 -42 -122 -42q-70 0 -120 41zM276 169q53 0 77.5 33t24.5 118t-25 118.5t-78 33.5t-77.5 -33
t-24.5 -118t25 -118.5t78 -33.5z" />
    <glyph glyph-name="yen.lf" 
d="M199 360h-151v66h118l-132 263h106l96 -207q19 -41 40 -108q26 82 38 107l100 208h101l-132 -263h118v-66h-150l-31 -61v-23h181v-66h-181v-210h-92v210h-180v66h180v25z" />
    <glyph glyph-name="section.lf" 
d="M159 446q-47 39 -47 110q0 65 41 105.5t130 40.5q83 0 154 -41l-32 -65q-64 35 -119 35q-50 0 -70.5 -18t-20.5 -54q0 -19 5 -31t24 -22t33 -15t56 -17q47 -14 72 -24t54 -29t41.5 -48.5t12.5 -71.5q0 -106 -101 -140q51 -40 51 -117t-47 -117.5t-136 -40.5
q-109 0 -172 55l36 62q32 -25 60.5 -36t77.5 -11q95 0 95 84q0 38 -29.5 56t-96.5 39q-7 2 -11 3q-85 26 -124.5 64t-39.5 112q0 98 103 132zM321 199q86 17 86 98q0 39 -24.5 55.5t-93.5 36.5q-12 3 -18 5q-8 2 -22.5 7t-18.5 6q-92 -14 -92 -93q0 -36 26.5 -55t96.5 -40
q32 -9 60 -20z" />
    <glyph glyph-name="logicalnot.lf" 
d="M356 174v140h-252v75h333v-215h-81z" />
    <glyph glyph-name="plusminus.lf" 
d="M234 148v137h-161v75h161v147h81v-147h160v-75h-160v-137h-81zM73 30v75h402v-75h-402z" />
    <glyph glyph-name="multiply.lf" 
d="M405 123l-130 138l-127 -136l-55 58l128 134l-130 137l53 56l131 -137l126 135l55 -58l-127 -133l129 -138z" />
    <glyph glyph-name="divide.lf" 
d="M274 435q-27 0 -46 19t-19 47t19 47t46 19q28 0 46.5 -19t18.5 -47t-18.5 -47t-46.5 -19zM73 281v75h402v-75h-402zM274 70q-27 0 -46 19t-19 47t19 47t46 19q28 0 46.5 -19t18.5 -47t-18.5 -47t-46.5 -19z" />
    <glyph glyph-name="florin.lf" 
d="M131 369v70h82l12 114q15 149 138 149q62 0 103 -27l-30 -64q-36 19 -61 19q-57 0 -64 -76l-12 -115h107v-70h-114l-58 -570h-86l58 570h-75z" />
    <glyph glyph-name="Euro.lf" 
d="M103 389h-64v66h70q34 247 247 247q99 0 158 -50l-41 -61q-51 38 -117 38q-72 0 -108.5 -39.5t-46.5 -134.5h210v-66h-214q-1 -13 -1 -43q0 -28 1 -41h214v-66h-211q10 -99 46 -139t113 -40q69 0 124 45l41 -61q-74 -57 -168 -57q-109 0 -170.5 62t-77.5 190h-69v66h64
q-1 12 -1 37q0 32 1 47z" />
    <glyph glyph-name="minus.lf" 
d="M73 277v83h402v-83h-402z" />
    <glyph glyph-name="numbersign.tosf" 
d="M69 396v74h101l24 166h69l-24 -166h116l24 166h69l-24 -166h84v-74h-95l-21 -145h88v-74h-99l-26 -177h-69l26 177h-116l-26 -177h-69l26 177h-86v74h97l21 145h-90zM228 396l-21 -145h116l21 145h-116z" />
    <glyph glyph-name="dollar.tosf" 
d="M255 -131v119q-109 6 -184 70l40 60q78 -54 146 -58v238q-82 32 -120 71.5t-38 111.5q0 77 40.5 119.5t115.5 47.5v135h61v-136q74 -7 134 -49l-37 -64q-51 34 -99 40v-204q53 -21 85.5 -41.5t56 -60.5t23.5 -97q0 -166 -163 -182v-120h-61zM391 166q0 47 -17 69t-60 40
v-212q42 7 59.5 31.5t17.5 71.5zM185 486q0 -39 15.5 -58t56.5 -36v182q-72 -9 -72 -88z" />
    <glyph glyph-name="plus.tosf" 
d="M235 78v177h-161v75h161v177h81v-177h160v-75h-160v-177h-81z" />
    <glyph glyph-name="zero.tosf" 
d="M276 -12q-121 0 -185 82t-64 246q0 161 65 247t182 86q120 0 184 -83t64 -245q0 -166 -63 -249.5t-183 -83.5zM275 59q81 0 116 60.5t35 195.5q0 137 -35 199t-116 62t-116.5 -61t-35.5 -195q0 -136 35.5 -198.5t116.5 -62.5z" />
    <glyph glyph-name="one.tosf" 
d="M122 0v74h128v451l-126 -60l-26 47l174 131h68v-569h112v-74h-330z" />
    <glyph glyph-name="two.tosf" 
d="M78 0v82q180 154 235 227.5t55 151.5q0 112 -107 112q-75 0 -151 -48l-34 63q93 61 192 61q86 0 140 -46t54 -139q0 -91 -58.5 -171.5t-223.5 -215.5h293v-77h-395z" />
    <glyph glyph-name="three.tosf" 
d="M238 -66q-91 0 -169 29l16 71q92 -22 149 -22q81 0 114.5 32t33.5 110q0 74 -35 100.5t-118 26.5h-37v71h48q68 0 96.5 28.5t28.5 89.5q0 101 -108 101q-77 0 -152 -39l-30 65q91 52 193 52q87 0 138.5 -47.5t51.5 -121.5q0 -121 -97 -162q56 -16 87.5 -62t31.5 -106
q0 -216 -242 -216z" />
    <glyph glyph-name="four.tosf" 
d="M39 100v85l200 451h94l-207 -459h219v265l90 17v-282h75v-77h-75v-153h-90v153h-306z" />
    <glyph glyph-name="five.tosf" 
d="M217 -66q-70 0 -150 28l16 70q74 -22 137 -22q167 0 167 161q0 76 -38.5 108.5t-116.5 32.5q-62 0 -124 -19l30 343h321v-78h-248l-15 -178q25 5 55 5q104 0 167.5 -54t63.5 -154q0 -115 -69.5 -179t-195.5 -64z" />
    <glyph glyph-name="six.tosf" 
d="M278 -13q-102 0 -165.5 77t-63.5 212q0 193 88.5 293t267.5 134l18 -67q-130 -34 -192 -86t-80 -166q63 58 146 58q88 0 145.5 -61t57.5 -162q0 -109 -62 -170.5t-160 -61.5zM280 371q-76 0 -136 -52q-1 -17 -1 -52q0 -110 33.5 -159.5t101.5 -49.5q62 0 94.5 42
t32.5 117q0 73 -33 113.5t-92 40.5z" />
    <glyph glyph-name="seven.tosf" 
d="M241 -64l-94 12q20 204 88 357.5t154 252.5h-315v78h401v-82q-92 -105 -157.5 -267.5t-76.5 -350.5z" />
    <glyph glyph-name="eight.tosf" 
d="M277 -13q-107 0 -166 52.5t-59 139.5q0 68 34 110t100 72q-107 56 -107 167q0 80 52 127t146 47q90 0 143 -46.5t53 -121.5q0 -55 -28 -95t-94 -73q79 -33 112.5 -79.5t33.5 -113.5q0 -88 -58.5 -137t-161.5 -49zM309 299l-69 29q-49 -25 -73 -59t-24 -87
q0 -127 135 -127q61 0 93.5 28.5t32.5 79.5q0 49 -20.5 81t-74.5 55zM170 531q0 -46 19.5 -72t78.5 -51l23 -10q54 30 72.5 60t18.5 75q0 101 -108 101q-104 0 -104 -103z" />
    <glyph glyph-name="nine.tosf" 
d="M134 -67l-18 67q127 33 192.5 85t86.5 163q-62 -54 -140 -54q-91 0 -148.5 62t-57.5 161q0 108 63 170t160 62q104 0 166 -73.5t62 -210.5q0 -194 -89.5 -295t-276.5 -137zM265 265q79 0 139 52q2 36 2 57q0 110 -34.5 157t-101.5 47q-126 0 -126 -159q0 -154 121 -154z
" />
    <glyph glyph-name="less.tosf" 
d="M362 71l-225 199v44l225 199l50 -52l-189 -168l189 -168z" />
    <glyph glyph-name="equal.tosf" 
d="M74 355v75h402v-75h-402zM74 155v75h402v-75h-402z" />
    <glyph glyph-name="greater.tosf" 
d="M187 71l-50 52l189 168l-189 168l50 54l225 -199v-44z" />
    <glyph glyph-name="cent.tosf" 
d="M264 -131v121q-172 22 -172 261q0 238 172 261v124h61v-123q70 -4 126 -56l-48 -57q-33 36 -80 42v-384q44 6 84 45l51 -54q-51 -55 -133 -61v-119h-61zM184 251q0 -96 18.5 -138.5t63.5 -52.5v382q-45 -8 -63.5 -49.5t-18.5 -141.5z" />
    <glyph glyph-name="sterling.tosf" 
d="M67 283v77h59q-20 60 -20 111q0 85 53.5 131.5t137.5 46.5q92 0 185 -61l-34 -63q-38 24 -69.5 36t-74.5 12q-107 0 -107 -97q0 -43 21 -116h194v-77h-173q9 -41 9 -71q0 -89 -67 -135h296v-77h-407v82q52 24 74 54t22 74q0 28 -13 73h-86z" />
    <glyph glyph-name="currency.tosf" 
d="M88 68l-56 54l74 77q-26 52 -26 122q0 69 25 119l-76 79l54 51l68 -69q51 43 122 43q73 0 122 -42l66 68l56 -53l-73 -77q25 -50 25 -119t-25 -121l76 -80l-54 -51l-69 70q-51 -42 -122 -42q-70 0 -120 41zM275 169q53 0 77.5 33t24.5 118t-25 118.5t-78 33.5t-77.5 -33
t-24.5 -118t25 -118.5t78 -33.5z" />
    <glyph glyph-name="yen.tosf" 
d="M48 159v66h180v24l-30 60h-150v66h117l-131 261h104l96 -205q20 -44 42 -113q26 84 40 112l100 206h99l-132 -261h118v-66h-151l-30 -60v-24h181v-66h-181v-159h-92v159h-180z" />
    <glyph glyph-name="section.tosf" 
d="M260 -167q-109 0 -172 55l36 62q32 -25 60.5 -36t77.5 -11q95 0 95 84q0 17 -7.5 30.5t-16.5 22t-31 17.5t-36 13.5l-46 14.5q-85 26 -124.5 64t-39.5 112q0 98 102 132q-46 38 -46 110q0 65 41 105.5t130 40.5q83 0 154 -41l-32 -65q-64 35 -119 35q-50 0 -70.5 -18
t-20.5 -54q0 -19 5 -31t24.5 -22t33 -14.5t55.5 -17.5q47 -14 72 -24t54 -29t41.5 -48.5t12.5 -71.5q0 -105 -101 -140q51 -40 51 -117t-47 -117.5t-136 -40.5zM271 341q-23 6 -41 13q-92 -14 -92 -93q0 -36 26.5 -55t96.5 -40q7 -2 19.5 -6l22.5 -7.5l18 -6.5q86 16 86 98
q0 39 -24.5 55.5t-93.5 36.5q-12 3 -18 5z" />
    <glyph glyph-name="logicalnot.tosf" 
d="M360 148v140h-252v75h333v-215h-81z" />
    <glyph glyph-name="plusminus.tosf" 
d="M235 148v137h-161v75h161v147h81v-147h160v-75h-160v-137h-81zM74 30v75h402v-75h-402z" />
    <glyph glyph-name="multiply.tosf" 
d="M146 99l-52 55l130 137l-132 138l50 52l133 -137l128 137l52 -54l-129 -136l131 -139l-50 -52l-132 138z" />
    <glyph glyph-name="divide.tosf" 
d="M74 255v75h402v-75h-402zM275 409q-27 0 -46 19t-19 47t19 47t46 19q28 0 46.5 -19t18.5 -47t-18.5 -47t-46.5 -19zM275 44q-27 0 -46 19t-19 47t19 47t46 19q28 0 46.5 -19t18.5 -47t-18.5 -47t-46.5 -19z" />
    <glyph glyph-name="florin.tosf" 
d="M107 369v70h82l12 114q15 149 138 149q62 0 103 -27l-30 -65q-31 16 -61 16q-29 0 -44.5 -16.5t-19.5 -55.5l-12 -115h107v-70h-114l-58 -570h-86l58 570h-75z" />
    <glyph glyph-name="uni2007.tosf" 
 />
    <glyph glyph-name="Euro.tosf" 
d="M17 363v66h102q40 220 244 220q100 0 159 -50l-41 -61q-51 38 -118 38q-70 0 -106 -35t-47 -112h209v-66h-215v-84h215v-66h-209q11 -80 47 -116.5t109 -36.5q70 0 125 45l41 -61q-74 -57 -169 -57q-209 0 -246 226h-100v66h94q-1 12 -1 37q0 32 1 47h-94z" />
    <glyph glyph-name="minus.tosf" 
d="M74 255v75h402v-75h-402z" />
    <glyph glyph-name="germandbls.hist" horiz-adv-x="627" 
d="M396 -13q-98 0 -166 54l36 64q67 -46 134 -46q49 0 69 18.5t20 55.5q0 40 -20.5 55.5t-85.5 33.5q-60 16 -94 51t-34 104q0 59 39.5 98t117.5 39q81 0 139 -33l-30 -68q-56 28 -106 28q-79 0 -79 -62q0 -34 18 -48.5t72 -29.5q34 -9 56.5 -19t45 -28t34 -47t11.5 -70
q0 -77 -44 -113.5t-133 -36.5zM176 563v-563h-86v562q0 84 44.5 126t120.5 42q75 0 131 -32l-32 -71q-43 23 -87 23q-50 0 -70.5 -19t-20.5 -68z" />
    <glyph glyph-name="f_f.sc" horiz-adv-x="914" 
d="M100 0v559h292v-75h-204v-154h164v-74h-164v-256h-88zM557 0v559h292v-75h-204v-154h164v-74h-164v-256h-88z" />
    <glyph glyph-name="f_f_i.sc" horiz-adv-x="1283" 
d="M100 0v559h292v-75h-204v-154h164v-74h-164v-256h-88zM557 0v559h292v-75h-204v-154h164v-74h-164v-256h-88zM991 0v48l63 9v444l-63 10v48h215v-48l-64 -10v-444l64 -9v-48h-215z" />
    <glyph glyph-name="f_f_l.sc" horiz-adv-x="1363" 
d="M100 0v559h292v-75h-204v-154h164v-74h-164v-256h-88zM557 0v559h292v-75h-204v-154h164v-74h-164v-256h-88zM1014 0v559h88v-483h196v-76h-284z" />
    <glyph glyph-name="f_i.sc" horiz-adv-x="826" 
d="M100 0v559h292v-75h-204v-154h164v-74h-164v-256h-88zM534 0v48l63 9v444l-63 10v48h215v-48l-64 -10v-444l64 -9v-48h-215z" />
    <glyph glyph-name="f_l.sc" horiz-adv-x="906" 
d="M100 0v559h292v-75h-204v-154h164v-74h-164v-256h-88zM557 0v559h88v-483h196v-76h-284z" />
    <glyph glyph-name="longs_t.sc" horiz-adv-x="940" 
d="M234 -13q-108 0 -174 56l36 64q61 -45 131 -45q100 0 100 87q0 42 -21.5 61t-79.5 40q-75 29 -108.5 64.5t-33.5 104.5q0 75 44 114t121 39q87 0 143 -38l-34 -68q-51 32 -103 32q-85 0 -85 -74q0 -37 18 -54.5t68 -35.5q31 -11 51 -19.5t43 -23.5t36 -32.5t22 -44
t9 -59.5q0 -75 -43.5 -121.5t-139.5 -46.5zM662 0v483h-133v76h354v-76h-133v-483h-88z" />
    <glyph glyph-name="s_t.sc" horiz-adv-x="940" 
d="M234 -13q-108 0 -174 56l36 64q61 -45 131 -45q100 0 100 87q0 42 -21.5 61t-79.5 40q-75 29 -108.5 64.5t-33.5 104.5q0 75 44 114t121 39q87 0 143 -38l-34 -68q-51 32 -103 32q-85 0 -85 -74q0 -37 18 -54.5t68 -35.5q31 -11 51 -19.5t43 -23.5t36 -32.5t22 -44
t9 -59.5q0 -75 -43.5 -121.5t-139.5 -46.5zM662 0v483h-133v76h354v-76h-133v-483h-88z" />
    <glyph glyph-name="numbersign.sc" horiz-adv-x="520" 
d="M80 346v68h86l21 145h65l-21 -145h97l21 145h64l-21 -145h73v-68h-83l-18 -123h76v-68h-86l-22 -155h-64l22 155h-97l-22 -155h-65l22 155h-72v68h82l18 123h-76zM221 346l-18 -123h97l18 123h-97z" />
    <glyph glyph-name="dollar.sc" horiz-adv-x="481" 
d="M208 -115v105q-105 8 -166 60l37 61q67 -46 133 -50v196q-74 29 -109.5 63.5t-35.5 99.5q0 67 37.5 105t103.5 44v118h62v-118q72 -7 123 -43l-36 -63q-42 30 -91 35v-169q75 -28 113.5 -65t38.5 -111q0 -145 -148 -162v-106h-62zM333 149q0 37 -15 54t-52 33v-172
q67 11 67 85zM149 425q0 -30 14.5 -46t48.5 -30v148q-63 -12 -63 -72z" />
    <glyph glyph-name="percent.sc" horiz-adv-x="763" 
d="M196 266q-61 0 -99 41.5t-38 110.5t38 110t100 41q61 0 98.5 -42t37.5 -111t-37.5 -109.5t-99.5 -40.5zM568 -10q-62 0 -99.5 41.5t-37.5 110.5t37.5 110t99.5 41t99 -41.5t37 -111.5q0 -69 -37 -109.5t-99 -40.5zM175 0l339 559h75l-339 -559h-75zM196 324q60 0 60 89
q0 55 -14 76.5t-46 21.5q-31 0 -45 -21.5t-14 -68.5q0 -54 13.5 -75.5t45.5 -21.5zM568 49q59 0 59 89q0 54 -14 75.5t-46 21.5q-31 0 -44.5 -21t-13.5 -68q0 -55 13.5 -76t45.5 -21z" />
    <glyph glyph-name="plus.sc" horiz-adv-x="565" 
d="M242 68v177h-161v75h161v177h81v-177h160v-75h-160v-177h-81z" />
    <glyph glyph-name="zero.sc" horiz-adv-x="557" 
d="M280 -13q-210 0 -210 290q0 144 54 219.5t154 75.5q209 0 209 -290q0 -295 -207 -295zM279 57q64 0 88.5 50.5t24.5 170.5q0 121 -24.5 172t-88.5 51t-89 -50.5t-25 -169.5q0 -120 25 -172t89 -52z" />
    <glyph glyph-name="one.sc" horiz-adv-x="439" 
d="M83 0v69h110v381l-107 -53l-25 48l155 120h65v-496h98v-69h-296z" />
    <glyph glyph-name="two.sc" horiz-adv-x="473" 
d="M60 0v79q152 128 198.5 191t46.5 131q0 50 -21.5 72.5t-66.5 22.5q-62 0 -128 -41l-32 63q84 53 168 53q79 0 125.5 -41t46.5 -125q0 -80 -48.5 -149.5t-188.5 -181.5h247v-74h-347z" />
    <glyph glyph-name="three.sc" horiz-adv-x="488" 
d="M205 -78q-80 0 -152 28l17 69q73 -20 129 -20q70 0 97.5 26t27.5 97q0 68 -29 90t-100 22h-35v69h44q59 0 82 23.5t23 79.5q0 47 -21.5 68t-70.5 21q-65 0 -131 -33l-27 64q82 45 171 45q79 0 124 -41t45 -114q0 -54 -19 -88.5t-66 -54.5q105 -29 105 -155
q0 -100 -51 -148t-163 -48z" />
    <glyph glyph-name="four.sc" horiz-adv-x="556" 
d="M62 86v81l182 392h90l-183 -399h195v229l88 16v-245h64v-74h-64v-153h-88v153h-284z" />
    <glyph glyph-name="five.sc" horiz-adv-x="486" 
d="M187 -78q-71 0 -137 26l20 68q69 -19 116 -19q140 0 140 139q0 64 -33.5 93.5t-102.5 29.5q-51 0 -105 -17l30 317h283v-75h-211l-17 -158q19 3 49 3q93 0 146.5 -49t53.5 -139q0 -104 -60 -161.5t-172 -57.5z" />
    <glyph glyph-name="six.sc" horiz-adv-x="546" 
d="M278 -11q-93 0 -150.5 67t-57.5 186q0 334 326 395l18 -65q-111 -29 -167.5 -78t-74.5 -150q54 46 124 46q80 0 131 -53.5t51 -143.5q0 -95 -56.5 -149.5t-143.5 -54.5zM279 321q-62 0 -115 -43q-1 -15 -1 -46q0 -92 28.5 -133t86.5 -41q52 0 80 35.5t28 98.5
q0 61 -28 95t-79 34z" />
    <glyph glyph-name="seven.sc" horiz-adv-x="487" 
d="M214 -77l-90 12q16 178 78.5 321t135.5 227h-282v76h366v-81q-77 -85 -138 -237t-70 -318z" />
    <glyph glyph-name="eight.sc" horiz-adv-x="537" 
d="M268 -11q-96 0 -147.5 49t-51.5 126q0 61 29 99.5t86 62.5q-93 48 -93 151q0 73 47.5 114.5t131.5 41.5q81 0 129 -41.5t48 -110.5q0 -97 -106 -148q68 -28 97 -70t29 -102q0 -81 -53 -126.5t-146 -45.5zM294 272l-57 23q-80 -45 -80 -127q0 -114 113 -114
q51 0 78.5 26.5t27.5 71.5q0 43 -18 72t-64 48zM180 479q0 -40 16.5 -64t65.5 -43l20 -8q46 26 61.5 51.5t15.5 65.5q0 86 -90 86q-89 0 -89 -88z" />
    <glyph glyph-name="nine.sc" horiz-adv-x="546" 
d="M141 -81l-18 66q110 29 170 80t80 149q-55 -45 -121 -45q-83 0 -133.5 54t-50.5 143q0 95 57.5 150t143.5 55q95 0 151 -64t56 -186q0 -339 -335 -402zM264 238q67 0 118 42q2 32 2 50q0 92 -30 131.5t-86 39.5q-108 0 -108 -134q0 -129 104 -129z" />
    <glyph glyph-name="less.sc" horiz-adv-x="397" 
d="M290 71l-225 199v44l225 199l50 -52l-189 -168l189 -168z" />
    <glyph glyph-name="equal.sc" horiz-adv-x="567" 
d="M82 345v75h402v-75h-402zM82 145v75h402v-75h-402z" />
    <glyph glyph-name="greater.sc" horiz-adv-x="397" 
d="M106 71l-50 52l189 168l-189 168l50 54l225 -199v-44z" />
    <glyph glyph-name="a.sc" horiz-adv-x="534" 
d="M49 0l174 560h95l167 -560h-96l-39 143h-170l-40 -143h-91zM231 323l-31 -110h131l-30 110q-13 45 -33 155h-1q-13 -72 -36 -155z" />
    <glyph glyph-name="b.sc" horiz-adv-x="518" 
d="M93 0v559h180q154 0 154 -147q0 -46 -16 -73t-57 -44q98 -28 98 -136q0 -159 -175 -159h-184zM181 73h84q51 0 72 21t21 69q0 47 -22 68.5t-74 21.5h-81v-180zM180 327h85q42 0 57 18.5t15 61.5t-15.5 61.5t-58.5 18.5h-83v-160z" />
    <glyph glyph-name="c.sc" horiz-adv-x="504" 
d="M299 -13q-224 0 -224 291q0 294 223 294q88 0 138 -44l-38 -63q-45 34 -98 34q-73 0 -100.5 -49.5t-27.5 -167.5q0 -120 28.5 -171t100.5 -51q54 0 104 41l40 -63q-66 -51 -146 -51z" />
    <glyph glyph-name="d.sc" horiz-adv-x="551" 
d="M93 0v559h157q116 0 170.5 -63.5t54.5 -217.5q0 -152 -52 -215t-169 -63h-161zM182 75h71q72 0 99.5 44t27.5 164q0 117 -26.5 160t-99.5 43h-72v-411z" />
    <glyph glyph-name="e.sc" horiz-adv-x="485" 
d="M100 0v559h302v-75h-214v-155h178v-74h-178v-179h229v-76h-317z" />
    <glyph glyph-name="f.sc" horiz-adv-x="457" 
d="M100 0v559h292v-75h-204v-154h164v-74h-164v-256h-88z" />
    <glyph glyph-name="g.sc" horiz-adv-x="558" 
d="M404 0l-11 38q-51 -51 -114 -51q-98 0 -151 74t-53 217q0 294 220 294q91 0 155 -55l-45 -62q-53 43 -108 43q-70 0 -97.5 -49.5t-27.5 -166.5q0 -120 25.5 -172t91.5 -52q51 0 93 39v131h-96v74h183v-302h-65z" />
    <glyph glyph-name="h.sc" horiz-adv-x="567" 
d="M100 0v559h88v-224h191v224h88v-559h-88v259h-191v-259h-88z" />
    <glyph glyph-name="i.sc" horiz-adv-x="369" 
d="M77 0v48l63 9v444l-63 10v48h215v-48l-64 -10v-444l64 -9v-48h-215z" />
    <glyph glyph-name="j.sc" horiz-adv-x="294" 
d="M51 -127l-28 58q47 30 59 45q23 29 23 94v489h88v-496q0 -83 -31.5 -122t-110.5 -68z" />
    <glyph glyph-name="k.sc" horiz-adv-x="512" 
d="M369 0l-175 303l170 256h95l-172 -252l181 -307h-99zM100 0v559h88v-559h-88z" />
    <glyph glyph-name="l.sc" horiz-adv-x="449" 
d="M100 0v559h88v-483h196v-76h-284z" />
    <glyph glyph-name="m.sc" horiz-adv-x="680" 
d="M100 0v559h130l89 -302q15 -47 21 -112h1q8 79 18 112l88 302h133v-559h-87v322q0 40 3 106t3 71h-2q-14 -78 -44 -172l-73 -231h-88l-72 225q-20 64 -42 178h-2q0 -7 2.5 -75.5t2.5 -109.5v-314h-81z" />
    <glyph glyph-name="n.sc" horiz-adv-x="568" 
d="M100 0v559h87l153 -304q29 -57 54 -136h2q-10 90 -10 156v284h82v-559h-92l-142 285q-32 65 -59 148h-2q9 -105 9 -166v-267h-82z" />
    <glyph glyph-name="o.sc" horiz-adv-x="585" 
d="M294 -11q-219 0 -219 289q0 143 56.5 217.5t161.5 74.5t161 -73.5t56 -215.5q0 -292 -216 -292zM293 60q66 0 94 51t28 167q0 117 -28 169t-94 52t-94.5 -51.5t-28.5 -166.5q0 -117 28.5 -169t94.5 -52z" />
    <glyph glyph-name="p.sc" horiz-adv-x="506" 
d="M100 0v559h164q180 0 180 -168q0 -176 -171 -176h-85v-215h-88zM188 288h78q45 0 65.5 22t20.5 75q0 56 -20 78t-67 22h-77v-197z" />
    <glyph glyph-name="q.sc" horiz-adv-x="585" 
d="M510 281q0 -118 -32.5 -182t-102.5 -86l154 -39l-28 -80l-271 99q-27 10 -48 22t-42 34.5t-34.5 52t-22 74.5t-8.5 102q0 143 56.5 217.5t161.5 74.5t161 -73.5t56 -215.5zM293 59q66 0 94 51.5t28 167.5q0 117 -28 169t-94 52t-94.5 -51.5t-28.5 -166.5
q0 -117 28.5 -169.5t94.5 -52.5z" />
    <glyph glyph-name="r.sc" horiz-adv-x="526" 
d="M100 0v559h169q180 0 180 -156q0 -64 -24.5 -97t-80.5 -50q47 -16 75 -98l55 -158h-94l-53 158q-15 45 -36 61.5t-56 16.5h-47v-236h-88zM188 306h80q50 0 70 22t20 72q0 45 -20.5 65t-69.5 20h-80v-179z" />
    <glyph glyph-name="s.sc" horiz-adv-x="492" 
d="M234 -13q-108 0 -174 56l36 64q61 -45 131 -45q100 0 100 87q0 42 -21.5 61t-79.5 40q-75 29 -108.5 64.5t-33.5 104.5q0 75 44 114t121 39q87 0 143 -38l-34 -68q-51 32 -103 32q-85 0 -85 -74q0 -37 18 -54.5t68 -35.5q31 -11 51 -19.5t43 -23.5t36 -32.5t22 -44
t9 -59.5q0 -75 -43.5 -121.5t-139.5 -46.5z" />
    <glyph glyph-name="t.sc" horiz-adv-x="468" 
d="M190 0v483h-133v76h354v-76h-133v-483h-88z" />
    <glyph glyph-name="u.sc" horiz-adv-x="571" 
d="M256 -13q-69 0 -114 43.5t-45 136.5v392h87v-387q0 -57 18.5 -83t65.5 -26q66 0 116 48v448h87v-559h-64l-14 49q-62 -62 -137 -62z" />
    <glyph glyph-name="v.sc" horiz-adv-x="516" 
d="M213 0l-164 559h95l86 -319q8 -27 29 -133h1q3 13 8 38l10 48.5t12 47.5l87 318h90l-166 -559h-88z" />
    <glyph glyph-name="w.sc" horiz-adv-x="719" 
d="M171 0l-119 559h93l54 -264q13 -68 29 -207h1q15 121 33 205l56 266h91l56 -266q22 -113 30 -205h2q11 116 30 210l53 261h87l-120 -559h-104l-54 266q-19 96 -28 196h-1q-14 -138 -27 -194l-58 -268h-104z" />
    <glyph glyph-name="x.sc" horiz-adv-x="515" 
d="M44 0l164 298l-140 261h101l90 -188l93 188h96l-141 -256l164 -303h-101l-114 231l-116 -231h-96z" />
    <glyph glyph-name="y.sc" horiz-adv-x="491" 
d="M201 0v220l-155 339h99l71 -175q18 -42 31 -90q20 63 31 90l72 175h95l-156 -339v-220h-88z" />
    <glyph glyph-name="z.sc" horiz-adv-x="467" 
d="M61 0v65l237 418h-220v76h323v-67l-236 -416h236v-76h-340z" />
    <glyph glyph-name="exclamdown.sc" horiz-adv-x="282" 
d="M88 -126l21 479h66l21 -479h-108zM140 438q-28 0 -47 19t-19 48t19 48t47 19t47 -19.5t19 -47.5t-19 -47.5t-47 -19.5z" />
    <glyph glyph-name="cent.sc" horiz-adv-x="432" 
d="M212 -115v106q-149 20 -149 230t149 229v109h61v-107q59 -6 108 -50l-45 -55q-30 30 -66 34v-323q32 4 70 37l46 -53q-45 -46 -113 -52v-105h-61zM150 221q0 -78 15 -114t49 -46v319q-34 -8 -49 -43.5t-15 -115.5z" />
    <glyph glyph-name="sterling.sc" horiz-adv-x="494" 
d="M70 244v72h52q-17 49 -17 97q0 75 46.5 117t122.5 42q79 0 165 -55l-33 -61q-64 41 -123 41q-90 0 -90 -82q0 -33 18 -99h163v-72h-144q5 -28 5 -52q0 -78 -58 -118h258v-74h-363v79q44 20 63 47t19 64q0 25 -8 54h-76z" />
    <glyph glyph-name="currency.sc" horiz-adv-x="551" 
d="M95 26l-56 54l74 77q-26 52 -26 122q0 69 25 119l-76 79l54 51l68 -69q51 43 116 43q66 0 116 -42l66 68l56 -53l-73 -77q25 -50 25 -119t-25 -121l76 -80l-54 -51l-69 70q-51 -42 -116 -42q-64 0 -114 41zM276 127q52 0 74 32.5t22 118.5t-22.5 119t-74.5 33t-74 -32.5
t-22 -118.5t22.5 -119t74.5 -33z" />
    <glyph glyph-name="yen.sc" horiz-adv-x="551" 
d="M74 126v66h157v28l-23 46h-134v66h101l-114 227h100l80 -174q23 -50 36 -100q25 80 35 100l83 174h95l-114 -227h102v-66h-135l-23 -46v-28h158v-66h-158v-126h-89v126h-157z" />
    <glyph glyph-name="section.sc" horiz-adv-x="519" 
d="M246 -148q-92 0 -155 43l33 61q56 -35 121 -35q80 0 80 69q0 14 -6.5 25.5t-13 18t-26 14.5t-30 11.5t-39.5 12.5q-75 23 -109.5 56t-34.5 98q0 85 87 115q-40 35 -40 101q0 58 37.5 93.5t115.5 35.5q71 0 138 -36l-30 -63q-53 29 -103 29q-76 0 -76 -57q0 -30 17.5 -42
t70.5 -28q7 -2 11 -3q41 -13 63.5 -22t47.5 -26t36 -42.5t11 -61.5q0 -91 -86 -123q44 -37 44 -102q0 -69 -41.5 -105.5t-122.5 -36.5zM249 295q-20 6 -29 9q-75 -11 -75 -75q0 -31 23.5 -46.5t86.5 -34.5l45 -15q69 13 69 79q0 33 -19.5 46t-81.5 31q-12 4 -19 6z" />
    <glyph glyph-name="logicalnot.sc" horiz-adv-x="506" 
d="M334 138v140h-252v75h333v-215h-81z" />
    <glyph glyph-name="degree.sc" horiz-adv-x="390" 
d="M195 237q-73 0 -110.5 44t-37.5 124q0 78 38.5 122.5t107.5 44.5q74 0 111.5 -44.5t37.5 -125.5q0 -77 -39 -121t-108 -44zM196 294q39 0 55.5 25t16.5 80q0 65 -17 90.5t-57 25.5t-57 -25.5t-17 -80.5q0 -64 17.5 -89.5t58.5 -25.5z" />
    <glyph glyph-name="plusminus.sc" horiz-adv-x="567" 
d="M243 148v137h-161v75h161v147h81v-147h160v-75h-160v-137h-81zM82 30v75h402v-75h-402z" />
    <glyph glyph-name="ordmasculine.sc" horiz-adv-x="488" 
d="M244 116q-178 0 -178 228t176 228q84 0 131.5 -55t47.5 -173q0 -228 -177 -228zM244 178q50 0 72 36t22 130q0 95 -22 130t-73 35t-72.5 -34.5t-21.5 -130.5q0 -94 22 -130t73 -36z" />
    <glyph glyph-name="questiondown.sc" horiz-adv-x="440" 
d="M226 -137q-76 0 -120 37t-44 113q0 19 2.5 35.5t5.5 28.5t11.5 24.5t12.5 19t17 18t17.5 15l21 16t21.5 15.5q40 30 40 86v82h75v-90q0 -49 -17 -80.5t-53 -57.5q-27 -20 -37 -28.5t-19.5 -29.5t-9.5 -52q0 -40 18.5 -57.5t64.5 -17.5q57 0 122 44l36 -65
q-77 -56 -165 -56zM247 438q-28 0 -47 19t-19 48t19 48t47 19t47 -19.5t19 -47.5t-19 -47.5t-47 -19.5z" />
    <glyph glyph-name="multiply.sc" horiz-adv-x="530" 
d="M136 99l-52 55l130 137l-132 138l50 52l133 -137l128 137l52 -54l-129 -136l131 -139l-50 -52l-132 138z" />
    <glyph glyph-name="germandbls.sc" horiz-adv-x="984" 
d="M726 -13q-108 0 -174 56l36 64q61 -45 131 -45q100 0 100 87q0 42 -21.5 61t-79.5 40q-75 29 -108.5 64.5t-33.5 104.5q0 75 44 114t121 39q87 0 143 -38l-34 -68q-51 32 -103 32q-85 0 -85 -74q0 -37 18 -54.5t68 -35.5q31 -11 51 -19.5t43 -23.5t36 -32.5t22 -44
t9 -59.5q0 -75 -43.5 -121.5t-139.5 -46.5zM234 -13q-108 0 -174 56l36 64q61 -45 131 -45q100 0 100 87q0 42 -21.5 61t-79.5 40q-75 29 -108.5 64.5t-33.5 104.5q0 75 44 114t121 39q87 0 143 -38l-34 -68q-51 32 -103 32q-85 0 -85 -74q0 -37 18 -54.5t68 -35.5
q31 -11 51 -19.5t43 -23.5t36 -32.5t22 -44t9 -59.5q0 -75 -43.5 -121.5t-139.5 -46.5z" />
    <glyph glyph-name="agrave.sc" horiz-adv-x="534" 
d="M49 0l174 560h95l167 -560h-96l-39 143h-170l-40 -143h-91zM231 323l-31 -110h131l-30 110q-13 45 -33 155h-1q-13 -72 -36 -155zM337 599l-206 102l46 84l191 -133z" />
    <glyph glyph-name="aacute.sc" horiz-adv-x="534" 
d="M49 0l174 560h95l167 -560h-96l-39 143h-170l-40 -143h-91zM231 323l-31 -110h131l-30 110q-13 45 -33 155h-1q-13 -72 -36 -155zM198 599l-31 53l191 133l46 -84z" />
    <glyph glyph-name="acircumflex.sc" horiz-adv-x="534" 
d="M49 0l174 560h95l167 -560h-96l-39 143h-170l-40 -143h-91zM231 323l-31 -110h131l-30 110q-13 45 -33 155h-1q-13 -72 -36 -155zM148 605l-33 45l124 127h58l123 -127l-33 -45l-119 84z" />
    <glyph glyph-name="atilde.sc" horiz-adv-x="534" 
d="M49 0l174 560h95l167 -560h-96l-39 143h-170l-40 -143h-91zM231 323l-31 -110h131l-30 110q-13 45 -33 155h-1q-13 -72 -36 -155zM153 614l-45 33q40 86 103 86q28 0 63.5 -19t54.5 -19q11 0 20.5 6t15 12.5t16.5 21.5l45 -33q-40 -86 -103 -86q-28 0 -63.5 19t-54.5 19
q-11 0 -20.5 -6t-15 -12.5t-16.5 -21.5z" />
    <glyph glyph-name="adieresis.sc" horiz-adv-x="534" 
d="M49 0l174 560h95l167 -560h-96l-39 143h-170l-40 -143h-91zM231 323l-31 -110h131l-30 110q-13 45 -33 155h-1q-13 -72 -36 -155zM168 602q-24 0 -41.5 18t-17.5 42t17.5 42t41.5 18t41.5 -18t17.5 -42t-17.5 -42t-41.5 -18zM367 602q-23 0 -41 18t-18 42t18 42t41 18
t41 -18t18 -42t-18 -42t-41 -18z" />
    <glyph glyph-name="aring.sc" horiz-adv-x="534" 
d="M49 0l174 560h95l167 -560h-96l-39 143h-170l-40 -143h-91zM231 323l-31 -110h131l-30 110q-13 45 -33 155h-1q-13 -72 -36 -155zM272 598q-45 0 -72.5 30.5t-27.5 74.5t27.5 74.5t72.5 30.5t72.5 -30.5t27.5 -74.5t-27.5 -74.5t-72.5 -30.5zM272 647q43 0 43 56t-43 56
t-43 -56t43 -56z" />
    <glyph glyph-name="ae.sc" horiz-adv-x="757" 
d="M42 0l295 559h337v-75h-214v-155h178v-74h-178v-179h229v-76h-317v135h-168l-68 -135h-94zM317 360l-78 -155h133v143q0 8 2 77.5t2 71.5h-1q-30 -80 -58 -137z" />
    <glyph glyph-name="ccedilla.sc" horiz-adv-x="504" 
d="M255 -214q-45 0 -79 24l22 46q32 -15 56 -15q37 0 37 32q0 33 -36 33q-18 0 -43 -5l30 91q-167 33 -167 286q0 294 223 294q88 0 138 -44l-38 -63q-45 34 -98 34q-73 0 -100.5 -49.5t-27.5 -167.5q0 -120 28.5 -171t100.5 -51q54 0 104 41l40 -63q-66 -51 -146 -51h-4
l-14 -38q73 -6 73 -81q0 -36 -23.5 -59t-75.5 -23z" />
    <glyph glyph-name="egrave.sc" horiz-adv-x="485" 
d="M100 0v559h302v-75h-214v-155h178v-74h-178v-179h229v-76h-317zM310 599l-206 102l46 84l191 -133z" />
    <glyph glyph-name="eacute.sc" horiz-adv-x="485" 
d="M100 0v559h302v-75h-214v-155h178v-74h-178v-179h229v-76h-317zM180 599l-31 53l191 133l46 -84z" />
    <glyph glyph-name="ecircumflex.sc" horiz-adv-x="485" 
d="M100 0v559h302v-75h-214v-155h178v-74h-178v-179h229v-76h-317zM134 605l-33 45l124 127h58l123 -127l-33 -45l-119 84z" />
    <glyph glyph-name="edieresis.sc" horiz-adv-x="485" 
d="M100 0v559h302v-75h-214v-155h178v-74h-178v-179h229v-76h-317zM157 602q-23 0 -41 18t-18 42t18 42t41 18t41 -18t18 -42t-18 -42t-41 -18zM356 602q-24 0 -41.5 18t-17.5 42t17.5 42t41.5 18t41.5 -18t17.5 -42t-17.5 -42t-41.5 -18z" />
    <glyph glyph-name="igrave.sc" horiz-adv-x="369" 
d="M77 0v48l63 9v444l-63 10v48h215v-48l-64 -10v-444l64 -9v-48h-215zM252 599l-206 102l46 84l191 -133z" />
    <glyph glyph-name="iacute.sc" horiz-adv-x="369" 
d="M77 0v48l63 9v444l-63 10v48h215v-48l-64 -10v-444l64 -9v-48h-215zM110 599l-31 53l191 133l46 -84z" />
    <glyph glyph-name="icircumflex.sc" horiz-adv-x="369" 
d="M77 0v48l63 9v444l-63 10v48h215v-48l-64 -10v-444l64 -9v-48h-215zM66 605l-33 45l124 127h58l123 -127l-33 -45l-119 84z" />
    <glyph glyph-name="idieresis.sc" horiz-adv-x="369" 
d="M77 0v48l63 9v444l-63 10v48h215v-48l-64 -10v-444l64 -9v-48h-215zM86 602q-24 0 -41.5 18t-17.5 42t17.5 42t41.5 18t41.5 -18t17.5 -42t-17.5 -42t-41.5 -18zM285 602q-23 0 -41 18t-18 42t18 42t41 18t41 -18t18 -42t-18 -42t-41 -18z" />
    <glyph glyph-name="eth.sc" horiz-adv-x="529" 
d="M29 240v73h49v246h154q115 0 168 -63.5t53 -217.5q0 -152 -50.5 -215t-166.5 -63h-158v240h-49zM166 75h68q72 0 97.5 43.5t25.5 164.5q0 118 -25 160.5t-97 42.5h-69v-173h101v-73h-101v-165z" />
    <glyph glyph-name="ntilde.sc" horiz-adv-x="568" 
d="M100 0v559h87l153 -304q29 -57 54 -136h2q-10 90 -10 156v284h82v-559h-92l-142 285q-32 65 -59 148h-2q9 -105 9 -166v-267h-82zM164 614l-45 33q40 86 103 86q28 0 63.5 -19t54.5 -19q11 0 20.5 6t15 12.5t16.5 21.5l45 -33q-40 -86 -103 -86q-28 0 -63.5 19t-54.5 19
q-11 0 -20.5 -6t-15 -12.5t-16.5 -21.5z" />
    <glyph glyph-name="ograve.sc" horiz-adv-x="585" 
d="M294 -11q-219 0 -219 289q0 143 56.5 217.5t161.5 74.5t161 -73.5t56 -215.5q0 -292 -216 -292zM293 60q66 0 94 51t28 167q0 117 -28 169t-94 52t-94.5 -51.5t-28.5 -166.5q0 -117 28.5 -169t94.5 -52zM367 599l-206 102l46 84l191 -133z" />
    <glyph glyph-name="oacute.sc" horiz-adv-x="585" 
d="M294 -11q-219 0 -219 289q0 143 56.5 217.5t161.5 74.5t161 -73.5t56 -215.5q0 -292 -216 -292zM293 60q66 0 94 51t28 167q0 117 -28 169t-94 52t-94.5 -51.5t-28.5 -166.5q0 -117 28.5 -169t94.5 -52zM221 599l-31 53l191 133l46 -84z" />
    <glyph glyph-name="ocircumflex.sc" horiz-adv-x="585" 
d="M294 -11q-219 0 -219 289q0 143 56.5 217.5t161.5 74.5t161 -73.5t56 -215.5q0 -292 -216 -292zM293 60q66 0 94 51t28 167q0 117 -28 169t-94 52t-94.5 -51.5t-28.5 -166.5q0 -117 28.5 -169t94.5 -52zM174 605l-33 45l124 127h58l123 -127l-33 -45l-119 84z" />
    <glyph glyph-name="otilde.sc" horiz-adv-x="585" 
d="M294 -11q-219 0 -219 289q0 143 56.5 217.5t161.5 74.5t161 -73.5t56 -215.5q0 -292 -216 -292zM293 60q66 0 94 51t28 167q0 117 -28 169t-94 52t-94.5 -51.5t-28.5 -166.5q0 -117 28.5 -169t94.5 -52zM179 614l-45 33q40 86 103 86q28 0 63.5 -19t54.5 -19q11 0 20.5 6
t15 12.5t16.5 21.5l45 -33q-40 -86 -103 -86q-28 0 -63.5 19t-54.5 19q-11 0 -20.5 -6t-15 -12.5t-16.5 -21.5z" />
    <glyph glyph-name="odieresis.sc" horiz-adv-x="585" 
d="M294 -11q-219 0 -219 289q0 143 56.5 217.5t161.5 74.5t161 -73.5t56 -215.5q0 -292 -216 -292zM293 60q66 0 94 51t28 167q0 117 -28 169t-94 52t-94.5 -51.5t-28.5 -166.5q0 -117 28.5 -169t94.5 -52zM194 602q-24 0 -41.5 18t-17.5 42t17.5 42t41.5 18t41.5 -18
t17.5 -42t-17.5 -42t-41.5 -18zM393 602q-23 0 -41 18t-18 42t18 42t41 18t41 -18t18 -42t-18 -42t-41 -18z" />
    <glyph glyph-name="divide.sc" horiz-adv-x="551" 
d="M74 255v75h402v-75h-402zM275 409q-27 0 -46 19t-19 47t19 47t46 19q28 0 46.5 -19t18.5 -47t-18.5 -47t-46.5 -19zM275 44q-27 0 -46 19t-19 47t19 47t46 19q28 0 46.5 -19t18.5 -47t-18.5 -47t-46.5 -19z" />
    <glyph glyph-name="oslash.sc" horiz-adv-x="585" 
d="M126 -72l-54 34l58 99q-55 73 -55 217q0 143 56.5 217.5t161.5 74.5q67 0 116 -32l49 83l55 -34l-56 -95q53 -73 53 -211q0 -292 -216 -292q-66 0 -116 28zM170 281q0 -81 13 -129l187 318q-28 29 -77 29q-66 0 -94.5 -51.5t-28.5 -166.5zM293 60q66 0 94 51t28 167
q0 79 -11 123l-186 -315q27 -26 75 -26z" />
    <glyph glyph-name="ugrave.sc" horiz-adv-x="571" 
d="M256 -13q-69 0 -114 43.5t-45 136.5v392h87v-387q0 -57 18.5 -83t65.5 -26q66 0 116 48v448h87v-559h-64l-14 49q-62 -62 -137 -62zM340 599l-206 102l46 84l191 -133z" />
    <glyph glyph-name="uacute.sc" horiz-adv-x="571" 
d="M256 -13q-69 0 -114 43.5t-45 136.5v392h87v-387q0 -57 18.5 -83t65.5 -26q66 0 116 48v448h87v-559h-64l-14 49q-62 -62 -137 -62zM230 599l-31 53l191 133l46 -84z" />
    <glyph glyph-name="ucircumflex.sc" horiz-adv-x="571" 
d="M256 -13q-69 0 -114 43.5t-45 136.5v392h87v-387q0 -57 18.5 -83t65.5 -26q66 0 116 48v448h87v-559h-64l-14 49q-62 -62 -137 -62zM166 605l-33 45l124 127h58l123 -127l-33 -45l-119 84z" />
    <glyph glyph-name="udieresis.sc" horiz-adv-x="571" 
d="M256 -13q-69 0 -114 43.5t-45 136.5v392h87v-387q0 -57 18.5 -83t65.5 -26q66 0 116 48v448h87v-559h-64l-14 49q-62 -62 -137 -62zM184 602q-24 0 -41.5 18t-17.5 42t17.5 42t41.5 18t41.5 -18t17.5 -42t-17.5 -42t-41.5 -18zM383 602q-23 0 -41 18t-18 42t18 42t41 18
t41 -18t18 -42t-18 -42t-41 -18z" />
    <glyph glyph-name="yacute.sc" horiz-adv-x="491" 
d="M201 0v220l-155 339h99l71 -175q18 -42 31 -90q20 63 31 90l72 175h95l-156 -339v-220h-88zM202 599l-31 53l191 133l46 -84z" />
    <glyph glyph-name="thorn.sc" horiz-adv-x="494" 
d="M100 0v559h88v-89h76q180 0 180 -168q0 -176 -170 -176h-86v-126h-88zM188 199h78q45 0 65.5 22t20.5 75q0 55 -20 77.5t-67 22.5h-77v-197z" />
    <glyph glyph-name="ydieresis.sc" horiz-adv-x="491" 
d="M201 0v220l-155 339h99l71 -175q18 -42 31 -90q20 63 31 90l72 175h95l-156 -339v-220h-88zM144 602q-24 0 -41.5 18t-17.5 42t17.5 42t41.5 18t41.5 -18t17.5 -42t-17.5 -42t-41.5 -18zM343 602q-23 0 -41 18t-18 42t18 42t41 18t41 -18t18 -42t-18 -42t-41 -18z" />
    <glyph glyph-name="dotlessi.sc" horiz-adv-x="369" 
d="M77 0v48l63 9v444l-63 10v48h215v-48l-64 -10v-444l64 -9v-48h-215z" />
    <glyph glyph-name="ij.sc" horiz-adv-x="663" 
d="M77 0v48l63 9v444l-63 10v48h215v-48l-64 -10v-444l64 -9v-48h-215zM420 -127l-28 58q47 30 59 45q23 29 23 94v489h88v-496q0 -83 -31.5 -122t-110.5 -68z" />
    <glyph glyph-name="lslash.sc" horiz-adv-x="405" 
d="M30 192v75l55 19v273h87v-242l117 42v-75l-117 -42v-166h185v-76h-272v211z" />
    <glyph glyph-name="oe.sc" horiz-adv-x="754" 
d="M301 0q-116 0 -170.5 63.5t-54.5 217.5q0 152 52 215t169 63h374v-75h-214v-155h178v-74h-178v-179h229v-76h-385zM297 73h72v411h-71q-72 0 -99.5 -44t-27.5 -164q0 -117 26.5 -160t99.5 -43z" />
    <glyph glyph-name="scaron.sc" horiz-adv-x="492" 
d="M234 -13q-108 0 -174 56l36 64q61 -45 131 -45q100 0 100 87q0 42 -21.5 61t-79.5 40q-75 29 -108.5 64.5t-33.5 104.5q0 75 44 114t121 39q87 0 143 -38l-34 -68q-51 32 -103 32q-85 0 -85 -74q0 -37 18 -54.5t68 -35.5q31 -11 51 -19.5t43 -23.5t36 -32.5t22 -44
t9 -59.5q0 -75 -43.5 -121.5t-139.5 -46.5zM204 605l-123 127l33 45l119 -84l120 84l33 -45l-124 -127h-58z" />
    <glyph glyph-name="zcaron.sc" horiz-adv-x="467" 
d="M61 0v65l237 418h-220v76h323v-67l-236 -416h236v-76h-340zM205 605l-123 127l33 45l119 -84l120 84l33 -45l-124 -127h-58z" />
    <glyph glyph-name="longs.sc" horiz-adv-x="492" 
d="M234 -13q-108 0 -174 56l36 64q61 -45 131 -45q100 0 100 87q0 42 -21.5 61t-79.5 40q-75 29 -108.5 64.5t-33.5 104.5q0 75 44 114t121 39q87 0 143 -38l-34 -68q-51 32 -103 32q-85 0 -85 -74q0 -37 18 -54.5t68 -35.5q31 -11 51 -19.5t43 -23.5t36 -32.5t22 -44
t9 -59.5q0 -75 -43.5 -121.5t-139.5 -46.5z" />
    <glyph glyph-name="florin.sc" horiz-adv-x="406" 
d="M66 318v67h70l14 132q15 133 126 133q55 0 92 -23l-26 -63q-26 13 -53 13q-25 0 -37.5 -13.5t-16.5 -46.5l-14 -132h92v-67h-99l-50 -493h-84l50 493h-64z" />
    <glyph glyph-name="gravecomb.sc" horiz-adv-x="1" 
d="M-217 599l-206 102l46 84l191 -133z" />
    <glyph glyph-name="acutecomb.sc" horiz-adv-x="1" 
d="M-363 599l-31 53l191 133l46 -84z" />
    <glyph glyph-name="uni0302.sc" horiz-adv-x="1" 
d="M-410 605l-33 45l124 127h58l123 -127l-33 -45l-119 84z" />
    <glyph glyph-name="tildecomb.sc" horiz-adv-x="1" 
d="M-405 614l-45 33q40 86 103 86q28 0 63.5 -19t54.5 -19q11 0 20.5 6t15 12.5t16.5 21.5l45 -33q-40 -86 -103 -86q-28 0 -63.5 19t-54.5 19q-11 0 -20.5 -6t-15 -12.5t-16.5 -21.5z" />
    <glyph glyph-name="uni0304.sc" horiz-adv-x="1" 
d="M-401 637v74h257v-74h-257z" />
    <glyph glyph-name="uni0306.sc" horiz-adv-x="1" 
d="M-272 605q-58 0 -95.5 38t-47.5 89l58 15q12 -33 30.5 -48.5t54.5 -15.5t54.5 15.5t30.5 48.5l58 -15q-10 -51 -48 -89t-95 -38z" />
    <glyph glyph-name="uni0307.sc" horiz-adv-x="1" 
d="M-272 602q-24 0 -41.5 18t-17.5 42t17.5 42t41.5 18t41.5 -18t17.5 -42t-17.5 -42t-41.5 -18z" />
    <glyph glyph-name="uni0308.sc" horiz-adv-x="1" 
d="M-173 602q-23 0 -41 18t-18 42t18 42t41 18t41 -18t18 -42t-18 -42t-41 -18zM-372 602q-24 0 -41.5 18t-17.5 42t17.5 42t41.5 18t41.5 -18t17.5 -42t-17.5 -42t-41.5 -18z" />
    <glyph glyph-name="uni030A.sc" horiz-adv-x="1" 
d="M-272 598q-45 0 -72.5 30.5t-27.5 74.5t27.5 74.5t72.5 30.5t72.5 -30.5t27.5 -74.5t-27.5 -74.5t-72.5 -30.5zM-272 647q43 0 43 56t-43 56t-43 -56t43 -56z" />
    <glyph glyph-name="uni030B.sc" horiz-adv-x="1" 
d="M-178 599l-54 30l99 211l82 -50zM-359 599l-54 30l99 211l82 -50z" />
    <glyph glyph-name="uni030C.sc" horiz-adv-x="1" 
d="M-261 605l-123 127l33 45l119 -84l120 84l33 -45l-124 -127h-58z" />
    <glyph glyph-name="uni0326.sc" horiz-adv-x="1" 
d="M-345 -238l-16 40q23 7 44 21.5t21 28.5q-17 2 -32 15t-15 37t15.5 39t36.5 15q27 0 44 -18.5t17 -51.5q0 -98 -115 -126z" />
    <glyph glyph-name="uni0327.sc" horiz-adv-x="1" 
d="M-272 -214q-45 0 -79 24l22 46q32 -15 56 -15q37 0 37 32q0 33 -36 33q-18 0 -43 -5l33 99l4 16h56l-5 -16l-19 -51q73 -6 73 -81q0 -36 -23.5 -59t-75.5 -23z" />
    <glyph glyph-name="uni0328.sc" horiz-adv-x="1" 
d="M-271 -214q-43 0 -66 23.5t-23 57.5q0 65 60 133l16 19h64l-14 -19q-63 -80 -63 -127q0 -32 32 -32q22 0 56 16l21 -47q-37 -24 -83 -24z" />
    <glyph glyph-name="perthousand.sc" horiz-adv-x="1085" 
d="M889 -10q-62 0 -99.5 41.5t-37.5 110.5t37.5 110t98.5 41q62 0 100 -41.5t38 -111.5q0 -69 -37.5 -109.5t-99.5 -40.5zM196 266q-61 0 -99 41.5t-38 110.5t38 110t100 41q61 0 98.5 -42t37.5 -111t-37.5 -109.5t-99.5 -40.5zM568 -10q-62 0 -99.5 41.5t-37.5 110.5
t37.5 110t99.5 41t99 -41.5t37 -111.5q0 -69 -37 -109.5t-99 -40.5zM175 0l339 559h75l-339 -559h-75zM196 324q60 0 60 89q0 55 -14 76.5t-46 21.5q-31 0 -45 -21.5t-14 -68.5q0 -54 13.5 -75.5t45.5 -21.5zM568 49q59 0 59 89q0 54 -14 75.5t-46 21.5q-31 0 -44.5 -21
t-13.5 -68q0 -55 13.5 -76t45.5 -21zM889 49q59 0 59 89q0 54 -14 75.5t-46 21.5q-31 0 -44.5 -21t-13.5 -68q0 -55 13.5 -76t45.5 -21z" />
    <glyph glyph-name="Euro.sc" horiz-adv-x="610" 
d="M67 318v63h89q36 191 215 191q88 0 142 -44l-39 -61q-42 33 -102 33q-58 0 -87.5 -28.5t-40.5 -90.5h176v-63h-182v-71h182v-63h-176q10 -66 40 -95.5t90 -29.5q63 0 109 38l39 -59q-67 -51 -151 -51q-185 0 -217 197h-87v63h80v30q0 27 1 41h-81z" />
    <glyph glyph-name="minus.sc" horiz-adv-x="549" 
d="M73 255v75h402v-75h-402z" />
    <glyph glyph-name="uniFB00.sc" horiz-adv-x="914" 
d="M100 0v559h292v-75h-204v-154h164v-74h-164v-256h-88zM557 0v559h292v-75h-204v-154h164v-74h-164v-256h-88z" />
    <glyph glyph-name="fi.sc" horiz-adv-x="826" 
d="M100 0v559h292v-75h-204v-154h164v-74h-164v-256h-88zM534 0v48l63 9v444l-63 10v48h215v-48l-64 -10v-444l64 -9v-48h-215z" />
    <glyph glyph-name="fl.sc" horiz-adv-x="906" 
d="M100 0v559h292v-75h-204v-154h164v-74h-164v-256h-88zM557 0v559h88v-483h196v-76h-284z" />
    <glyph glyph-name="uniFB03.sc" horiz-adv-x="1283" 
d="M100 0v559h292v-75h-204v-154h164v-74h-164v-256h-88zM557 0v559h292v-75h-204v-154h164v-74h-164v-256h-88zM991 0v48l63 9v444l-63 10v48h215v-48l-64 -10v-444l64 -9v-48h-215z" />
    <glyph glyph-name="uniFB04.sc" horiz-adv-x="1363" 
d="M100 0v559h292v-75h-204v-154h164v-74h-164v-256h-88zM557 0v559h292v-75h-204v-154h164v-74h-164v-256h-88zM1014 0v559h88v-483h196v-76h-284z" />
    <glyph glyph-name="uniFB05.sc" horiz-adv-x="940" 
d="M234 -13q-108 0 -174 56l36 64q61 -45 131 -45q100 0 100 87q0 42 -21.5 61t-79.5 40q-75 29 -108.5 64.5t-33.5 104.5q0 75 44 114t121 39q87 0 143 -38l-34 -68q-51 32 -103 32q-85 0 -85 -74q0 -37 18 -54.5t68 -35.5q31 -11 51 -19.5t43 -23.5t36 -32.5t22 -44
t9 -59.5q0 -75 -43.5 -121.5t-139.5 -46.5zM662 0v483h-133v76h354v-76h-133v-483h-88z" />
    <glyph glyph-name="uniFB06.sc" horiz-adv-x="940" 
d="M234 -13q-108 0 -174 56l36 64q61 -45 131 -45q100 0 100 87q0 42 -21.5 61t-79.5 40q-75 29 -108.5 64.5t-33.5 104.5q0 75 44 114t121 39q87 0 143 -38l-34 -68q-51 32 -103 32q-85 0 -85 -74q0 -37 18 -54.5t68 -35.5q31 -11 51 -19.5t43 -23.5t36 -32.5t22 -44
t9 -59.5q0 -75 -43.5 -121.5t-139.5 -46.5zM662 0v483h-133v76h354v-76h-133v-483h-88z" />
    <glyph glyph-name="numbersign.tosf.sc" 
d="M94 346v68h86l21 145h65l-21 -145h97l21 145h64l-21 -145h73v-68h-83l-18 -123h76v-68h-86l-22 -155h-64l22 155h-97l-22 -155h-65l22 155h-72v68h82l18 123h-76zM235 346l-18 -123h97l18 123h-97z" />
    <glyph glyph-name="dollar.tosf.sc" 
d="M253 -115v105q-105 8 -166 60l37 61q67 -46 133 -50v196q-74 29 -109.5 63.5t-35.5 99.5q0 67 37.5 105t103.5 44v118h62v-118q72 -7 123 -43l-36 -63q-42 30 -91 35v-169q75 -28 113.5 -65t38.5 -111q0 -145 -148 -162v-106h-62zM378 149q0 37 -15 54t-52 33v-172
q67 11 67 85zM194 425q0 -30 14.5 -46t48.5 -30v148q-63 -12 -63 -72z" />
    <glyph glyph-name="plus.tosf.sc" 
d="M235 68v177h-161v75h161v177h81v-177h160v-75h-160v-177h-81z" />
    <glyph glyph-name="zero.tosf.sc" 
d="M276 -13q-210 0 -210 290q0 144 54 219.5t154 75.5q209 0 209 -290q0 -295 -207 -295zM275 57q64 0 88.5 50.5t24.5 170.5q0 121 -24.5 172t-88.5 51t-89 -50.5t-25 -169.5q0 -120 25 -172t89 -52z" />
    <glyph glyph-name="one.tosf.sc" 
d="M138 0v69h110v381l-107 -53l-25 48l155 120h65v-496h98v-69h-296z" />
    <glyph glyph-name="two.tosf.sc" 
d="M103 0v79q152 128 198.5 191t46.5 131q0 50 -21.5 72.5t-66.5 22.5q-62 0 -128 -41l-32 63q84 53 168 53q79 0 125.5 -41t46.5 -125q0 -80 -48.5 -149.5t-188.5 -181.5h247v-74h-347z" />
    <glyph glyph-name="three.tosf.sc" 
d="M244 -78q-80 0 -152 28l17 69q73 -20 129 -20q70 0 97.5 26t27.5 97q0 68 -29 90t-100 22h-35v69h44q59 0 82 23.5t23 79.5q0 47 -21.5 68t-70.5 21q-65 0 -131 -33l-27 64q82 45 171 45q79 0 124 -41t45 -114q0 -54 -19 -88.5t-66 -54.5q105 -29 105 -155
q0 -100 -51 -148t-163 -48z" />
    <glyph glyph-name="four.tosf.sc" 
d="M57 86v81l182 392h90l-183 -399h195v229l88 16v-245h64v-74h-64v-153h-88v153h-284z" />
    <glyph glyph-name="five.tosf.sc" 
d="M227 -78q-71 0 -137 26l20 68q69 -19 116 -19q140 0 140 139q0 64 -33.5 93.5t-102.5 29.5q-51 0 -105 -17l30 317h283v-75h-211l-17 -158q19 3 49 3q93 0 146.5 -49t53.5 -139q0 -104 -60 -161.5t-172 -57.5z" />
    <glyph glyph-name="six.tosf.sc" 
d="M279 -11q-93 0 -150.5 67t-57.5 186q0 334 326 395l18 -65q-111 -29 -167.5 -78t-74.5 -150q54 46 124 46q80 0 131 -53.5t51 -143.5q0 -95 -56.5 -149.5t-143.5 -54.5zM280 321q-62 0 -115 -43q-1 -15 -1 -46q0 -92 28.5 -133t86.5 -41q52 0 80 35.5t28 98.5
q0 61 -28 95t-79 34z" />
    <glyph glyph-name="seven.tosf.sc" 
d="M250 -77l-90 12q16 178 78.5 321t135.5 227h-282v76h366v-81q-77 -85 -138 -237t-70 -318z" />
    <glyph glyph-name="eight.tosf.sc" 
d="M275 -11q-96 0 -147.5 49t-51.5 126q0 61 29 99.5t86 62.5q-93 48 -93 151q0 73 47.5 114.5t131.5 41.5q81 0 129 -41.5t48 -110.5q0 -97 -106 -148q68 -28 97 -70t29 -102q0 -81 -53 -126.5t-146 -45.5zM301 272l-57 23q-80 -45 -80 -127q0 -114 113 -114
q51 0 78.5 26.5t27.5 71.5q0 43 -18 72t-64 48zM187 479q0 -40 16.5 -64t65.5 -43l20 -8q46 26 61.5 51.5t15.5 65.5q0 86 -90 86q-89 0 -89 -88z" />
    <glyph glyph-name="nine.tosf.sc" 
d="M144 -81l-18 66q110 29 170 80t80 149q-55 -45 -121 -45q-83 0 -133.5 54t-50.5 143q0 95 57.5 150t143.5 55q95 0 151 -64t56 -186q0 -339 -335 -402zM267 238q67 0 118 42q2 32 2 50q0 92 -30 131.5t-86 39.5q-108 0 -108 -134q0 -129 104 -129z" />
    <glyph glyph-name="less.tosf.sc" 
d="M362 71l-225 199v44l225 199l50 -52l-189 -168l189 -168z" />
    <glyph glyph-name="equal.tosf.sc" 
d="M74 345v75h402v-75h-402zM74 145v75h402v-75h-402z" />
    <glyph glyph-name="greater.tosf.sc" 
d="M187 71l-50 52l189 168l-189 168l50 54l225 -199v-44z" />
    <glyph glyph-name="cent.tosf.sc" 
d="M262 -115v106q-149 20 -149 230t149 229v109h61v-107q59 -6 108 -50l-45 -55q-30 30 -66 34v-323q32 4 70 37l46 -53q-45 -46 -113 -52v-105h-61zM200 221q0 -78 15 -114t49 -46v319q-34 -8 -49 -43.5t-15 -115.5z" />
    <glyph glyph-name="sterling.tosf.sc" 
d="M90 244v72h52q-17 49 -17 97q0 75 46.5 117t122.5 42q79 0 165 -55l-33 -61q-64 41 -123 41q-90 0 -90 -82q0 -33 18 -99h163v-72h-144q5 -28 5 -52q0 -78 -58 -118h258v-74h-363v79q44 20 63 47t19 64q0 25 -8 54h-76z" />
    <glyph glyph-name="currency.tosf.sc" 
d="M94 26l-56 54l74 77q-26 52 -26 122q0 69 25 119l-76 79l54 51l68 -69q51 43 116 43q67 0 116 -42l66 68l56 -53l-73 -77q25 -50 25 -119t-25 -121l76 -80l-54 -51l-69 70q-51 -42 -116 -42q-64 0 -114 41zM275 127q52 0 74 32.5t22 118.5t-22.5 119t-74.5 33t-74 -32.5
t-22 -118.5t22.5 -119t74.5 -33z" />
    <glyph glyph-name="yen.tosf.sc" 
d="M73 126v66h157v28l-23 46h-134v66h101l-114 227h100l80 -174q23 -50 36 -100q25 80 35 100l83 174h95l-114 -227h102v-66h-135l-23 -46v-28h158v-66h-158v-126h-89v126h-157z" />
    <glyph glyph-name="section.tosf.sc" 
d="M262 -148q-92 0 -155 43l33 61q56 -35 121 -35q80 0 80 69q0 14 -6.5 25.5t-13 18t-26 14.5t-30 11.5t-39.5 12.5q-75 23 -109.5 56t-34.5 98q0 85 87 115q-40 35 -40 101q0 58 37.5 93.5t115.5 35.5q71 0 138 -36l-30 -63q-53 29 -103 29q-76 0 -76 -57q0 -30 17.5 -42
t70.5 -28q7 -2 11 -3q41 -13 63.5 -22t47.5 -26t36 -42.5t11 -61.5q0 -91 -86 -123q44 -37 44 -102q0 -69 -41.5 -105.5t-122.5 -36.5zM265 295q-20 6 -29 9q-75 -11 -75 -75q0 -31 23.5 -46.5t86.5 -34.5l45 -15q69 13 69 79q0 33 -19.5 46t-81.5 31q-12 4 -19 6z" />
    <glyph glyph-name="logicalnot.tosf.sc" 
d="M360 138v140h-252v75h333v-215h-81z" />
    <glyph glyph-name="plusminus.tosf.sc" 
d="M235 148v137h-161v75h161v147h81v-147h160v-75h-160v-137h-81zM74 30v75h402v-75h-402z" />
    <glyph glyph-name="multiply.tosf.sc" 
d="M407 89l-132 139l-129 -138l-52 55l130 136l-132 139l50 52l133 -138l128 136l52 -54l-129 -135l131 -140z" />
    <glyph glyph-name="divide.tosf.sc" 
d="M74 245v75h402v-75h-402zM275 399q-27 0 -46 19t-19 47t19 47t46 19q28 0 46.5 -19t18.5 -47t-18.5 -47t-46.5 -19zM275 34q-27 0 -46 19t-19 47t19 47t46 19q28 0 46.5 -19t18.5 -47t-18.5 -47t-46.5 -19z" />
    <glyph glyph-name="florin.tosf.sc" 
d="M124 318v67h70l14 132q15 133 126 133q55 0 92 -23l-26 -63q-26 13 -53 13q-25 0 -37.5 -13.5t-16.5 -46.5l-14 -132h92v-67h-99l-50 -493h-84l50 493h-64z" />
    <glyph glyph-name="Euro.tosf.sc" 
d="M47 318v63h89q36 191 215 191q88 0 142 -44l-39 -61q-42 33 -102 33q-58 0 -87.5 -28.5t-40.5 -90.5h176v-63h-182v-71h182v-63h-176q10 -66 40 -95.5t90 -29.5q63 0 109 38l39 -59q-67 -51 -151 -51q-185 0 -217 197h-87v63h80v30q0 27 1 41h-81z" />
    <glyph glyph-name="minus.tosf.sc" 
d="M74 245v75h402v-75h-402z" />
    <glyph glyph-name="parenleft.case" horiz-adv-x="353" 
d="M285 -123q-224 109 -224 462q0 188 55.5 303t167.5 169l29 -53q-81 -52 -118 -148t-37 -269q0 -174 37 -267t118 -144z" />
    <glyph glyph-name="parenright.case" horiz-adv-x="353" 
d="M67 -123l-28 53q81 51 118 144t37 267q0 173 -37 269t-118 148l29 53q112 -54 167.5 -169t55.5 -303q0 -353 -224 -462z" />
    <glyph glyph-name="hyphen.case" horiz-adv-x="301" 
d="M53 298v91h193v-91h-193z" />
    <glyph glyph-name="bracketleft.case" horiz-adv-x="320" 
d="M88 -100v888h183v-67h-97v-754h97v-67h-183z" />
    <glyph glyph-name="bracketright.case" horiz-adv-x="320" 
d="M48 -100v67h97v754h-97v67h183v-888h-183z" />
    <glyph glyph-name="braceleft.case" horiz-adv-x="375" 
d="M252 -100q-119 0 -119 126v207q0 45 -19 59.5t-68 14.5v78q49 0 68 14.5t19 59.5v203q0 126 119 126h74v-67h-61q-28 0 -37 -14.5t-9 -52.5v-205q0 -54 -18.5 -75.5t-54.5 -26.5v-2q36 -5 54.5 -26.5t18.5 -75.5v-209q0 -38 9 -52.5t37 -14.5h61v-67h-74z" />
    <glyph glyph-name="braceright.case" horiz-adv-x="375" 
d="M48 -100v67h61q28 0 37 14.5t9 52.5v209q0 54 18.5 75.5t54.5 26.5v2q-36 5 -54.5 26.5t-18.5 75.5v205q0 38 -9 52.5t-37 14.5h-61v67h74q119 0 119 -126v-203q0 -45 19 -59.5t68 -14.5v-78q-49 0 -68 -14.5t-19 -59.5v-207q0 -126 -119 -126h-74z" />
    <glyph glyph-name="guillemotleft.case" horiz-adv-x="513" 
d="M389 122l-139 221l139 222l65 -44l-110 -178l109 -179zM195 122l-139 221l139 222l65 -44l-110 -178l109 -179z" />
    <glyph glyph-name="uni00AD.case" horiz-adv-x="301" 
d="M53 298v91h193v-91h-193z" />
    <glyph glyph-name="guillemotright.case" horiz-adv-x="513" 
d="M317 122l-65 44l110 178l-109 179l64 42l139 -221zM123 122l-65 44l110 178l-109 179l64 42l139 -221z" />
    <glyph glyph-name="gravecomb.case" horiz-adv-x="1" 
d="M-260 738l-206 102l46 84l191 -133z" />
    <glyph glyph-name="acutecomb.case" horiz-adv-x="1" 
d="M-382 738l-31 53l191 133l46 -84z" />
    <glyph glyph-name="uni0302.case" horiz-adv-x="1" 
d="M-441 744l-33 45l124 127h58l123 -127l-33 -45l-119 84z" />
    <glyph glyph-name="tildecomb.case" horiz-adv-x="1" 
d="M-433 753l-45 33q40 86 103 86q28 0 63.5 -19t54.5 -19q11 0 20.5 6t15 12.5t16.5 21.5l45 -33q-40 -86 -103 -86q-28 0 -63.5 19t-54.5 19q-11 0 -20.5 -6t-15 -12.5t-16.5 -21.5z" />
    <glyph glyph-name="uni0304.case" horiz-adv-x="1" 
d="M-401 793v74h257v-74h-257z" />
    <glyph glyph-name="uni0306.case" horiz-adv-x="1" 
d="M-272 744q-58 0 -95.5 38t-47.5 89l58 15q12 -33 30.5 -48.5t54.5 -15.5t54.5 15.5t30.5 48.5l58 -15q-10 -51 -48 -89t-95 -38z" />
    <glyph glyph-name="uni0307.case" horiz-adv-x="1" 
d="M-272 741q-24 0 -41.5 17.5t-17.5 42.5t17.5 42.5t41.5 17.5t41.5 -17.5t17.5 -42.5t-17.5 -42.5t-41.5 -17.5z" />
    <glyph glyph-name="uni0308.case" horiz-adv-x="1" 
d="M-173 741q-23 0 -41 17.5t-18 42.5t18 42.5t41 17.5t41 -17.5t18 -42.5t-18 -42.5t-41 -17.5zM-372 741q-24 0 -41.5 17.5t-17.5 42.5t17.5 42.5t41.5 17.5t41.5 -17.5t17.5 -42.5t-17.5 -42.5t-41.5 -17.5z" />
    <glyph glyph-name="uni030A.case" horiz-adv-x="1" 
d="M-272 725q-45 0 -72.5 30.5t-27.5 74.5t27.5 74.5t72.5 30.5t72.5 -30.5t27.5 -74.5t-27.5 -74.5t-72.5 -30.5zM-272 774q43 0 43 56t-43 56t-43 -56t43 -56z" />
    <glyph glyph-name="uni030B.case" horiz-adv-x="1" 
d="M-178 738l-54 30l99 211l82 -50zM-359 738l-54 30l99 211l82 -50z" />
    <glyph glyph-name="uni030C.case" horiz-adv-x="1" 
d="M-266 744l-123 127l33 45l119 -84l120 84l33 -45l-124 -127h-58z" />
    <glyph glyph-name="uni0326.case" horiz-adv-x="1" 
d="M-146 -213h-62l29 164h83z" />
    <glyph glyph-name="uni0327.case" horiz-adv-x="1" 
d="M-272 -214q-45 0 -79 24l22 46q32 -15 56 -15q37 0 37 32q0 33 -36 33q-18 0 -43 -5l33 99l4 16h56l-5 -16l-19 -51q73 -6 73 -81q0 -36 -23.5 -59t-75.5 -23z" />
    <glyph glyph-name="uni0328.case" horiz-adv-x="1" 
d="M-271 -214q-43 0 -66 23.5t-23 57.5q0 65 60 133l16 19h64l-14 -19q-63 -80 -63 -127q0 -32 32 -32q22 0 56 16l21 -47q-37 -24 -83 -24z" />
    <glyph glyph-name="endash.case" horiz-adv-x="567" 
d="M54 306v75h457v-75h-457z" />
    <glyph glyph-name="emdash.case" horiz-adv-x="780" 
d="M54 306v75h670v-75h-670z" />
    <glyph glyph-name="guilsinglleft.case" horiz-adv-x="319" 
d="M195 122l-139 221l139 222l65 -44l-110 -178l109 -179z" />
    <glyph glyph-name="guilsinglright.case" horiz-adv-x="319" 
d="M123 122l-65 44l110 178l-109 179l64 42l139 -221z" />
    <glyph glyph-name="a.ss01" horiz-adv-x="531" 
d="M228 -13q-80 0 -123.5 57.5t-43.5 202.5q0 141 40 204t128 63q39 0 75.5 -19.5t60.5 -46.5l14 53h67v-501h-67l-14 52q-59 -65 -137 -65zM243 61q60 0 117 54v271q-56 54 -109 54q-38 0 -57.5 -13t-30 -53.5t-10.5 -120.5q0 -118 18.5 -155t71.5 -37z" />
    <glyph glyph-name="agrave.ss01" horiz-adv-x="531" 
d="M228 -13q-80 0 -123.5 57.5t-43.5 202.5q0 141 40 204t128 63q39 0 75.5 -19.5t60.5 -46.5l14 53h67v-501h-67l-14 52q-59 -65 -137 -65zM243 61q60 0 117 54v271q-56 54 -109 54q-38 0 -57.5 -13t-30 -53.5t-10.5 -120.5q0 -118 18.5 -155t71.5 -37zM346 564l-206 102
l46 84l191 -133z" />
    <glyph glyph-name="aacute.ss01" horiz-adv-x="531" 
d="M228 -13q-80 0 -123.5 57.5t-43.5 202.5q0 141 40 204t128 63q39 0 75.5 -19.5t60.5 -46.5l14 53h67v-501h-67l-14 52q-59 -65 -137 -65zM243 61q60 0 117 54v271q-56 54 -109 54q-38 0 -57.5 -13t-30 -53.5t-10.5 -120.5q0 -118 18.5 -155t71.5 -37zM197 564l-31 53
l191 133l46 -84z" />
    <glyph glyph-name="acircumflex.ss01" horiz-adv-x="531" 
d="M228 -13q-80 0 -123.5 57.5t-43.5 202.5q0 141 40 204t128 63q39 0 75.5 -19.5t60.5 -46.5l14 53h67v-501h-67l-14 52q-59 -65 -137 -65zM243 61q60 0 117 54v271q-56 54 -109 54q-38 0 -57.5 -13t-30 -53.5t-10.5 -120.5q0 -118 18.5 -155t71.5 -37zM147 570l-33 45
l124 127h58l123 -127l-33 -45l-119 84z" />
    <glyph glyph-name="atilde.ss01" horiz-adv-x="531" 
d="M228 -13q-80 0 -123.5 57.5t-43.5 202.5q0 141 40 204t128 63q39 0 75.5 -19.5t60.5 -46.5l14 53h67v-501h-67l-14 52q-59 -65 -137 -65zM243 61q60 0 117 54v271q-56 54 -109 54q-38 0 -57.5 -13t-30 -53.5t-10.5 -120.5q0 -118 18.5 -155t71.5 -37zM151 579l-45 33
q40 86 103 86q28 0 63.5 -19t54.5 -19q11 0 20.5 6t15 12.5t16.5 21.5l45 -33q-40 -86 -103 -86q-28 0 -63.5 19t-54.5 19q-11 0 -20.5 -6t-15 -12.5t-16.5 -21.5z" />
    <glyph glyph-name="adieresis.ss01" horiz-adv-x="531" 
d="M228 -13q-80 0 -123.5 57.5t-43.5 202.5q0 141 40 204t128 63q39 0 75.5 -19.5t60.5 -46.5l14 53h67v-501h-67l-14 52q-59 -65 -137 -65zM243 61q60 0 117 54v271q-56 54 -109 54q-38 0 -57.5 -13t-30 -53.5t-10.5 -120.5q0 -118 18.5 -155t71.5 -37zM164 567
q-24 0 -41.5 17.5t-17.5 42.5t17.5 42.5t41.5 17.5t41.5 -17.5t17.5 -42.5t-17.5 -42.5t-41.5 -17.5zM363 567q-23 0 -41 17.5t-18 42.5t18 42.5t41 17.5t41 -17.5t18 -42.5t-18 -42.5t-41 -17.5z" />
    <glyph glyph-name="aring.ss01" horiz-adv-x="531" 
d="M228 -13q-80 0 -123.5 57.5t-43.5 202.5q0 141 40 204t128 63q39 0 75.5 -19.5t60.5 -46.5l14 53h67v-501h-67l-14 52q-59 -65 -137 -65zM243 61q60 0 117 54v271q-56 54 -109 54q-38 0 -57.5 -13t-30 -53.5t-10.5 -120.5q0 -118 18.5 -155t71.5 -37zM263 563
q-45 0 -72.5 30.5t-27.5 74.5t27.5 74.5t72.5 30.5t72.5 -30.5t27.5 -74.5t-27.5 -74.5t-72.5 -30.5zM263 612q43 0 43 56t-43 56t-43 -56t43 -56z" />
    <glyph glyph-name="H18543.ss01" horiz-adv-x="457" 
d="M75 432h307v-318h-307v318z" />
    <glyph glyph-name="H18551.ss01" horiz-adv-x="457" 
d="M75 432h307v-318h-307v318zM138 173h181v200h-181v-200z" />
    <glyph glyph-name="g.ss02" horiz-adv-x="541" 
d="M274 -206q-109 0 -198 58l35 66q76 -49 155 -49q52 0 76 30.5t24 102.5v65q-57 -60 -134 -60q-80 0 -125.5 56t-45.5 194q0 134 42 195.5t130 61.5q39 0 76.5 -19.5t61.5 -46.5l14 53h67v-511q0 -196 -178 -196zM247 81q62 0 119 54v251q-56 54 -111 54q-39 0 -59 -11.5
t-31.5 -50.5t-11.5 -115q0 -112 20 -147t74 -35z" />
    <glyph glyph-name="J.ss03" horiz-adv-x="348" 
d="M51 -11l-20 65q81 27 106 61t25 101v473h92v-466q0 -108 -41.5 -158t-161.5 -76z" />
    <glyph glyph-name="IJ.ss03" horiz-adv-x="644" 
d="M102 0v689h92v-689h-92zM347 -11l-20 65q81 27 106 61t25 101v473h92v-466q0 -108 -41.5 -158t-161.5 -76z" />
    <glyph glyph-name="j.sc.ss03" horiz-adv-x="310" 
d="M40 -8l-19 62q64 26 84 58t20 96v351h88v-344q0 -104 -35 -151.5t-138 -71.5z" />
    <glyph glyph-name="M.ss04" horiz-adv-x="805" 
d="M89 0l55 689h123l105 -416q22 -87 29 -170h2q11 96 30 170l107 416h121l55 -689h-92l-32 429q-3 34 -4 75.5t-1 73.5v37h-2q-1 -5 -5.5 -37.5t-11.5 -74t-16 -75.5l-110 -428h-90l-105 416q-10 38 -17.5 83t-12 78t-5.5 38h-2v-40.5t-1 -77t-4 -81.5l-31 -416h-85z" />
    <glyph glyph-name="m.sc.ss04" horiz-adv-x="693" 
d="M458 559h116l44 -559h-83l-26 348q-4 50 -4 151h-2q-1 -3 -4.5 -30t-9.5 -60.5t-13 -61.5l-89 -347h-89l-85 338q-8 31 -14.5 67t-10 63.5t-4.5 30.5h-2q0 -106 -4 -161l-25 -338h-78l45 559h117l85 -338q17 -67 24 -137h1q8 72 25 137z" />
    <glyph glyph-name="U.ss05" horiz-adv-x="629" 
d="M314 -13q-220 0 -220 225v477h92v-469q0 -85 30.5 -119.5t98.5 -34.5q67 0 97.5 35.5t30.5 120.5v467h92v-471q0 -231 -221 -231z" />
    <glyph glyph-name="Ugrave.ss05" horiz-adv-x="629" 
d="M314 -13q-220 0 -220 225v477h92v-469q0 -85 30.5 -119.5t98.5 -34.5q67 0 97.5 35.5t30.5 120.5v467h92v-471q0 -231 -221 -231zM378 738l-206 102l46 84l191 -133z" />
    <glyph glyph-name="Uacute.ss05" horiz-adv-x="629" 
d="M314 -13q-220 0 -220 225v477h92v-469q0 -85 30.5 -119.5t98.5 -34.5q67 0 97.5 35.5t30.5 120.5v467h92v-471q0 -231 -221 -231zM255 738l-31 53l191 133l46 -84z" />
    <glyph glyph-name="Ucircumflex.ss05" horiz-adv-x="629" 
d="M314 -13q-220 0 -220 225v477h92v-469q0 -85 30.5 -119.5t98.5 -34.5q67 0 97.5 35.5t30.5 120.5v467h92v-471q0 -231 -221 -231zM196 744l-33 45l124 127h58l123 -127l-33 -45l-119 84z" />
    <glyph glyph-name="Udieresis.ss05" horiz-adv-x="629" 
d="M314 -13q-220 0 -220 225v477h92v-469q0 -85 30.5 -119.5t98.5 -34.5q67 0 97.5 35.5t30.5 120.5v467h92v-471q0 -231 -221 -231zM214 741q-24 0 -41.5 17.5t-17.5 42.5t17.5 42.5t41.5 17.5t41.5 -17.5t17.5 -42.5t-17.5 -42.5t-41.5 -17.5zM413 741q-23 0 -41 17.5
t-18 42.5t18 42.5t41 17.5t41 -17.5t18 -42.5t-18 -42.5t-41 -17.5z" />
    <glyph glyph-name="u.sc.ss05" horiz-adv-x="568" 
d="M384 559h87v-388q0 -101 -49 -142.5t-140 -41.5q-185 0 -185 185v387h87v-384q0 -59 24.5 -85.5t73.5 -26.5q54 0 78 26t24 86v384z" />
    <glyph glyph-name="ugrave.sc.ss05" horiz-adv-x="568" 
d="M384 559h87v-388q0 -101 -49 -142.5t-140 -41.5q-185 0 -185 185v387h87v-384q0 -59 24.5 -85.5t73.5 -26.5q54 0 78 26t24 86v384zM340 599l-206 102l46 84l191 -133z" />
    <glyph glyph-name="uacute.sc.ss05" horiz-adv-x="568" 
d="M384 559h87v-388q0 -101 -49 -142.5t-140 -41.5q-185 0 -185 185v387h87v-384q0 -59 24.5 -85.5t73.5 -26.5q54 0 78 26t24 86v384zM230 599l-31 53l191 133l46 -84z" />
    <glyph glyph-name="ucircumflex.sc.ss05" horiz-adv-x="568" 
d="M384 559h87v-388q0 -101 -49 -142.5t-140 -41.5q-185 0 -185 185v387h87v-384q0 -59 24.5 -85.5t73.5 -26.5q54 0 78 26t24 86v384zM166 605l-33 45l124 127h58l123 -127l-33 -45l-119 84z" />
    <glyph glyph-name="udieresis.sc.ss05" horiz-adv-x="568" 
d="M384 559h87v-388q0 -101 -49 -142.5t-140 -41.5q-185 0 -185 185v387h87v-384q0 -59 24.5 -85.5t73.5 -26.5q54 0 78 26t24 86v384zM184 602q-24 0 -41.5 18t-17.5 42t17.5 42t41.5 18t41.5 -18t17.5 -42t-17.5 -42t-41.5 -18zM383 602q-23 0 -41 18t-18 42t18 42t41 18
t41 -18t18 -42t-18 -42t-41 -18z" />
    <glyph glyph-name="arrowleft.ss06" horiz-adv-x="890" 
d="M571 306v76h105v-76h-105zM203 382h314v-76h-315l246 -268l-50 -54l-347 359l347 359l50 -54zM730 306v76h105v-76h-105z" />
    <glyph glyph-name="arrowup.ss06" horiz-adv-x="768" 
d="M345 61v105h80v-105h-80zM345 528l-268 -240l-52 52l359 346l359 -346l-54 -53l-264 240v-307h-80v308zM345 -98v105h80v-105h-80z" />
    <glyph glyph-name="arrowright.ss06" horiz-adv-x="890" 
d="M319 382v-76h-105v76h105zM373 382h314l-245 266l50 54l347 -359l-347 -359l-50 54l246 268h-315v76zM160 382v-76h-105v76h105z" />
    <glyph glyph-name="arrowdown.ss06" horiz-adv-x="768" 
d="M345 520v105h80v-105h-80zM77 398l268 -240v308h80v-307l264 240l54 -53l-359 -346l-359 346zM345 679v105h80v-105h-80z" />
    <glyph glyph-name="uni2196.ss06" horiz-adv-x="890" 
d="M513 230l51 56l78 -70l-51 -56zM291 533l233 -211l-51 -56l-234 211l4 -364l-74 -7l-17 499l498 35l1 -74zM632 123l50 57l78 -70l-50 -57z" />
    <glyph glyph-name="uni2197.ss06" horiz-adv-x="890" 
d="M364 286l51 -56l-78 -70l-51 56zM404 322l233 211l-360 33l1 74l498 -35l-17 -499l-74 7l4 364l-234 -211zM246 180l50 -57l-78 -70l-50 57z" />
    <glyph glyph-name="uni2198.ss06" horiz-adv-x="890" 
d="M416 448l-51 -57l-78 70l51 57zM456 411l233 -210l-4 362l74 7l17 -499l-498 -35l-1 74l362 34l-234 211zM298 554l-51 -56l-78 70l51 56z" />
    <glyph glyph-name="uni2199.ss06" horiz-adv-x="890" 
d="M563 391l-51 57l78 70l51 -57zM239 201l233 210l51 -56l-234 -211l362 -34l-1 -74l-498 35l17 499l74 -7zM681 498l-51 56l78 70l51 -56z" />
    <glyph glyph-name="arrowleft.ss07" horiz-adv-x="765" 
d="M382 -8q-145 0 -246.5 102.5t-101.5 248.5q0 145 101.5 247.5t246.5 102.5t247 -102.5t102 -247.5q0 -146 -102 -248.5t-247 -102.5zM382 51q107 0 185.5 75t90.5 183h-323l132 -141l-49 -52l-222 226l222 227l50 -53l-132 -137h322q-13 107 -91.5 181.5t-184.5 74.5
q-116 0 -197 -87t-81 -205q0 -119 81 -205.5t197 -86.5z" />
    <glyph glyph-name="arrowup.ss07" horiz-adv-x="765" 
d="M382 -8q-145 0 -246.5 102.5t-101.5 248.5q0 145 101.5 247.5t246.5 102.5t247 -102.5t102 -247.5q0 -146 -102 -248.5t-247 -102.5zM104 343q0 -109 69 -192t172 -98v350l-128 -131l-53 52l216 222l217 -222l-54 -53l-124 130v-348q103 15 172 98t69 192q0 118 -81 205
t-197 87t-197 -87t-81 -205z" />
    <glyph glyph-name="arrowright.ss07" horiz-adv-x="765" 
d="M382 -8q-145 0 -246.5 102.5t-101.5 248.5q0 145 101.5 247.5t246.5 102.5t247 -102.5t102 -247.5q0 -146 -102 -248.5t-247 -102.5zM382 51q116 0 197 86.5t81 205.5q0 118 -81 205t-197 87q-106 0 -184.5 -74.5t-91.5 -181.5h322l-132 137l50 53l222 -227l-222 -226
l-49 52l132 141h-323q12 -108 90.5 -183t185.5 -75z" />
    <glyph glyph-name="arrowdown.ss07" horiz-adv-x="765" 
d="M382 -8q-145 0 -246.5 102.5t-101.5 248.5q0 145 101.5 247.5t246.5 102.5t247 -102.5t102 -247.5q0 -146 -102 -248.5t-247 -102.5zM382 51q116 0 197 86.5t81 205.5q0 108 -69 191.5t-172 97.5v-347l124 130l54 -53l-217 -222l-216 222l53 52l128 -131v349
q-103 -14 -172 -97.5t-69 -191.5q0 -119 81 -205.5t197 -86.5z" />
    <glyph glyph-name="uni2196.ss07" horiz-adv-x="765" 
d="M382 -8q-145 0 -246.5 102.5t-101.5 248.5q0 145 101.5 247.5t246.5 102.5t247 -102.5t102 -247.5q0 -146 -102 -248.5t-247 -102.5zM382 51q98 0 173 64l-246 246l-2 -195h-73l3 324l325 3v-68l-205 -3l249 -251q54 78 54 172q0 118 -81 205t-197 87t-197 -87t-81 -205
q0 -119 81 -205.5t197 -86.5z" />
    <glyph glyph-name="uni2197.ss07" horiz-adv-x="765" 
d="M382 -8q-145 0 -246.5 102.5t-101.5 248.5q0 145 101.5 247.5t246.5 102.5t247 -102.5t102 -247.5q0 -146 -102 -248.5t-247 -102.5zM382 51q116 0 197 86.5t81 205.5q0 118 -81 205t-197 87t-197 -87t-81 -205q0 -94 54 -172l250 251l-205 3v68l325 -3l3 -324h-73
l-2 195l-247 -247q76 -63 173 -63z" />
    <glyph glyph-name="uni2198.ss07" horiz-adv-x="765" 
d="M382 -8q-145 0 -246.5 102.5t-101.5 248.5q0 145 101.5 247.5t246.5 102.5t247 -102.5t102 -247.5q0 -146 -102 -248.5t-247 -102.5zM382 51q116 0 197 86.5t81 205.5q0 118 -81 205t-197 87q-95 0 -172 -64l246 -246l2 195h73l-3 -324l-325 -3v68l205 3l-250 250
q-54 -78 -54 -171q0 -119 81 -205.5t197 -86.5z" />
    <glyph glyph-name="uni2199.ss07" horiz-adv-x="765" 
d="M382 -8q-145 0 -246.5 102.5t-101.5 248.5q0 145 101.5 247.5t246.5 102.5t247 -102.5t102 -247.5q0 -146 -102 -248.5t-247 -102.5zM382 51q116 0 197 86.5t81 205.5q0 93 -54 171l-249 -250l205 -3v-68l-325 3l-3 324h73l2 -195l245 245q-76 65 -172 65
q-116 0 -197 -87t-81 -205q0 -119 81 -205.5t197 -86.5z" />
    <glyph glyph-name="arrowleft.ss08" horiz-adv-x="704" 
d="M352 20q-129 0 -223.5 94.5t-94.5 227.5t94.5 227.5t223.5 94.5q119 0 211 -82.5t105 -203.5h-395l163 179l-48 50l-255 -267l255 -266l48 50l-163 181h395q-14 -121 -105.5 -203t-210.5 -82z" />
    <glyph glyph-name="arrowup.ss08" horiz-adv-x="704" 
d="M670 342q0 -122 -81.5 -213.5t-198.5 -106.5v398l165 -155l51 56l-256 240l-255 -240l51 -56l167 155v-398q-117 15 -198 106.5t-81 213.5q0 133 94.5 227.5t223.5 94.5t223.5 -94.5t94.5 -227.5z" />
    <glyph glyph-name="arrowright.ss08" horiz-adv-x="704" 
d="M352 20q-120 0 -211.5 82t-104.5 203h395l-163 -181l48 -50l255 266l-255 267l-48 -50l163 -179h-395q14 121 105 203.5t211 82.5q129 0 223.5 -94.5t94.5 -227.5t-94.5 -227.5t-223.5 -94.5z" />
    <glyph glyph-name="arrowdown.ss08" horiz-adv-x="704" 
d="M352 20q-129 0 -223.5 94.5t-94.5 227.5q0 122 81 213t198 106v-397l-167 155l-51 -56l255 -240l256 240l-51 56l-165 -155v397q117 -14 198.5 -105.5t81.5 -213.5q0 -133 -94.5 -227.5t-223.5 -94.5z" />
    <glyph glyph-name="uni2196.ss08" horiz-adv-x="704" 
d="M352 20q-129 0 -223.5 94.5t-94.5 227.5t94.5 227.5t223.5 94.5t223.5 -94.5t94.5 -227.5q0 -110 -67 -196l-290 291l244 8v71l-368 -8l-9 -366h75l8 235l286 -286q-87 -71 -197 -71z" />
    <glyph glyph-name="uni2197.ss08" horiz-adv-x="704" 
d="M352 20q-110 0 -197 71l286 286l8 -235h75l-9 366l-368 8v-71l244 -8l-291 -291q-66 87 -66 196q0 133 94.5 227.5t223.5 94.5t223.5 -94.5t94.5 -227.5t-94.5 -227.5t-223.5 -94.5z" />
    <glyph glyph-name="uni2198.ss08" horiz-adv-x="704" 
d="M352 20q-129 0 -223.5 94.5t-94.5 227.5q0 108 66 195l291 -290l-244 -8v-71l368 8l9 366h-75l-8 -235l-286 286q89 71 197 71q129 0 223.5 -94.5t94.5 -227.5t-94.5 -227.5t-223.5 -94.5z" />
    <glyph glyph-name="uni2199.ss08" horiz-adv-x="704" 
d="M352 20q-129 0 -223.5 94.5t-94.5 227.5t94.5 227.5t223.5 94.5q108 0 197 -71l-286 -286l-8 235h-75l9 -366l368 -8v71l-244 8l290 290q67 -86 67 -195q0 -133 -94.5 -227.5t-223.5 -94.5z" />
    <glyph glyph-name="uni25B6.ss09" horiz-adv-x="488" 
d="M105 603q21 0 36 -15t15 -36t-15 -36t-36 -15t-36 15t-15 36t15 36t36 15zM105 23q21 0 36 -15t15 -36t-15 -36t-36 -15t-36 15t-15 36t15 36t36 15zM105 168q21 0 36 -15t15 -36t-15 -36t-36 -15t-36 15t-15 36t15 36t36 15zM252 168q21 0 36 -15t15 -36t-15 -36
t-36 -15t-36 15t-15 36t15 36t36 15zM105 313q21 0 36 -15t15 -36t-15 -36t-36 -15t-36 15t-15 36t15 36t36 15zM252 313q21 0 36 -15t15 -36t-15 -36t-36 -15t-36 15t-15 36t15 36t36 15zM399 313q21 0 36 -15t15 -36t-15 -36t-36 -15t-36 15t-15 36t15 36t36 15zM105 458
q21 0 36 -15t15 -36t-15 -36t-36 -15t-36 15t-15 36t15 36t36 15zM252 458q21 0 36 -15t15 -36t-15 -36t-36 -15t-36 15t-15 36t15 36t36 15z" />
    <glyph glyph-name="uni25B8.ss09" horiz-adv-x="480" 
d="M110 468q23 0 39.5 -16.5t16.5 -39.5t-16.5 -39.5t-39.5 -16.5t-39.5 16.5t-16.5 39.5t16.5 39.5t39.5 16.5zM110 168q23 0 39.5 -16.5t16.5 -39.5t-16.5 -39.5t-39.5 -16.5t-39.5 16.5t-16.5 39.5t16.5 39.5t39.5 16.5zM248 243q23 0 39.5 -16.5t16.5 -39.5t-16.5 -39.5
t-39.5 -16.5t-39.5 16.5t-16.5 39.5t16.5 39.5t39.5 16.5zM110 318q23 0 39.5 -16.5t16.5 -39.5t-16.5 -39.5t-39.5 -16.5t-39.5 16.5t-16.5 39.5t16.5 39.5t39.5 16.5zM386 318q23 0 39.5 -16.5t16.5 -39.5t-16.5 -39.5t-39.5 -16.5t-39.5 16.5t-16.5 39.5t16.5 39.5
t39.5 16.5zM248 393q23 0 39.5 -16.5t16.5 -39.5t-16.5 -39.5t-39.5 -16.5t-39.5 16.5t-16.5 39.5t16.5 39.5t39.5 16.5z" />
    <glyph glyph-name="uni25C0.ss09" horiz-adv-x="488" 
d="M383 501q-21 0 -36 15t-15 36t15 36t36 15t36 -15t15 -36t-15 -36t-36 -15zM383 -79q-21 0 -36 15t-15 36t15 36t36 15t36 -15t15 -36t-15 -36t-36 -15zM236 66q-21 0 -36 15t-15 36t15 36t36 15t36 -15t15 -36t-15 -36t-36 -15zM383 66q-21 0 -36 15t-15 36t15 36t36 15
t36 -15t15 -36t-15 -36t-36 -15zM89 211q-21 0 -36 15t-15 36t15 36t36 15t36 -15t15 -36t-15 -36t-36 -15zM236 211q-21 0 -36 15t-15 36t15 36t36 15t36 -15t15 -36t-15 -36t-36 -15zM383 211q-21 0 -36 15t-15 36t15 36t36 15t36 -15t15 -36t-15 -36t-36 -15zM236 356
q-21 0 -36 15t-15 36t15 36t36 15t36 -15t15 -36t-15 -36t-36 -15zM383 356q-21 0 -36 15t-15 36t15 36t36 15t36 -15t15 -36t-15 -36t-36 -15z" />
    <glyph glyph-name="uni25C2.ss09" horiz-adv-x="480" 
d="M370 356q-23 0 -39.5 16.5t-16.5 39.5t16.5 39.5t39.5 16.5t39.5 -16.5t16.5 -39.5t-16.5 -39.5t-39.5 -16.5zM370 56q-23 0 -39.5 16.5t-16.5 39.5t16.5 39.5t39.5 16.5t39.5 -16.5t16.5 -39.5t-16.5 -39.5t-39.5 -16.5zM232 131q-23 0 -39.5 16.5t-16.5 39.5t16.5 39.5
t39.5 16.5t39.5 -16.5t16.5 -39.5t-16.5 -39.5t-39.5 -16.5zM94 206q-23 0 -39.5 16.5t-16.5 39.5t16.5 39.5t39.5 16.5t39.5 -16.5t16.5 -39.5t-16.5 -39.5t-39.5 -16.5zM370 206q-23 0 -39.5 16.5t-16.5 39.5t16.5 39.5t39.5 16.5t39.5 -16.5t16.5 -39.5t-16.5 -39.5
t-39.5 -16.5zM232 281q-23 0 -39.5 16.5t-16.5 39.5t16.5 39.5t39.5 16.5t39.5 -16.5t16.5 -39.5t-16.5 -39.5t-39.5 -16.5z" />
    <glyph glyph-name="uni25B6.case.ss09" horiz-adv-x="494" 
d="M105 703q21 0 36 -15t15 -36t-15 -36t-36 -15t-36 15t-15 36t15 36t36 15zM105 83q21 0 36 -15t15 -36t-15 -36t-36 -15t-36 15t-15 36t15 36t36 15zM105 238q21 0 36 -15t15 -36t-15 -36t-36 -15t-36 15t-15 36t15 36t36 15zM255 238q21 0 36 -15t15 -36t-15 -36
t-36 -15t-36 15t-15 36t15 36t36 15zM105 393q21 0 36 -15t15 -36t-15 -36t-36 -15t-36 15t-15 36t15 36t36 15zM255 393q21 0 36 -15t15 -36t-15 -36t-36 -15t-36 15t-15 36t15 36t36 15zM405 393q21 0 36 -15t15 -36t-15 -36t-36 -15t-36 15t-15 36t15 36t36 15zM105 548
q21 0 36 -15t15 -36t-15 -36t-36 -15t-36 15t-15 36t15 36t36 15zM255 548q21 0 36 -15t15 -36t-15 -36t-36 -15t-36 15t-15 36t15 36t36 15z" />
    <glyph glyph-name="uni25B8.case.ss09" horiz-adv-x="480" 
d="M110 548q23 0 39.5 -16.5t16.5 -39.5t-16.5 -39.5t-39.5 -16.5t-39.5 16.5t-16.5 39.5t16.5 39.5t39.5 16.5zM110 248q23 0 39.5 -16.5t16.5 -39.5t-16.5 -39.5t-39.5 -16.5t-39.5 16.5t-16.5 39.5t16.5 39.5t39.5 16.5zM248 323q23 0 39.5 -16.5t16.5 -39.5t-16.5 -39.5
t-39.5 -16.5t-39.5 16.5t-16.5 39.5t16.5 39.5t39.5 16.5zM110 398q23 0 39.5 -16.5t16.5 -39.5t-16.5 -39.5t-39.5 -16.5t-39.5 16.5t-16.5 39.5t16.5 39.5t39.5 16.5zM386 398q23 0 39.5 -16.5t16.5 -39.5t-16.5 -39.5t-39.5 -16.5t-39.5 16.5t-16.5 39.5t16.5 39.5
t39.5 16.5zM248 473q23 0 39.5 -16.5t16.5 -39.5t-16.5 -39.5t-39.5 -16.5t-39.5 16.5t-16.5 39.5t16.5 39.5t39.5 16.5z" />
    <glyph glyph-name="uni25C0.case.ss09" horiz-adv-x="494" 
d="M389 601q-21 0 -36 15t-15 36t15 36t36 15t36 -15t15 -36t-15 -36t-36 -15zM389 -19q-21 0 -36 15t-15 36t15 36t36 15t36 -15t15 -36t-15 -36t-36 -15zM239 136q-21 0 -36 15t-15 36t15 36t36 15t36 -15t15 -36t-15 -36t-36 -15zM389 136q-21 0 -36 15t-15 36t15 36
t36 15t36 -15t15 -36t-15 -36t-36 -15zM89 291q-21 0 -36 15t-15 36t15 36t36 15t36 -15t15 -36t-15 -36t-36 -15zM239 291q-21 0 -36 15t-15 36t15 36t36 15t36 -15t15 -36t-15 -36t-36 -15zM389 291q-21 0 -36 15t-15 36t15 36t36 15t36 -15t15 -36t-15 -36t-36 -15z
M239 446q-21 0 -36 15t-15 36t15 36t36 15t36 -15t15 -36t-15 -36t-36 -15zM389 446q-21 0 -36 15t-15 36t15 36t36 15t36 -15t15 -36t-15 -36t-36 -15z" />
    <glyph glyph-name="uni25C2.case.ss09" horiz-adv-x="480" 
d="M370 436q-23 0 -39.5 16.5t-16.5 39.5t16.5 39.5t39.5 16.5t39.5 -16.5t16.5 -39.5t-16.5 -39.5t-39.5 -16.5zM370 136q-23 0 -39.5 16.5t-16.5 39.5t16.5 39.5t39.5 16.5t39.5 -16.5t16.5 -39.5t-16.5 -39.5t-39.5 -16.5zM232 211q-23 0 -39.5 16.5t-16.5 39.5
t16.5 39.5t39.5 16.5t39.5 -16.5t16.5 -39.5t-16.5 -39.5t-39.5 -16.5zM94 286q-23 0 -39.5 16.5t-16.5 39.5t16.5 39.5t39.5 16.5t39.5 -16.5t16.5 -39.5t-16.5 -39.5t-39.5 -16.5zM370 286q-23 0 -39.5 16.5t-16.5 39.5t16.5 39.5t39.5 16.5t39.5 -16.5t16.5 -39.5
t-16.5 -39.5t-39.5 -16.5zM232 361q-23 0 -39.5 16.5t-16.5 39.5t16.5 39.5t39.5 16.5t39.5 -16.5t16.5 -39.5t-16.5 -39.5t-39.5 -16.5z" />
    <glyph glyph-name="longs_i.ss11" horiz-adv-x="529" 
d="M176 563v-563h-86v562q0 84 44.5 126t120.5 42q75 0 131 -32l-32 -71q-43 23 -87 23q-50 0 -70.5 -19t-20.5 -68zM358 0v501h86v-501h-86z" />
    <glyph glyph-name="longs_j.ss11" horiz-adv-x="529" 
d="M176 563v-563h-86v562q0 84 44.5 126t120.5 42q75 0 131 -32l-32 -71q-43 23 -87 23q-50 0 -70.5 -19t-20.5 -68zM319 -206l-36 59q46 30 60.5 61t14.5 98v489h86v-490q0 -99 -26 -140t-99 -77z" />
    <glyph glyph-name="longs_longs_i.ss11" horiz-adv-x="797" 
d="M358 0v562q0 84 44.5 126t120.5 42q75 0 131 -32l-32 -71q-43 23 -87 23q-50 0 -70.5 -19t-20.5 -68v-563h-86zM176 572v-572h-86v571q0 80 35.5 114.5t91.5 34.5q58 0 96 -23l-29 -67q-27 14 -55 14q-53 0 -53 -72zM626 0v501h86v-501h-86z" />
    <glyph glyph-name="longs_longs_j.ss11" horiz-adv-x="797" 
d="M358 0v562q0 84 44.5 126t120.5 42q75 0 131 -32l-32 -71q-43 23 -87 23q-50 0 -70.5 -19t-20.5 -68v-563h-86zM176 572v-572h-86v571q0 80 35.5 114.5t91.5 34.5q58 0 96 -23l-29 -67q-27 14 -55 14q-53 0 -53 -72zM587 -206l-36 59q46 30 60.5 61t14.5 98v489h86v-490
q0 -99 -26 -140t-99 -77z" />
    <glyph glyph-name="i.ss11" horiz-adv-x="271" 
d="M93 0v501h86v-501h-86zM134 594q-25 0 -42 17.5t-17 43.5t17.5 44t42.5 18q26 0 43.5 -17.5t17.5 -44.5q0 -26 -17.5 -43.5t-44.5 -17.5z" />
    <glyph glyph-name="j.ss11" horiz-adv-x="271" 
d="M54 -206l-36 59q46 30 60.5 61t14.5 98v489h86v-490q0 -99 -26 -140t-99 -77zM134 594q-25 0 -42 17.5t-17 43.5t17.5 44t42.5 18q26 0 43.5 -17.5t17.5 -44.5q0 -26 -17.5 -43.5t-44.5 -17.5z" />
    <glyph glyph-name="igrave.ss11" horiz-adv-x="271" 
d="M93 0v501h86v-501h-86zM185 564l-206 102l46 84l191 -133z" />
    <glyph glyph-name="iacute.ss11" horiz-adv-x="271" 
d="M93 0v501h86v-501h-86zM103 564l-31 53l191 133l46 -84z" />
    <glyph glyph-name="icircumflex.ss11" horiz-adv-x="271" 
d="M93 0v501h86v-501h-86zM17 570l-33 45l124 127h58l123 -127l-33 -45l-119 84z" />
    <glyph glyph-name="idieresis.ss11" horiz-adv-x="271" 
d="M93 0v501h86v-501h-86zM37 567q-23 0 -41 17.5t-18 42.5t18 42.5t41 17.5t41 -17.5t18 -42.5t-18 -42.5t-41 -17.5zM236 567q-24 0 -41.5 17.5t-17.5 42.5t17.5 42.5t41.5 17.5t41.5 -17.5t17.5 -42.5t-17.5 -42.5t-41.5 -17.5z" />
    <glyph glyph-name="dotlessi.ss11" horiz-adv-x="271" 
d="M93 0v501h86v-501h-86z" />
    <glyph glyph-name="ij.ss11" horiz-adv-x="542" 
d="M93 0v501h86v-501h-86zM134 594q-25 0 -42 17.5t-17 43.5t17.5 44t42.5 18q26 0 43.5 -17.5t17.5 -44.5q0 -26 -17.5 -43.5t-44.5 -17.5zM325 -206l-36 59q46 30 60.5 61t14.5 98v489h86v-490q0 -99 -26 -140t-99 -77zM405 594q-25 0 -42 17.5t-17 43.5t17.5 44t42.5 18
q26 0 43.5 -17.5t17.5 -44.5q0 -26 -17.5 -43.5t-44.5 -17.5z" />
    <glyph glyph-name="I.ss12" horiz-adv-x="296" 
d="M102 0v689h92v-689h-92z" />
    <glyph glyph-name="Igrave.ss12" horiz-adv-x="296" 
d="M102 0v689h92v-689h-92zM197 738l-206 102l46 84l191 -133z" />
    <glyph glyph-name="Iacute.ss12" horiz-adv-x="296" 
d="M102 0v689h92v-689h-92zM108 738l-31 53l191 133l46 -84z" />
    <glyph glyph-name="Icircumflex.ss12" horiz-adv-x="296" 
d="M102 0v689h92v-689h-92zM28 744l-33 45l124 127h58l123 -127l-33 -45l-119 84z" />
    <glyph glyph-name="Idieresis.ss12" horiz-adv-x="296" 
d="M102 0v689h92v-689h-92zM49 741q-23 0 -41 17.5t-18 42.5t18 42.5t41 17.5t41 -17.5t18 -42.5t-18 -42.5t-41 -17.5zM248 741q-24 0 -41.5 17.5t-17.5 42.5t17.5 42.5t41.5 17.5t41.5 -17.5t17.5 -42.5t-17.5 -42.5t-41.5 -17.5z" />
    <glyph glyph-name="f_f_i.sc.ss12" horiz-adv-x="1202" 
d="M100 0v559h292v-75h-204v-154h164v-74h-164v-256h-88zM557 0v559h292v-75h-204v-154h164v-74h-164v-256h-88zM1102 0h-88v559h88v-559z" />
    <glyph glyph-name="f_i.sc.ss12" horiz-adv-x="745" 
d="M100 0v559h292v-75h-204v-154h164v-74h-164v-256h-88zM645 0h-88v559h88v-559z" />
    <glyph glyph-name="i.sc.ss12" horiz-adv-x="288" 
d="M188 0h-88v559h88v-559z" />
    <glyph glyph-name="igrave.sc.ss12" horiz-adv-x="288" 
d="M188 0h-88v559h88v-559zM212 599l-206 102l46 84l191 -133z" />
    <glyph glyph-name="iacute.sc.ss12" horiz-adv-x="288" 
d="M188 0h-88v559h88v-559zM70 599l-31 53l191 133l46 -84z" />
    <glyph glyph-name="icircumflex.sc.ss12" horiz-adv-x="288" 
d="M188 0h-88v559h88v-559zM26 605l-33 45l124 127h58l123 -127l-33 -45l-119 84z" />
    <glyph glyph-name="idieresis.sc.ss12" horiz-adv-x="288" 
d="M188 0h-88v559h88v-559zM46 602q-24 0 -41.5 18t-17.5 42t17.5 42t41.5 18t41.5 -18t17.5 -42t-17.5 -42t-41.5 -18zM245 602q-23 0 -41 18t-18 42t18 42t41 18t41 -18t18 -42t-18 -42t-41 -18z" />
    <glyph glyph-name="dotlessi.sc.ss12" horiz-adv-x="288" 
d="M188 0h-88v559h88v-559z" />
    <glyph glyph-name="fi.sc.ss12" horiz-adv-x="745" 
d="M100 0v559h292v-75h-204v-154h164v-74h-164v-256h-88zM645 0h-88v559h88v-559z" />
    <glyph glyph-name="uniFB03.sc.ss12" horiz-adv-x="1202" 
d="M100 0v559h292v-75h-204v-154h164v-74h-164v-256h-88zM557 0v559h292v-75h-204v-154h164v-74h-164v-256h-88zM1102 0h-88v559h88v-559z" />
    <glyph glyph-name="c_l.ss13" horiz-adv-x="701" 
d="M517 0v641q-62 24 -115 24q-33 0 -55.5 -9t-32 -24t-13 -26.5t-3.5 -23.5q0 -51 29 -75q4 -3 27 -17.5t42 -32.5l-50 -60q-24 24 -44.5 34t-50.5 10q-59 0 -82 -38t-23 -152q0 -112 25 -151.5t87 -39.5q28 0 47 11t45 35l53 -57q-57 -62 -150 -62q-199 0 -199 264
q0 263 200 263q4 0 8 -1q-26 32 -26 79q0 15 7.5 34.5t24.5 42.5t52 38.5t82 15.5q102 0 207 -40v-683h-92z" />
    <glyph glyph-name="f_f_l.ss13" horiz-adv-x="804" 
d="M358 0v431h-182v-431h-86v431h-55v70h55v70q0 80 35.5 114.5t91.5 34.5q58 0 96 -23l-29 -67q-27 14 -55 14q-53 0 -53 -72v-71h182v61q0 83 50.5 125.5t131.5 42.5q49 0 89 -6h83v-724h-86v647q-32 8 -74 8q-55 0 -81.5 -22t-26.5 -70v-62h104v-70h-104v-431h-86z" />
    <glyph glyph-name="f_l.ss13" horiz-adv-x="536" 
d="M358 0v647q-32 8 -74 8q-55 0 -81.5 -22t-26.5 -70v-62h104v-70h-104v-431h-86v431h-55v70h55v61q0 83 50.5 125.5t131.5 42.5q49 0 89 -6h83v-724h-86z" />
    <glyph glyph-name="longs_l.ss13" horiz-adv-x="536" 
d="M358 0v647q-32 8 -74 8q-55 0 -81.5 -22t-26.5 -70v-563h-86v562q0 83 50.5 125.5t131.5 42.5q49 0 89 -6h83v-724h-86z" />
    <glyph glyph-name="longs_longs_l.ss13" horiz-adv-x="804" 
d="M358 0v562q0 83 50.5 125.5t131.5 42.5q49 0 89 -6h83v-724h-86v647q-32 8 -74 8q-55 0 -81.5 -22t-26.5 -70v-563h-86zM176 572v-572h-86v571q0 80 35.5 114.5t91.5 34.5q58 0 96 -23l-29 -67q-27 14 -55 14q-53 0 -53 -72z" />
    <glyph glyph-name="s_l.ss13" horiz-adv-x="693" 
d="M394 665q-33 0 -55.5 -9t-32 -24t-13 -26.5t-3.5 -23.5q0 -41 17 -64t49 -42l-28 -63q-56 28 -106 28q-79 0 -79 -62q0 -34 18 -48.5t72 -29.5q34 -9 56.5 -19t45 -28t34 -47t11.5 -70q0 -77 -44 -113.5t-133 -36.5q-48 0 -93 15.5t-73 38.5l36 64q67 -46 134 -46
q49 0 69 18.5t20 55.5q0 40 -20.5 55.5t-85.5 33.5q-60 16 -94 51t-34 104q0 59 39.5 98t117.5 39q24 0 37 -4q-28 34 -28 82q0 15 7.5 34.5t24.5 42.5t52 38.5t82 15.5q102 0 207 -40v-683h-92v641q-62 24 -115 24z" />
    <glyph glyph-name="l.ss13" horiz-adv-x="270" 
d="M92 0v724h86v-724h-86z" />
    <glyph glyph-name="lslash.ss13" horiz-adv-x="270" 
d="M30 284v82l62 29v329h86v-289l76 36v-82l-76 -36v-353h-86v313z" />
    </font>
</defs>
</svg>
